<svg width="30" height="31" viewBox="0 0 30 31" fill="none" xmlns="http://www.w3.org/2000/svg">
<rect width="30" height="30.062" rx="5" fill="#00D9A4"/>
<path d="M4.19351 19.2932L5.64065 21.6716C5.80146 21.9365 6.04971 22.1366 6.34264 22.2377C6.6356 22.339 6.95446 22.3347 7.24446 22.2255L9.0168 21.5608C9.78822 22.1792 10.6586 22.6628 11.5912 22.9912L11.8332 24.2C11.8947 24.5002 12.0577 24.7702 12.295 24.9643C12.5322 25.1585 12.8291 25.265 13.1357 25.2659H15.937C16.2438 25.2648 16.5409 25.1579 16.7781 24.9633C17.0153 24.7689 17.178 24.4983 17.2392 24.1976L17.4811 22.9888V22.989C18.4135 22.6605 19.2839 22.177 20.0553 21.5587L21.8277 22.2233C22.1176 22.3325 22.4367 22.3369 22.7295 22.2358C23.0224 22.1347 23.2707 21.9345 23.4317 21.6698L24.8788 19.2909V19.2911C25.0398 19.0262 25.1033 18.7137 25.0584 18.4071C25.0133 18.1007 24.8628 17.8194 24.6325 17.6121L23.225 16.345H23.2248C23.4558 15.2124 23.4558 14.0449 23.2248 12.9125L24.6319 11.6479C24.8628 11.4406 25.0137 11.1593 25.059 10.8527C25.1043 10.5459 25.0408 10.233 24.8798 9.96811L23.4331 7.59009C23.272 7.32522 23.0234 7.12505 22.7305 7.02395C22.4373 6.92307 22.1182 6.92762 21.8283 7.03701L20.0585 7.7066C19.2859 7.08744 18.4144 6.60324 17.4807 6.27409L17.2392 5.06748C17.1785 4.76643 17.0157 4.49563 16.7781 4.30057C16.5408 4.10573 16.2433 3.99872 15.9361 3.99792H13.1367C12.8296 3.99872 12.5321 4.10573 12.2947 4.30057C12.0571 4.49561 11.8943 4.7664 11.8336 5.06748L11.5931 6.27409C10.6592 6.60324 9.78771 7.08744 9.01508 7.7066L7.24588 7.03939V7.03919C6.95589 6.9298 6.63685 6.92525 6.34371 7.02613C6.05076 7.12721 5.80213 7.32739 5.6411 7.59227L4.19356 9.97029C4.03254 10.2352 3.96905 10.5479 4.01415 10.8545C4.05925 11.1611 4.21017 11.4423 4.44081 11.6497L5.84841 12.9146C5.61737 14.047 5.61737 15.2147 5.84841 16.3471L4.44081 17.6142C4.21037 17.8215 4.05945 18.1026 4.01435 18.4092C3.96925 18.7156 4.03254 19.0283 4.19356 19.2932L4.19351 19.2932ZM5.03279 18.2741L6.82411 16.6618L6.76655 16.4078H6.76635C6.492 15.2396 6.492 14.0236 6.76635 12.8556L6.82431 12.6016L5.03238 10.9911H5.03257C4.87433 10.8487 4.83971 10.6139 4.95029 10.4319L6.39702 8.05387H6.39682C6.50759 7.87149 6.7325 7.79375 6.93207 7.86912L9.18466 8.71949L9.38365 8.55076V8.55056C10.1832 7.86993 11.1101 7.35504 12.1104 7.03557L12.3595 6.95585L12.7011 5.24109C12.7432 5.03458 12.9252 4.88623 13.1362 4.88662H15.9356C16.1464 4.88623 16.3284 5.03458 16.3707 5.24109L16.7124 6.95585L16.9614 7.03557C17.9617 7.35502 18.8884 7.86993 19.688 8.55056L19.8869 8.71929L22.1395 7.86892V7.86912C22.3391 7.79375 22.564 7.8711 22.6748 8.05347L24.1215 10.4319C24.2321 10.6141 24.1973 10.8493 24.0386 10.9915L22.2459 12.6008L22.3039 12.8548V12.8546C22.5785 14.0228 22.5785 15.2388 22.3039 16.4068L22.2463 16.6608L24.0377 18.2731H24.0379C24.1959 18.4157 24.2303 18.6505 24.1198 18.8323L22.6726 21.2117C22.5618 21.3935 22.3375 21.471 22.1383 21.396L19.883 20.5474L19.6844 20.7158H19.6846C18.8858 21.3952 17.9601 21.9093 16.9614 22.2286L16.7127 22.3079L16.3715 24.0252C16.3294 24.2317 16.1476 24.3799 15.937 24.3797H13.1356C12.925 24.3799 12.7432 24.2317 12.7011 24.0252L12.3577 22.3097L12.109 22.2304C11.1103 21.9111 10.1846 21.397 9.38587 20.7175L9.18727 20.5492L6.9319 21.3978H6.93209C6.7329 21.4726 6.50839 21.3952 6.39781 21.2134L4.95067 18.8341C4.83911 18.6519 4.87353 18.4159 5.03256 18.2731L5.03279 18.2741Z" fill="white"/>
<path d="M14.5364 19.5058C15.8291 19.5058 17.0688 18.9923 17.9828 18.0783C18.8969 17.1642 19.4104 15.9246 19.4104 14.6319C19.4104 13.3392 18.8968 12.0996 17.9828 11.1855C17.0688 10.2715 15.8291 9.758 14.5364 9.758C13.2437 9.758 12.0041 10.2715 11.0901 11.1855C10.176 12.0996 9.66251 13.3392 9.66251 14.6319C9.6641 15.9242 10.178 17.1628 11.0917 18.0767C12.0055 18.9904 13.2442 19.5042 14.5364 19.5058ZM14.5364 10.6442C15.5941 10.6442 16.6085 11.0643 17.3562 11.8122C18.1041 12.5599 18.5242 13.5742 18.5242 14.6319C18.5242 15.6896 18.1041 16.7039 17.3562 17.4517C16.6085 18.1996 15.5941 18.6197 14.5364 18.6197C13.4788 18.6197 12.4644 18.1995 11.7167 17.4517C10.9688 16.7039 10.5487 15.6896 10.5487 14.6319C10.5499 13.5746 10.9704 12.5611 11.7179 11.8134C12.4656 11.0659 13.4792 10.6454 14.5364 10.6442Z" fill="white"/>
</svg>
