<svg width="31" height="29" viewBox="0 0 31 29" fill="none" xmlns="http://www.w3.org/2000/svg">
<path d="M25.1842 9.99045H18.3156C18.1075 9.99045 17.8297 10.1293 17.7605 10.3374L16.7893 11.8638L14.6387 3.88553C14.5695 3.53854 14.2917 3.33044 13.9447 3.39965C13.5977 3.39965 13.3204 3.67695 13.3204 3.95473L11.3087 14.5696L10.3374 11.6557C10.2682 11.3784 9.99043 11.1698 9.71313 11.1698H4.99567C4.57948 11.1698 4.3017 11.4471 4.3017 11.8638C4.3017 12.28 4.579 12.5578 4.99567 12.5578H9.22773L10.8929 17.553C10.9621 17.8303 11.2399 18.0389 11.5172 18.0389H11.5864C11.9334 18.0389 12.1415 17.7616 12.2107 17.4838L14.1533 7.21596L15.8877 13.8067C15.9569 14.084 16.165 14.2926 16.4428 14.2926C16.7201 14.3618 16.9979 14.2234 17.1368 13.9456L18.7324 11.3788H25.1843C25.6005 11.3788 25.8783 11.1015 25.8783 10.6848C25.8778 10.2676 25.5308 9.99034 25.1843 9.99034L25.1842 9.99045Z" fill="white"/>
<path d="M28.3756 0H1.73445C0.763183 0 0 0.763183 0 1.73445V23.5885C0 24.5598 0.763183 25.323 1.73445 25.323H9.43541L7.49282 27.8898C7.35393 28.0979 7.28472 28.3757 7.42362 28.5838C7.56251 28.7919 7.77061 29 8.04791 29H22.0623C22.4785 29 22.7562 28.7227 22.7562 28.306C22.7562 28.0979 22.687 27.8898 22.5481 27.8201L20.6748 25.3917H28.3758C29.347 25.3917 30.1102 24.6285 30.1102 23.6572L30.1097 1.73501C30.1097 0.763738 29.3466 0.000555778 28.3753 0.000555778L28.3756 0ZM9.43541 27.6124L11.1699 25.323H18.9401L20.6745 27.6124H9.43541ZM28.7225 23.5885C28.7225 23.7966 28.5836 23.9355 28.3755 23.9355H1.73435C1.52625 23.9355 1.38736 23.7966 1.38736 23.5885V20.8136H28.7917V23.5885H28.7225ZM28.7225 19.4261H1.38756V1.7347C1.38756 1.5266 1.52645 1.38771 1.73455 1.38771H28.4451C28.6532 1.38771 28.7921 1.5266 28.7921 1.7347L28.7916 19.4261H28.7225Z" fill="white"/>
</svg>
