<svg width="32" height="28" viewBox="0 0 32 28" fill="none" xmlns="http://www.w3.org/2000/svg">
<path d="M23.5347 11.8404H18.7993V7.25968C18.7988 6.82344 18.6193 6.4051 18.3002 6.09648C17.9814 5.78807 17.5489 5.6145 17.0976 5.61398H14.903C14.4518 5.61424 14.0193 5.78781 13.7002 6.09622C13.3811 6.40488 13.2014 6.82322 13.2008 7.25969V11.8404H8.46599C8.01498 11.8409 7.58249 12.0144 7.26341 12.3229C6.94457 12.6315 6.76513 13.0496 6.7646 13.4861V15.6093C6.76513 16.0456 6.94457 16.4639 7.26341 16.7723C7.58253 17.081 8.01502 17.2545 8.46599 17.255H13.2008V21.8354C13.2014 22.2719 13.3811 22.6903 13.7002 22.9989C14.0193 23.3073 14.4518 23.4809 14.903 23.4812H17.0976C17.5489 23.4809 17.9814 23.3073 18.3002 22.9987C18.6193 22.6903 18.7988 22.2719 18.7993 21.8355V17.255H23.5347C23.9857 17.2545 24.4182 17.081 24.7373 16.7723C25.0561 16.4639 25.2356 16.0456 25.2361 15.6094V13.4861C25.2356 13.0496 25.0561 12.6312 24.7373 12.3229C24.4182 12.0142 23.9857 11.8406 23.5347 11.8404ZM13.7624 16.1677H8.46561C8.14703 16.1675 7.88862 15.9175 7.88836 15.6094V13.4861C7.88862 13.1777 8.14703 12.928 8.46561 12.9275H13.7624C14.0729 12.9275 14.3246 12.684 14.3246 12.3839V7.2597C14.3252 6.95129 14.5838 6.70134 14.9027 6.70134H17.0973C17.4161 6.7016 17.6743 6.95155 17.6748 7.2597V12.3839C17.6748 12.684 17.9265 12.9275 18.2367 12.9275H23.5344C23.8532 12.928 24.1114 13.1777 24.1119 13.4861V15.6094C24.1114 15.9175 23.8532 16.1675 23.5344 16.1677H18.2367C17.9265 16.1677 17.6748 16.4112 17.6748 16.7115V21.8355C17.6743 22.1439 17.4161 22.3936 17.0973 22.3941H14.9027C14.5838 22.3939 14.3252 22.1442 14.3246 21.8355V16.7115C14.3244 16.4112 14.0729 16.168 13.7624 16.1677ZM22.7102 0C20.127 0.0181878 17.679 1.11958 16.0005 3.0189C14.3213 1.11958 11.8729 0.018225 9.28963 0C4.16769 0 0.000766504 4.38764 0.00145416 9.75771V9.75797C-0.00445542 10.0318 0.00763234 10.3059 0.0379859 10.5782C0.107824 11.4879 0.300155 12.3848 0.610405 13.2461C1.91537 17.3307 5.60293 23.1933 15.7553 27.9458C15.9103 28.0181 16.0906 28.0181 16.2456 27.9458C26.3974 23.1929 30.084 17.3294 31.3823 13.2667C31.696 12.4012 31.8905 11.4997 31.9614 10.5851C31.9907 10.318 32.0033 10.0493 31.9993 9.78065C31.9993 4.38777 27.8322 0.000326301 22.7104 0.000326301L22.7102 0ZM30.315 12.9265C29.0861 16.77 25.6043 22.2911 16.0007 26.852C6.38868 22.2882 2.90776 16.763 1.67548 12.8972C1.39478 12.1191 1.22099 11.3086 1.15867 10.4868C1.13235 10.2525 1.12133 10.0166 1.12509 9.78093C1.12509 4.98721 4.78796 1.08745 9.28963 1.08745C11.7687 1.11551 14.0895 2.27121 15.5532 4.20686C15.6636 4.33521 15.8275 4.40952 16.0005 4.40952C16.1732 4.40952 16.337 4.33521 16.4474 4.20686C17.9108 2.27115 20.2314 1.11525 22.7102 1.08745C27.2122 1.08745 30.8747 4.98714 30.8761 9.80421V9.80395C30.8783 10.0344 30.8667 10.2646 30.8412 10.4938C30.7773 11.3234 30.6005 12.1413 30.315 12.9259L30.315 12.9265Z" fill="white"/>
</svg>
