<svg width="31" height="23" viewBox="0 0 31 23" fill="none" xmlns="http://www.w3.org/2000/svg">
<path d="M15.4799 22.4647C13.6278 22.4647 12.1384 20.9751 12.1384 19.1231C12.1384 17.271 13.6279 15.7816 15.4799 15.7816C17.332 15.7816 18.8214 17.2711 18.8214 19.1231C18.8212 20.9749 17.3316 22.4647 15.4799 22.4647ZM15.4799 17.7541C14.7554 17.7541 14.1513 18.3579 14.1513 19.0827C14.1513 19.8072 14.7551 20.4112 15.4799 20.4112C16.2044 20.4112 16.8085 19.8074 16.8085 19.0827C16.8082 18.3983 16.2044 17.7541 15.4799 17.7541Z" fill="white"/>
<path d="M22.2032 15.7816C21.9617 15.7816 21.6798 15.701 21.4787 15.4996C18.1773 12.1982 12.7826 12.1982 9.44111 15.4996C9.0384 15.9023 8.39443 15.9023 8.03188 15.4996C7.66961 15.0969 7.62917 14.453 8.03188 14.0904C12.1384 9.98386 18.8214 9.98386 22.9279 14.0904C23.3306 14.4931 23.3306 15.1371 22.9279 15.4996C22.7265 15.701 22.4449 15.7816 22.2034 15.7816H22.2032Z" fill="white"/>
<path d="M29.9733 8.01149C29.7318 8.01149 29.4498 7.93089 29.2488 7.72954C25.5851 4.02595 20.6735 2.01298 15.48 2.01298C10.2867 2.01298 5.37488 4.02595 1.71126 7.72983C1.30855 8.13254 0.664584 8.13254 0.302033 7.72983C-0.100678 7.32712 -0.100678 6.68315 0.302033 6.3206C4.32798 2.25446 9.72276 0 15.4799 0C21.2368 0 26.6318 2.25446 30.698 6.28041C31.1007 6.68312 31.1007 7.32709 30.698 7.68964C30.4966 7.93115 30.2147 8.01147 29.9731 8.01147L29.9733 8.01149Z" fill="white"/>
<path d="M26.0279 11.9569C25.7863 11.9569 25.5044 11.8763 25.3033 11.675C19.9083 6.23979 11.0515 6.23979 5.65668 11.675C5.25397 12.0777 4.61001 12.0777 4.24746 11.675C3.88519 11.2723 3.84475 10.6283 4.24746 10.2657C10.4476 4.06592 20.5123 4.06592 26.7123 10.2657C27.115 10.6685 27.115 11.3124 26.7123 11.675C26.5513 11.8763 26.2694 11.9569 26.0279 11.9569Z" fill="white"/>
</svg>
