<svg width="14" height="14" viewBox="0 0 14 14" fill="none" xmlns="http://www.w3.org/2000/svg">
<path d="M5.20994 14C4.75362 14 4.32143 13.797 4.04449 13.4469L0.296347 8.72551C0.180465 8.5797 0.0958645 8.41354 0.0473806 8.23654C-0.00110318 8.05954 -0.012519 7.87516 0.0137855 7.69395C0.0400901 7.51274 0.103599 7.33825 0.200682 7.18046C0.297766 7.02266 0.426519 6.88465 0.579582 6.77433C0.73259 6.66354 0.907027 6.58263 1.0929 6.53623C1.27876 6.48984 1.47241 6.47887 1.66273 6.50395C1.85306 6.52904 2.03632 6.58968 2.20201 6.68242C2.3677 6.77515 2.51257 6.89814 2.62831 7.04435L5.09455 10.1486L11.2953 0.655755C11.5009 0.342326 11.8286 0.119452 12.2064 0.036021C12.5841 -0.0474098 12.9812 0.0154147 13.3105 0.210714C13.9955 0.616752 14.2063 1.47683 13.7783 2.13089L6.45198 13.3419C6.32691 13.5342 6.15453 13.6944 5.94979 13.8087C5.74504 13.9231 5.51413 13.988 5.27708 13.998C5.254 14 5.23302 14 5.20994 14Z" fill="white"/>
</svg>
