<svg width="85" height="85" viewBox="0 0 85 85" fill="none" xmlns="http://www.w3.org/2000/svg">
<rect x="10.5" y="6.5" width="64" height="64" rx="4.5" stroke="#00D9A4"/>
<mask id="mask0_516_8" style="mask-type:alpha" maskUnits="userSpaceOnUse" x="10" y="6" width="65" height="65">
<rect x="10.5" y="6.5" width="64" height="64" rx="4.5" stroke="#00D9A4"/>
</mask>
<g mask="url(#mask0_516_8)">
<path d="M-1.77823 34.2871C-2.7267 40.2343 -2.49449 46.3102 -1.09485 52.1676C0.304788 58.0251 2.84444 63.5496 6.37909 68.4256C9.91376 73.3016 14.3742 77.4336 19.5058 80.5858C24.6373 83.738 30.3395 85.8486 36.2868 86.7971C42.234 87.7455 48.3098 87.5133 54.1673 86.1137C60.0248 84.714 65.5492 82.1744 70.4252 78.6397C75.3012 75.1051 79.4333 70.6446 82.5855 65.513C85.7377 60.3815 87.8482 54.6793 88.7967 48.7321L43.5092 41.5096L-1.77823 34.2871Z" fill="#CCE0DB"/>
</g>
<g filter="url(#filter0_d_516_8)">
<rect x="20" y="16" width="45" height="45" rx="5" fill="#00D9A4"/>
</g>
<path d="M54.984 44.1287C54.8941 43.924 54.7623 43.7404 54.5971 43.5897C54.432 43.439 54.2371 43.3246 54.025 43.2537C53.8127 43.1876 53.5891 43.1652 53.3678 43.1881C53.1466 43.2109 52.9323 43.2784 52.7379 43.3866L47.4059 46.4549L40.5623 45.8104L40.8065 45.326L45.0252 45.6776C45.3671 45.7059 45.7112 45.663 46.0356 45.5516C46.3601 45.4402 46.6579 45.2627 46.9103 45.0303C47.1627 44.7979 47.3641 44.5157 47.5018 44.2015C47.6396 43.8873 47.7107 43.548 47.7106 43.2049C47.7107 43.1554 47.692 43.1077 47.6583 43.0715C47.6247 43.0352 47.5785 43.0131 47.5291 43.0096C46.5243 42.9319 45.5242 42.8015 44.533 42.619C43.2147 42.3768 42.3104 42.0994 41.9158 41.8162C41.3839 41.4605 40.7884 41.2106 40.1619 41.0801C39.0233 40.8106 36.8455 41.3612 35.0115 41.959V49.3711L47.574 49.1211C47.9385 49.1132 48.2925 48.9977 48.5914 48.7891L54.9156 44.3672C54.9526 44.3413 54.9796 44.3035 54.9921 44.2601C55.0045 44.2167 55.0017 44.1703 54.984 44.1287Z" fill="white"/>
<path d="M34.4258 50.0818H30.1953C30.1435 50.0818 30.0938 50.0613 30.0572 50.0246C30.0206 49.988 30 49.9383 30 49.8865V41.7695C30 41.7177 30.0206 41.6681 30.0572 41.6314C30.0938 41.5948 30.1435 41.5742 30.1953 41.5742H34.4258C34.4776 41.5742 34.5273 41.5948 34.5639 41.6314C34.6005 41.6681 34.6211 41.7177 34.6211 41.7695V49.8865C34.6211 49.9383 34.6005 49.988 34.5639 50.0246C34.5273 50.0613 34.4776 50.0818 34.4258 50.0818Z" fill="white"/>
<path d="M49.009 30.3045C48.9851 30.2973 48.9595 30.299 48.9368 30.3092C48.914 30.3194 48.8958 30.3375 48.8853 30.3602C48.8739 30.4006 48.8496 30.4362 48.8162 30.4616C48.7828 30.4871 48.742 30.5009 48.7 30.5012C48.692 30.5012 48.5273 30.5111 48.5047 30.2992C48.4628 30.1129 48.3565 29.9474 48.2047 29.8316C47.9469 29.6107 47.3373 29.2738 46.1539 29.4996C45.6805 29.6042 45.1853 29.5342 44.7594 29.3027C44.3955 30.1674 43.8207 30.7367 43.0814 30.9482C43.057 30.9585 43.0305 30.9631 43.004 30.9617C42.9776 30.9603 42.9517 30.9529 42.9285 30.9401C42.9053 30.9272 42.8853 30.9093 42.8699 30.8877C42.8546 30.866 42.8444 30.8412 42.84 30.815C42.7979 30.6619 42.7641 30.5066 42.7389 30.3498C42.6706 30.4588 42.6246 30.5802 42.6038 30.7071C42.5829 30.834 42.5874 30.9638 42.6172 31.0889C42.6853 31.5307 42.9223 31.7953 43.0377 31.7764C43.0534 31.7728 43.0682 31.7661 43.0812 31.7566C43.0942 31.7471 43.1052 31.7351 43.1135 31.7213C43.1355 31.6919 43.1655 31.6695 43.1999 31.6567C43.2343 31.6439 43.2716 31.6413 43.3074 31.6491C43.3433 31.6568 43.3762 31.6748 43.4021 31.7007C43.4281 31.7266 43.4461 31.7595 43.4539 31.7953C43.7428 33.0975 44.7625 33.9654 45.8732 33.9842C46.2806 33.9893 46.6816 33.8825 47.0324 33.6754C47.7071 33.2555 48.1927 32.5904 48.3873 31.8199C48.3966 31.7868 48.4145 31.7568 48.4392 31.7328C48.4639 31.7089 48.4944 31.6918 48.5278 31.6835C48.5611 31.6751 48.5961 31.6757 48.6291 31.6852C48.6622 31.6947 48.6922 31.7127 48.716 31.7375C48.7326 31.7574 48.7551 31.7715 48.7803 31.7777C48.8975 31.7996 49.1318 31.5312 49.2 31.0898C49.2682 30.6484 49.1314 30.3238 49.009 30.3045Z" fill="white"/>
<path d="M44.4324 29.0775C44.065 28.7488 43.7913 28.3284 43.6395 27.8594C42.8596 28.6037 43.0584 29.99 43.1676 30.5064C43.8414 30.2309 44.2211 29.6109 44.4324 29.0775Z" fill="white"/>
<path d="M46.0811 29.1156C46.3474 29.0632 46.6181 29.036 46.8895 29.0344C47.4559 29.0057 48.0134 29.1833 48.4588 29.5343C48.5026 29.5719 48.5443 29.6117 48.5838 29.6537C48.6139 29.1576 48.5838 28.4605 48.2658 27.9572C47.9039 27.383 46.5625 26.8867 45.4449 26.9195C45.0285 26.9312 44.2965 27.0303 43.9567 27.5527C44.0522 27.9097 44.5508 29.4078 46.0811 29.1156Z" fill="white"/>
<path d="M48.2049 35.5752C47.9551 35.9569 47.614 36.2702 47.2126 36.4869C46.8111 36.7035 46.362 36.8166 45.9058 36.8159C45.4496 36.8153 45.0008 36.7008 44.6 36.483C44.1992 36.2651 43.8591 35.9508 43.6104 35.5684C43.0502 35.765 41.9854 36.2045 41.3996 36.8732C41.1539 37.1521 41.0381 38.6635 41.027 39.758H50.7912C50.7813 38.6643 50.6668 37.1521 50.4213 36.8736C49.8539 36.2289 48.8444 35.7982 48.2049 35.5752Z" fill="white"/>
<path d="M45.9103 36.4258C46.2828 36.43 46.6506 36.3437 46.9823 36.1742C47.314 36.0048 47.5995 35.7572 47.8142 35.4529L47.6209 35.3943C47.4207 35.3417 47.2432 35.2251 47.1156 35.0621C46.988 34.8992 46.9172 34.6989 46.914 34.492V34.1678C46.5957 34.3038 46.2532 34.3744 45.907 34.3754H45.8679C45.5082 34.3684 45.1539 34.2857 44.8281 34.1328V34.5066C44.825 34.7149 44.7533 34.9164 44.6241 35.0798C44.4949 35.2432 44.3154 35.3594 44.1135 35.4105C44.0765 35.4207 44.0379 35.4322 43.9994 35.4434C44.2136 35.7505 44.4998 36.0006 44.8329 36.1719C45.1659 36.3431 45.5358 36.4303 45.9103 36.4258Z" fill="white"/>
<defs>
<filter id="filter0_d_516_8" x="0" y="0" width="85" height="85" filterUnits="userSpaceOnUse" color-interpolation-filters="sRGB">
<feFlood flood-opacity="0" result="BackgroundImageFix"/>
<feColorMatrix in="SourceAlpha" type="matrix" values="0 0 0 0 0 0 0 0 0 0 0 0 0 0 0 0 0 0 127 0" result="hardAlpha"/>
<feOffset dy="4"/>
<feGaussianBlur stdDeviation="10"/>
<feComposite in2="hardAlpha" operator="out"/>
<feColorMatrix type="matrix" values="0 0 0 0 0.0991667 0 0 0 0 0.35 0 0 0 0 0.290815 0 0 0 0.08 0"/>
<feBlend mode="normal" in2="BackgroundImageFix" result="effect1_dropShadow_516_8"/>
<feBlend mode="normal" in="SourceGraphic" in2="effect1_dropShadow_516_8" result="shape"/>
</filter>
</defs>
</svg>
