<svg width="85" height="85" viewBox="0 0 85 85" fill="none" xmlns="http://www.w3.org/2000/svg">
<rect x="10.5" y="6.5" width="64" height="64" rx="4.5" stroke="#00D9A4"/>
<mask id="mask0_516_7" style="mask-type:alpha" maskUnits="userSpaceOnUse" x="10" y="6" width="65" height="65">
<rect x="10.5" y="6.5" width="64" height="64" rx="4.5" stroke="#00D9A4"/>
</mask>
<g mask="url(#mask0_516_7)">
<path d="M-1.77823 34.2871C-2.7267 40.2343 -2.49449 46.3102 -1.09485 52.1676C0.304788 58.0251 2.84444 63.5496 6.37909 68.4256C9.91376 73.3016 14.3742 77.4336 19.5058 80.5858C24.6373 83.738 30.3395 85.8486 36.2868 86.7971C42.234 87.7455 48.3098 87.5133 54.1673 86.1137C60.0248 84.714 65.5492 82.1744 70.4252 78.6397C75.3012 75.1051 79.4333 70.6446 82.5855 65.513C85.7377 60.3815 87.8482 54.6793 88.7967 48.7321L43.5092 41.5096L-1.77823 34.2871Z" fill="#CCE0DB"/>
</g>
<g filter="url(#filter0_d_516_7)">
<rect x="20" y="16" width="45" height="45" rx="5" fill="#00D9A4"/>
</g>
<g clip-path="url(#clip0_516_7)">
<path d="M49.8664 49.2559C49.8421 49.2841 49.8103 49.3048 49.7746 49.3155C49.739 49.3262 49.701 49.3265 49.6652 49.3164L47.0539 48.5977L45.634 50.9063C45.6168 50.935 45.5925 50.9587 45.5634 50.9751C45.5343 50.9916 45.5014 51.0001 45.468 51H45.4562C45.4209 50.998 45.3868 50.9863 45.3575 50.9664C45.3283 50.9464 45.305 50.9189 45.2902 50.8867L42.8332 45.5176C44.4699 45.4628 46.0678 45.0053 47.4855 44.1855C47.5265 44.1621 47.5676 44.1367 47.6086 44.1113L49.8957 49.0469C49.9109 49.081 49.9162 49.1186 49.911 49.1556C49.9058 49.1925 49.8903 49.2273 49.8664 49.2559Z" fill="white"/>
<path d="M42.1652 45.5176L39.7082 50.8867C39.6934 50.9189 39.6701 50.9464 39.6409 50.9664C39.6117 50.9863 39.5775 50.998 39.5422 51H39.5313C39.4978 51.0001 39.4649 50.9916 39.4358 50.9751C39.4067 50.9587 39.3824 50.935 39.3652 50.9063L37.9453 48.5977L35.334 49.3164C35.2982 49.3265 35.2602 49.3262 35.2246 49.3155C35.1889 49.3048 35.1571 49.2841 35.1328 49.2559C35.1089 49.2273 35.0934 49.1925 35.0882 49.1556C35.0831 49.1186 35.0884 49.081 35.1035 49.0469L37.3906 44.1113C37.4317 44.1367 37.4727 44.1621 37.5137 44.1855C38.9316 45.0041 40.529 45.4615 42.1652 45.5176Z" fill="white"/>
<path d="M42.5 26C37.2246 26 32.7838 30.2932 32.9336 35.5664C33.1641 43.6414 39.9877 45.133 42.5 45.133C49.2932 45.133 52.1484 39.29 52.0664 35.5664C51.9496 30.2924 47.7754 26 42.5 26ZM42.5 42.4453C41.1394 42.4454 39.8094 42.0419 38.6781 41.2861C37.5468 40.5302 36.6651 39.4558 36.1444 38.1988C35.6237 36.9418 35.4874 35.5586 35.7529 34.2242C36.0183 32.8898 36.6735 31.664 37.6355 30.702C38.5976 29.7399 39.8234 29.0847 41.1578 28.8193C42.4922 28.5539 43.8754 28.6901 45.1324 29.2108C46.3894 29.7315 47.4638 30.6132 48.2196 31.7445C48.9755 32.8758 49.3789 34.2058 49.3789 35.5664C49.3768 37.3902 48.6514 39.1386 47.3618 40.4282C46.0722 41.7178 44.3237 42.4432 42.5 42.4453Z" fill="white"/>
<path d="M42.5 29.0781C41.2167 29.0781 39.9623 29.4587 38.8953 30.1716C37.8283 30.8845 36.9967 31.8979 36.5056 33.0834C36.0145 34.269 35.886 35.5736 36.1364 36.8322C36.3867 38.0908 37.0047 39.2469 37.9121 40.1543C38.8195 41.0617 39.9756 41.6797 41.2342 41.93C42.4928 42.1804 43.7974 42.0519 44.983 41.5608C46.1685 41.0697 47.1819 40.2381 47.8948 39.1711C48.6078 38.1041 48.9883 36.8497 48.9883 35.5664C48.9865 33.8462 48.3023 32.1969 47.0859 30.9805C45.8695 29.7641 44.2202 29.0799 42.5 29.0781ZM46.0898 34.7363L44.4375 36.3477L44.8262 38.623C44.8328 38.659 44.829 38.6961 44.8154 38.7301C44.8018 38.764 44.7789 38.7934 44.7492 38.8149C44.7196 38.8363 44.6845 38.849 44.648 38.8513C44.6115 38.8536 44.5751 38.8456 44.543 38.8281L42.5 37.7539L40.457 38.8281C40.4288 38.8433 40.3973 38.8514 40.3652 38.8516C40.324 38.8509 40.2839 38.838 40.25 38.8145C40.2209 38.7926 40.1984 38.7632 40.185 38.7295C40.1716 38.6957 40.1677 38.6589 40.1738 38.623L40.5625 36.3477L38.9102 34.7363C38.8842 34.7106 38.8659 34.6782 38.8573 34.6427C38.8486 34.6071 38.8501 34.5699 38.8613 34.5352C38.8722 34.5005 38.8927 34.4697 38.9203 34.4462C38.948 34.4227 38.9817 34.4075 39.0176 34.4023L41.3027 34.0703L42.3242 32C42.3402 31.967 42.3652 31.9391 42.3963 31.9196C42.4274 31.9002 42.4633 31.8898 42.5 31.8898C42.5367 31.8898 42.5726 31.9002 42.6037 31.9196C42.6348 31.9391 42.6598 31.967 42.6758 32L43.6973 34.0703L45.9824 34.4023C46.0183 34.4075 46.0521 34.4227 46.0797 34.4462C46.1073 34.4697 46.1278 34.5005 46.1387 34.5352C46.15 34.5699 46.1514 34.6071 46.1427 34.6427C46.1341 34.6782 46.1158 34.7106 46.0898 34.7363Z" fill="white"/>
<path d="M40.9822 36.2119L39.4652 34.7328L41.5621 34.4281L42.5 32.5273L43.4379 34.4281L45.5348 34.7328L44.0178 36.2119L44.3744 38.2988L42.5 37.3133L40.6254 38.2988L40.9822 36.2119Z" fill="white"/>
</g>
<defs>
<filter id="filter0_d_516_7" x="0" y="0" width="85" height="85" filterUnits="userSpaceOnUse" color-interpolation-filters="sRGB">
<feFlood flood-opacity="0" result="BackgroundImageFix"/>
<feColorMatrix in="SourceAlpha" type="matrix" values="0 0 0 0 0 0 0 0 0 0 0 0 0 0 0 0 0 0 127 0" result="hardAlpha"/>
<feOffset dy="4"/>
<feGaussianBlur stdDeviation="10"/>
<feComposite in2="hardAlpha" operator="out"/>
<feColorMatrix type="matrix" values="0 0 0 0 0.0991667 0 0 0 0 0.35 0 0 0 0 0.290815 0 0 0 0.08 0"/>
<feBlend mode="normal" in2="BackgroundImageFix" result="effect1_dropShadow_516_7"/>
<feBlend mode="normal" in="SourceGraphic" in2="effect1_dropShadow_516_7" result="shape"/>
</filter>
<clipPath id="clip0_516_7">
<rect width="25" height="25" fill="white" transform="translate(30 26)"/>
</clipPath>
</defs>
</svg>
