<svg width="100" height="100" viewBox="0 0 100 100" fill="none" xmlns="http://www.w3.org/2000/svg">
<rect x="10.5" y="6.5" width="79" height="79" rx="4.5" stroke="#00D9A4"/>
<mask id="mask0_500_5" style="mask-type:alpha" maskUnits="userSpaceOnUse" x="10" y="6" width="80" height="80">
<rect x="10.5" y="6.5" width="79" height="79" rx="4.5" stroke="#00D9A4"/>
</mask>
<g mask="url(#mask0_500_5)">
<path d="M-4.70286 40.5164C-5.87021 47.836 -5.58441 55.314 -3.86178 62.5232C-2.13915 69.7324 0.98657 76.5317 5.33693 82.533C9.68728 88.5342 15.1771 93.6198 21.4928 97.4994C27.8086 101.379 34.8267 103.977 42.1464 105.144C49.466 106.311 56.9439 106.026 64.1532 104.303C71.3624 102.58 78.1617 99.4546 84.163 95.1042C90.1642 90.7539 95.2498 85.2641 99.1294 78.9483C103.009 72.6325 105.607 65.6145 106.774 58.2948L51.0356 49.4056L-4.70286 40.5164Z" fill="#CCE0DB"/>
</g>
<g filter="url(#filter0_d_500_5)">
<rect x="20" y="16" width="60" height="60" rx="5" fill="#00D9A4"/>
</g>
<g clip-path="url(#clip0_500_5)">
<path d="M70 31.7656V61.3125C70 61.3954 69.9671 61.4749 69.9085 61.5335C69.8499 61.5921 69.7704 61.625 69.6875 61.625H54.1406C53.9875 62.6938 53.0563 63.3938 51.7219 63.3938H48.2844C46.9531 63.3938 46.0187 62.6938 45.8687 61.625H30.3125C30.2296 61.625 30.1501 61.5921 30.0915 61.5335C30.0329 61.4749 30 61.3954 30 61.3125V31.7656C30 31.6827 30.0329 31.6033 30.0915 31.5447C30.1501 31.486 30.2296 31.4531 30.3125 31.4531H31.875V58.8469C31.8754 58.9972 31.9119 59.1453 31.9816 59.2785C32.0512 59.4118 32.1518 59.5263 32.275 59.6125C32.4331 59.7243 32.622 59.7843 32.8156 59.7844C32.9223 59.7846 33.0282 59.7656 33.1281 59.7281C38.4816 57.8057 44.3371 57.8057 49.6906 59.7281C49.7929 59.7738 49.9036 59.7974 50.0156 59.7974C50.1276 59.7974 50.2384 59.7738 50.3406 59.7281C55.6942 57.8065 61.5495 57.8065 66.9031 59.7281C67.0443 59.7781 67.1954 59.7934 67.3438 59.773C67.4921 59.7525 67.6334 59.6968 67.7558 59.6105C67.8782 59.5242 67.9782 59.4098 68.0473 59.277C68.1164 59.1441 68.1527 58.9966 68.1531 58.8469V31.4531H69.7156C69.7935 31.4602 69.866 31.4962 69.9186 31.554C69.9713 31.6119 70.0003 31.6874 70 31.7656Z" fill="white"/>
<path d="M32.7 30.1278C32.6385 30.1493 32.5853 30.1895 32.5477 30.2427C32.5102 30.296 32.4902 30.3596 32.4906 30.4247V58.8622C32.4912 58.9121 32.5037 58.9611 32.5271 59.0051C32.5505 59.0491 32.584 59.0869 32.625 59.1154C32.6657 59.1444 32.7128 59.1632 32.7622 59.1703C32.8117 59.1774 32.8622 59.1725 32.9094 59.156C38.3267 57.2044 44.2501 57.1735 49.6875 59.0685V29.9872C44.1722 28.1109 38.1835 28.1604 32.7 30.1278ZM48.0813 53.3747C48.0443 53.4489 47.9795 53.5053 47.901 53.5317C47.8225 53.5581 47.7367 53.5522 47.6625 53.5154C47.6063 53.4872 42.0625 50.7997 35.1188 53.5154C35.0817 53.5289 35.0426 53.5363 35.0031 53.5372C34.9291 53.5387 34.857 53.5138 34.7996 53.467C34.7422 53.4202 34.7033 53.3546 34.6898 53.2818C34.6763 53.209 34.6891 53.1338 34.7259 53.0696C34.7626 53.0053 34.821 52.9562 34.8906 52.931C42.1063 50.0997 47.7031 52.8279 47.9406 52.931C47.9807 52.949 48.0165 52.9753 48.0457 53.0082C48.0748 53.041 48.0968 53.0796 48.1101 53.1215C48.1233 53.1633 48.1276 53.2075 48.1227 53.2512C48.1177 53.2948 48.1036 53.3369 48.0813 53.3747ZM48.0813 47.2279C48.0443 47.302 47.9795 47.3585 47.901 47.3848C47.8225 47.4112 47.7367 47.4053 47.6625 47.3685C47.6063 47.3404 42.0625 44.6529 35.1188 47.3685C35.0817 47.382 35.0426 47.3894 35.0031 47.3904C34.9306 47.3898 34.8605 47.3641 34.8049 47.3175C34.7493 47.2709 34.7116 47.2065 34.6983 47.1352C34.685 47.0639 34.6969 46.9901 34.732 46.9267C34.7671 46.8632 34.8232 46.8139 34.8906 46.7872C42.1063 43.9529 47.7031 46.681 47.9406 46.7872C47.9802 46.8053 48.0156 46.8315 48.0445 46.8641C48.0734 46.8967 48.0952 46.9349 48.1084 46.9764C48.1217 47.0179 48.1261 47.0617 48.1214 47.105C48.1167 47.1483 48.1031 47.1902 48.0813 47.2279ZM48.0813 41.081C48.0443 41.1551 47.9795 41.2116 47.901 41.238C47.8225 41.2643 47.7367 41.2584 47.6625 41.2216C47.6063 41.1935 42.0625 38.506 35.1188 41.2216C35.0817 41.2351 35.0426 41.2425 35.0031 41.2435C34.9306 41.2429 34.8605 41.2172 34.8049 41.1706C34.7493 41.1241 34.7116 41.0596 34.6983 40.9883C34.685 40.917 34.6969 40.8433 34.732 40.7798C34.7671 40.7163 34.8232 40.667 34.8906 40.6404C42.1063 37.806 47.7031 40.5341 47.9406 40.6404C47.9802 40.6585 48.0156 40.6846 48.0445 40.7172C48.0734 40.7498 48.0952 40.7881 48.1084 40.8296C48.1217 40.871 48.1261 40.9148 48.1214 40.9581C48.1167 41.0014 48.1031 41.0433 48.0813 41.081ZM48.0813 34.9341C48.0443 35.0082 47.9795 35.0647 47.901 35.0911C47.8225 35.1174 47.7367 35.1116 47.6625 35.0747C47.6063 35.0497 42.0625 32.3591 35.1188 35.0747C35.0821 35.0897 35.0427 35.0972 35.0031 35.0966C34.9306 35.0961 34.8605 35.0703 34.8049 35.0237C34.7493 34.9772 34.7116 34.9127 34.6983 34.8414C34.685 34.7701 34.6969 34.6964 34.732 34.6329C34.7671 34.5694 34.8232 34.5201 34.8906 34.4935C42.1063 31.6591 47.7031 34.3872 47.9406 34.4935C47.9802 34.5116 48.0156 34.5378 48.0445 34.5703C48.0734 34.6029 48.0952 34.6412 48.1084 34.6827C48.1217 34.7242 48.1261 34.768 48.1214 34.8113C48.1167 34.8546 48.1031 34.8964 48.0813 34.9341ZM67.3031 30.1278C61.8186 28.1604 55.8289 28.1109 50.3125 29.9872V59.0685C55.7481 57.1684 61.6715 57.1938 67.0906 59.1404C67.1247 59.1527 67.1607 59.1591 67.1969 59.1591C67.261 59.158 67.3231 59.1373 67.375 59.0997C67.416 59.0713 67.4496 59.0335 67.4729 58.9895C67.4963 58.9455 67.5088 58.8965 67.5094 58.8466V30.4247C67.51 30.36 67.4905 30.2966 67.4535 30.2434C67.4166 30.1903 67.364 30.1499 67.3031 30.1278ZM65.5844 53.3497C65.5617 53.4085 65.5219 53.459 65.47 53.4947C65.4181 53.5304 65.3567 53.5495 65.2938 53.5497C65.2543 53.5485 65.2153 53.5411 65.1781 53.5279C58.2313 50.7997 52.6781 53.4872 52.6375 53.5279C52.5633 53.5647 52.4775 53.5706 52.399 53.5442C52.3205 53.5178 52.2557 53.4614 52.2188 53.3872C52.1817 53.3134 52.1753 53.228 52.2011 53.1495C52.2269 53.071 52.2827 53.0059 52.3563 52.9685C52.5906 52.8497 58.1906 50.1247 65.4063 52.9685C65.4781 52.9984 65.5362 53.0541 65.5691 53.1246C65.6021 53.1951 65.6075 53.2754 65.5844 53.3497ZM65.5844 47.4122C65.5612 47.4704 65.5212 47.5202 65.4693 47.5553C65.4175 47.5904 65.3564 47.6092 65.2938 47.6091C65.2542 47.6092 65.215 47.6018 65.1781 47.5872C58.2313 44.8622 52.6781 47.5497 52.6375 47.5872C52.5633 47.6245 52.4774 47.6308 52.3986 47.6047C52.3197 47.5787 52.2545 47.5223 52.2172 47.4482C52.1799 47.374 52.1736 47.288 52.1997 47.2092C52.2258 47.1304 52.2821 47.0652 52.3563 47.0279C52.5906 46.9091 58.1906 44.1841 65.4063 47.0279C65.4788 47.0578 65.5374 47.114 65.5704 47.1853C65.6034 47.2565 65.6084 47.3375 65.5844 47.4122ZM65.5844 41.4747C65.5612 41.5329 65.5212 41.5827 65.4693 41.6178C65.4175 41.6529 65.3564 41.6717 65.2938 41.6716C65.2542 41.6717 65.215 41.6643 65.1781 41.6497C58.2313 38.9247 52.6781 41.6122 52.6375 41.6497C52.5633 41.6866 52.4775 41.6925 52.399 41.6661C52.3205 41.6397 52.2557 41.5833 52.2188 41.5091C52.1817 41.4353 52.1753 41.3498 52.2011 41.2714C52.2269 41.1929 52.2827 41.1278 52.3563 41.0904C52.5906 40.9716 58.1906 38.2466 65.4063 41.0904C65.4788 41.1203 65.5374 41.1765 65.5704 41.2478C65.6034 41.319 65.6084 41.4 65.5844 41.4747ZM65.5844 35.5372C65.5617 35.596 65.5219 35.6465 65.47 35.6822C65.4181 35.7178 65.3567 35.737 65.2938 35.7372C65.2542 35.7373 65.215 35.7299 65.1781 35.7154C58.2313 32.9872 52.6781 35.6779 52.6375 35.7154C52.5637 35.7524 52.4782 35.7588 52.3998 35.733C52.3213 35.7072 52.2562 35.6515 52.2188 35.5779C52.1999 35.5412 52.1885 35.5011 52.1852 35.46C52.182 35.4189 52.1869 35.3775 52.1996 35.3383C52.2124 35.2991 52.2328 35.2628 52.2597 35.2315C52.2866 35.2002 52.3194 35.1745 52.3563 35.156C52.5906 35.0403 58.1906 32.3122 65.4063 35.156C65.4774 35.1859 65.535 35.2411 65.5679 35.3109C65.6007 35.3807 65.6066 35.4602 65.5844 35.5341V35.5372Z" fill="white"/>
</g>
<defs>
<filter id="filter0_d_500_5" x="0" y="0" width="100" height="100" filterUnits="userSpaceOnUse" color-interpolation-filters="sRGB">
<feFlood flood-opacity="0" result="BackgroundImageFix"/>
<feColorMatrix in="SourceAlpha" type="matrix" values="0 0 0 0 0 0 0 0 0 0 0 0 0 0 0 0 0 0 127 0" result="hardAlpha"/>
<feOffset dy="4"/>
<feGaussianBlur stdDeviation="10"/>
<feComposite in2="hardAlpha" operator="out"/>
<feColorMatrix type="matrix" values="0 0 0 0 0.0991667 0 0 0 0 0.35 0 0 0 0 0.290815 0 0 0 0.08 0"/>
<feBlend mode="normal" in2="BackgroundImageFix" result="effect1_dropShadow_500_5"/>
<feBlend mode="normal" in="SourceGraphic" in2="effect1_dropShadow_500_5" result="shape"/>
</filter>
<clipPath id="clip0_500_5">
<rect width="40" height="40" fill="white" transform="translate(30 26)"/>
</clipPath>
</defs>
</svg>
