<svg width="100" height="100" viewBox="0 0 100 100" fill="none" xmlns="http://www.w3.org/2000/svg">
<rect x="10.5" y="6.5" width="79" height="79" rx="4.5" stroke="#00D9A4"/>
<mask id="mask0_500_2" style="mask-type:alpha" maskUnits="userSpaceOnUse" x="10" y="6" width="80" height="80">
<rect x="10.5" y="6.5" width="79" height="79" rx="4.5" stroke="#00D9A4"/>
</mask>
<g mask="url(#mask0_500_2)">
<path d="M-4.70224 40.5173C-5.86958 47.837 -5.58378 55.3149 -3.86115 62.5242C-2.13853 69.7334 0.987196 76.5327 5.33755 82.5339C9.6879 88.5352 15.1777 93.6208 21.4935 97.5004C27.8092 101.38 34.8273 103.978 42.147 105.145C49.4666 106.312 56.9446 106.027 64.1538 104.304C71.363 102.581 78.1623 99.4555 84.1636 95.1052C90.1648 90.7548 95.2504 85.265 99.13 78.9493C103.01 72.6335 105.607 65.6154 106.775 58.2958L51.0362 49.4066L-4.70224 40.5173Z" fill="#CCE0DB"/>
</g>
<g filter="url(#filter0_d_500_2)">
<rect x="20" y="16" width="60" height="60" rx="5" fill="#00D9A4"/>
</g>
<path d="M59.0703 51.0859V58.5781C59.0703 58.6817 59.0292 58.7811 58.9559 58.8543C58.8826 58.9276 58.7833 58.9687 58.6797 58.9687H41.3203C41.2167 58.9687 41.1174 58.9276 41.0441 58.8543C40.9708 58.7811 40.9297 58.6817 40.9297 58.5781V51.0859C40.9318 49.4891 41.567 47.9582 42.6962 46.829C43.8254 45.6998 45.3562 45.0646 46.9531 45.0625H53.0469C54.6438 45.0646 56.1746 45.6998 57.3038 46.829C58.433 47.9582 59.0682 49.4891 59.0703 51.0859Z" fill="white"/>
<path d="M54.5547 39.2031C54.5531 40.1036 54.2847 40.9835 53.7833 41.7314C53.2819 42.4794 52.57 43.062 51.7376 43.4055C50.9052 43.7491 49.9896 43.8382 49.1066 43.6615C48.2236 43.4849 47.4128 43.0505 46.7766 42.4132C46.1404 41.7759 45.7074 40.9643 45.5323 40.081C45.3572 39.1977 45.4478 38.2823 45.7928 37.4505C46.1377 36.6187 46.7215 35.9078 47.4704 35.4077C48.2192 34.9076 49.0995 34.6406 50 34.6406C51.2085 34.6433 52.3666 35.1251 53.2204 35.9804C54.0742 36.8357 54.5541 37.9946 54.5547 39.2031Z" fill="white"/>
<path d="M69.1406 49.6482V54.5544C69.1406 54.658 69.0995 54.7574 69.0262 54.8306C68.953 54.9039 68.8536 54.945 68.75 54.945H59.8516V51.0857C59.8486 49.3538 59.1862 47.6881 57.9992 46.427C56.8121 45.166 55.1894 44.4042 53.4609 44.2966C54.5547 43.3591 56.1406 43.4216 56.9062 43.445L62.9531 43.4528C64.5946 43.4557 66.1679 44.1096 67.3279 45.2711C68.4879 46.4325 69.1398 48.0067 69.1406 49.6482Z" fill="white"/>
<path d="M64.625 37.5938C64.6234 38.4942 64.355 39.3741 63.8536 40.1221C63.3522 40.8701 62.6403 41.4526 61.8079 41.7962C60.9755 42.1397 60.06 42.2288 59.177 42.0522C58.2939 41.8755 57.4831 41.4411 56.8469 40.8038C56.2107 40.1665 55.7777 39.355 55.6026 38.4716C55.4275 37.5883 55.5181 36.6729 55.8631 35.8411C56.208 35.0093 56.7918 34.2984 57.5407 33.7983C58.2895 33.2982 59.1698 33.0313 60.0703 33.0312C61.2793 33.0325 62.4382 33.5138 63.2923 34.3694C64.1465 35.225 64.6258 36.3848 64.625 37.5938Z" fill="white"/>
<path d="M46.5469 44.2972C44.8162 44.4007 43.1903 45.1609 42.0011 46.4227C40.812 47.6844 40.1493 49.3525 40.1484 51.0862V54.9456H31.25C31.1464 54.9456 31.047 54.9045 30.9738 54.8312C30.9005 54.7579 30.8594 54.6586 30.8594 54.555V49.6487C30.8602 48.0072 31.5121 46.4331 32.6721 45.2717C33.8321 44.1102 35.4054 43.4563 37.0469 43.4534H42.8125C42.8906 43.4534 42.9844 43.4534 43.0937 43.4456C44.3103 43.2958 45.5394 43.599 46.5469 44.2972Z" fill="white"/>
<path d="M44.4844 37.5938C44.4828 38.4942 44.2144 39.3741 43.713 40.1221C43.2116 40.8701 42.4997 41.4526 41.6673 41.7962C40.8349 42.1397 39.9193 42.2288 39.0363 42.0522C38.1533 41.8755 37.3425 41.4411 36.7063 40.8038C36.0701 40.1665 35.6371 39.355 35.462 38.4716C35.2868 37.5883 35.3775 36.6729 35.7225 35.8411C36.0674 35.0093 36.6512 34.2984 37.4001 33.7983C38.1489 33.2982 39.0292 33.0313 39.9297 33.0312C41.1386 33.0325 42.2976 33.5138 43.1517 34.3694C44.0059 35.225 44.4852 36.3848 44.4844 37.5938Z" fill="white"/>
<defs>
<filter id="filter0_d_500_2" x="0" y="0" width="100" height="100" filterUnits="userSpaceOnUse" color-interpolation-filters="sRGB">
<feFlood flood-opacity="0" result="BackgroundImageFix"/>
<feColorMatrix in="SourceAlpha" type="matrix" values="0 0 0 0 0 0 0 0 0 0 0 0 0 0 0 0 0 0 127 0" result="hardAlpha"/>
<feOffset dy="4"/>
<feGaussianBlur stdDeviation="10"/>
<feComposite in2="hardAlpha" operator="out"/>
<feColorMatrix type="matrix" values="0 0 0 0 0.0991667 0 0 0 0 0.35 0 0 0 0 0.290815 0 0 0 0.08 0"/>
<feBlend mode="normal" in2="BackgroundImageFix" result="effect1_dropShadow_500_2"/>
<feBlend mode="normal" in="SourceGraphic" in2="effect1_dropShadow_500_2" result="shape"/>
</filter>
</defs>
</svg>
