<svg width="299" height="723" viewBox="0 0 299 723" fill="none" xmlns="http://www.w3.org/2000/svg">
<line opacity="0.1" y1="-0.5" x2="218.322" y2="-0.5" transform="matrix(-0.717804 -0.696245 0.823733 -0.566978 405.652 664.117)" stroke="#005944"/>
<line opacity="0.1" x1="275.233" y1="392.547" x2="206.92" y2="217.527" stroke="#005944"/>
<line opacity="0.1" x1="206.973" y1="217.751" x2="49.6068" y2="71.8962" stroke="#005944"/>
<line opacity="0.1" x1="173.231" y1="527.017" x2="93.1635" y2="410.445" stroke="#005944"/>
<line opacity="0.1" x1="216.922" y1="70.9058" x2="207.893" y2="217.402" stroke="#005944"/>
<line opacity="0.1" x1="216.615" y1="71.3367" x2="18.6886" y2="153.669" stroke="#005944"/>
<line opacity="0.1" x1="216.884" y1="70.6814" x2="319.836" y2="315.837" stroke="#005944"/>
<line opacity="0.1" x1="373.869" y1="489.605" x2="172.825" y2="526.647" stroke="#005944"/>
<line opacity="0.1" x1="274.603" y1="392.945" x2="173.13" y2="526.457" stroke="#005944"/>
<line opacity="0.1" x1="394.096" y1="190.031" x2="274.633" y2="392.896" stroke="#005944"/>
<line opacity="0.1" x1="393.738" y1="190.272" x2="207.458" y2="217.84" stroke="#005944"/>
<line opacity="0.1" x1="207.256" y1="217.841" x2="18.2937" y2="153.6" stroke="#005944"/>
<line opacity="0.1" x1="50.4142" y1="71.7074" x2="18.9221" y2="153.303" stroke="#005944"/>
<line opacity="0.1" x1="207.718" y1="216.968" x2="490.233" y2="467.337" stroke="#005944"/>
<line opacity="0.1" x1="94.2578" y1="409.557" x2="275.61" y2="391.902" stroke="#005944"/>
<line opacity="0.1" x1="274.369" y1="392.17" x2="490.066" y2="467.244" stroke="#005944"/>
<line opacity="0.1" x1="341.871" y1="495.434" x2="93.4154" y2="410.637" stroke="#005944"/>
<circle cx="172.898" cy="525.024" r="5.53505" transform="rotate(-100.44 172.898 525.024)" fill="#BDD3CE"/>
<circle cx="189.446" cy="55.4462" r="5.53505" transform="rotate(-100.44 189.446 55.4462)" fill="#BDD3CE"/>
<circle cx="226.368" cy="454.761" r="3.69003" transform="rotate(-100.44 226.368 454.761)" fill="#00D9A4"/>
<circle cx="49.65" cy="71.9599" r="5.53505" transform="rotate(-100.44 49.65 71.9599)" fill="#00D9A4"/>
<circle cx="274.209" cy="392.669" r="3.69003" transform="rotate(-100.44 274.209 392.669)" fill="#BDD3CE"/>
<circle cx="215.827" cy="71.7337" r="3.69003" transform="rotate(-100.44 215.827 71.7337)" fill="#BDD3CE"/>
<circle cx="18.4544" cy="153.128" r="3.69003" transform="rotate(-100.44 18.4544 153.128)" fill="#BDD3CE"/>
<circle cx="102.052" cy="119.32" r="3.69003" transform="rotate(-100.44 102.052 119.32)" fill="#BDD3CE"/>
<circle cx="94.3099" cy="410.054" r="3.69003" transform="rotate(-100.44 94.3099 410.054)" fill="#BDD3CE"/>
<circle cx="249.079" cy="512.863" r="3.69003" transform="rotate(-100.44 249.079 512.863)" fill="#BDD3CE"/>
<circle cx="274.565" cy="207.245" r="3.69003" transform="rotate(-100.44 274.565 207.245)" fill="#00D9A4"/>
</svg>
