<svg width="100" height="100" viewBox="0 0 100 100" fill="none" xmlns="http://www.w3.org/2000/svg">
<rect x="10.5" y="6.5" width="79" height="79" rx="4.5" stroke="#00D9A4"/>
<mask id="mask0_500_4" style="mask-type:alpha" maskUnits="userSpaceOnUse" x="10" y="6" width="80" height="80">
<rect x="10.5" y="6.5" width="79" height="79" rx="4.5" stroke="#00D9A4"/>
</mask>
<g mask="url(#mask0_500_4)">
<path d="M-4.70286 40.5164C-5.87021 47.836 -5.58441 55.314 -3.86178 62.5232C-2.13915 69.7324 0.98657 76.5317 5.33693 82.533C9.68728 88.5342 15.1771 93.6198 21.4928 97.4994C27.8086 101.379 34.8267 103.977 42.1464 105.144C49.466 106.311 56.9439 106.026 64.1532 104.303C71.3624 102.58 78.1617 99.4546 84.163 95.1042C90.1642 90.7539 95.2498 85.2641 99.1294 78.9483C103.009 72.6325 105.607 65.6145 106.774 58.2948L51.0356 49.4056L-4.70286 40.5164Z" fill="#CCE0DB"/>
</g>
<g filter="url(#filter0_d_500_4)">
<rect x="20" y="16" width="60" height="60" rx="5" fill="#00D9A4"/>
</g>
<path d="M52.4742 36.3281L51.7922 26.8984H48.2094L47.5281 36.3281H52.4742Z" fill="white"/>
<path d="M38.7734 26.8985C38.7126 26.8972 38.6523 26.9107 38.5978 26.9379C38.5434 26.9652 38.4964 27.0053 38.4609 27.0548L31.625 36.3282H46.7453L47.4258 26.8985H38.7734Z" fill="white"/>
<path d="M68.4375 36.3281L62.2031 27.0703C62.1665 27.0171 62.1175 26.9737 62.0603 26.9437C62.0032 26.9138 61.9395 26.8982 61.875 26.8984H52.5781L53.2594 36.3281H68.4375Z" fill="white"/>
<path d="M47.4414 37.5301V42.2879L49.8273 41.116C49.8811 41.0895 49.9401 41.0758 50 41.0758C50.0599 41.0758 50.1189 41.0895 50.1727 41.116L52.5578 42.2879V37.502L52.5297 37.1113H47.4711L47.4414 37.5301Z" fill="white"/>
<path d="M68.75 37.1094H53.3133L53.3391 37.4734V42.9148C53.3389 42.9811 53.322 43.0462 53.2897 43.1041C53.2575 43.162 53.2111 43.2107 53.1548 43.2457C53.0986 43.2807 53.0343 43.3008 52.9682 43.3042C52.902 43.3075 52.8361 43.294 52.7766 43.2648L50 41.9L47.2234 43.2656C47.1701 43.2924 47.1112 43.3063 47.0516 43.3062C46.9785 43.3059 46.9069 43.2857 46.8445 43.2476C46.7882 43.2125 46.7418 43.1635 46.7097 43.1054C46.6776 43.0473 46.6608 42.982 46.6609 42.9156V37.5016L46.6891 37.1109H31.25C31.1464 37.1109 31.047 37.1521 30.9738 37.2253C30.9005 37.2986 30.8594 37.398 30.8594 37.5016V64.7109C30.8594 64.8145 30.9005 64.9139 30.9738 64.9871C31.047 65.0604 31.1464 65.1015 31.25 65.1015H68.75C68.8536 65.1015 68.953 65.0604 69.0262 64.9871C69.0995 64.9139 69.1406 64.8145 69.1406 64.7109V37.5C69.1406 37.3964 69.0995 37.297 69.0262 37.2238C68.953 37.1505 68.8536 37.1094 68.75 37.1094ZM34.5039 54.2476H39.6094C39.713 54.2476 39.8123 54.2888 39.8856 54.3621C39.9588 54.4353 40 54.5347 40 54.6383C40 54.7419 39.9588 54.8412 39.8856 54.9145C39.8123 54.9877 39.713 55.0289 39.6094 55.0289H34.5039C34.4003 55.0289 34.3009 54.9877 34.2277 54.9145C34.1544 54.8412 34.1133 54.7419 34.1133 54.6383C34.1133 54.5347 34.1544 54.4353 34.2277 54.3621C34.3009 54.2888 34.4003 54.2476 34.5039 54.2476ZM43.7641 58.9351H34.5039C34.4003 58.9351 34.3009 58.894 34.2277 58.8207C34.1544 58.7475 34.1133 58.6481 34.1133 58.5445C34.1133 58.4409 34.1544 58.3416 34.2277 58.2683C34.3009 58.195 34.4003 58.1539 34.5039 58.1539H43.7641C43.8677 58.1539 43.967 58.195 44.0403 58.2683C44.1135 58.3416 44.1547 58.4409 44.1547 58.5445C44.1547 58.6481 44.1135 58.7475 44.0403 58.8207C43.967 58.894 43.8677 58.9351 43.7641 58.9351ZM58.1906 57.0601C58.1174 57.1334 58.018 57.1745 57.9145 57.1745C57.8109 57.1745 57.7115 57.1334 57.6383 57.0601L56.8625 56.2844V60.5812C56.8625 60.6848 56.8213 60.7842 56.7481 60.8574C56.6748 60.9307 56.5755 60.9719 56.4719 60.9719C56.3683 60.9719 56.2689 60.9307 56.1957 60.8574C56.1224 60.7842 56.0813 60.6848 56.0813 60.5812V56.2844L55.3055 57.0601C55.2318 57.1313 55.1331 57.1707 55.0307 57.1698C54.9283 57.1689 54.8303 57.1278 54.7579 57.0554C54.6855 56.983 54.6444 56.885 54.6435 56.7826C54.6426 56.6801 54.682 56.5815 54.7531 56.5078L56.1953 55.0625C56.25 55.0079 56.3196 54.9707 56.3954 54.9557C56.4712 54.9407 56.5497 54.9485 56.6211 54.9781C56.6688 54.9974 56.7121 55.0261 56.7484 55.0625L58.1906 56.5047C58.227 56.541 58.2559 56.5841 58.2756 56.6315C58.2952 56.679 58.3054 56.7299 58.3054 56.7812C58.3054 56.8326 58.2952 56.8835 58.2756 56.9309C58.2559 56.9784 58.227 57.0215 58.1906 57.0578V57.0601ZM63.3828 57.0601C63.3096 57.1334 63.2102 57.1745 63.1066 57.1745C63.0031 57.1745 62.9037 57.1334 62.8305 57.0601L62.0547 56.2844V60.5812C62.0547 60.6848 62.0135 60.7842 61.9403 60.8574C61.867 60.9307 61.7677 60.9719 61.6641 60.9719C61.5605 60.9719 61.4611 60.9307 61.3878 60.8574C61.3146 60.7842 61.2734 60.6848 61.2734 60.5812V56.2844L60.4977 57.0601C60.4244 57.1335 60.325 57.1747 60.2214 57.1748C60.1177 57.1749 60.0183 57.1338 59.9449 57.0605C59.8716 56.9873 59.8303 56.8879 59.8303 56.7842C59.8302 56.6806 59.8713 56.5811 59.9445 56.5078L61.3875 55.0625C61.4238 55.0261 61.4671 54.9974 61.5148 54.9781C61.5862 54.9485 61.6647 54.9407 61.7405 54.9557C61.8163 54.9707 61.886 55.0079 61.9406 55.0625L63.3828 56.5047C63.4192 56.541 63.4481 56.5841 63.4677 56.6315C63.4874 56.679 63.4976 56.7299 63.4976 56.7812C63.4976 56.8326 63.4874 56.8835 63.4677 56.9309C63.4481 56.9784 63.4192 57.0215 63.3828 57.0578V57.0601Z" fill="white"/>
<defs>
<filter id="filter0_d_500_4" x="0" y="0" width="100" height="100" filterUnits="userSpaceOnUse" color-interpolation-filters="sRGB">
<feFlood flood-opacity="0" result="BackgroundImageFix"/>
<feColorMatrix in="SourceAlpha" type="matrix" values="0 0 0 0 0 0 0 0 0 0 0 0 0 0 0 0 0 0 127 0" result="hardAlpha"/>
<feOffset dy="4"/>
<feGaussianBlur stdDeviation="10"/>
<feComposite in2="hardAlpha" operator="out"/>
<feColorMatrix type="matrix" values="0 0 0 0 0.0991667 0 0 0 0 0.35 0 0 0 0 0.290815 0 0 0 0.08 0"/>
<feBlend mode="normal" in2="BackgroundImageFix" result="effect1_dropShadow_500_4"/>
<feBlend mode="normal" in="SourceGraphic" in2="effect1_dropShadow_500_4" result="shape"/>
</filter>
</defs>
</svg>
