<svg width="298" height="860" viewBox="0 0 298 860" fill="none" xmlns="http://www.w3.org/2000/svg">
<line opacity="0.1" x1="231.466" y1="753.939" x2="315.395" y2="607.044" stroke="#005944"/>
<line opacity="0.1" x1="231.931" y1="753.689" x2="478.53" y2="769.328" stroke="#005944"/>
<line opacity="0.1" x1="231.401" y1="754.158" x2="249.765" y2="448.22" stroke="#005944"/>
<line opacity="0.1" x1="282.27" y1="241.083" x2="509.032" y2="305.145" stroke="#005944"/>
<line opacity="0.1" x1="108.748" y1="540.688" x2="317.752" y2="251.448" stroke="#005944"/>
<line opacity="0.1" x1="108.879" y1="540.563" x2="335.71" y2="391.606" stroke="#005944"/>
<line opacity="0.1" x1="109.306" y1="540.504" x2="315.976" y2="606.846" stroke="#005944"/>
<line opacity="0.1" x1="315.358" y1="607.513" x2="150.69" y2="204.754" stroke="#005944"/>
<line opacity="0.1" x1="335.626" y1="392.376" x2="150.798" y2="204.914" stroke="#005944"/>
<line opacity="0.1" x1="151.292" y1="204.081" x2="282.273" y2="241.084" stroke="#005944"/>
<line opacity="0.1" x1="383.545" y1="168.115" x2="151.233" y2="205.057" stroke="#005944"/>
<circle cx="250.798" cy="447.927" r="6.38006" transform="rotate(105.775 250.798 447.927)" fill="#BDD3CE"/>
<circle cx="232.951" cy="753.601" r="4.25337" transform="rotate(105.775 232.951 753.601)" fill="#BDD3CE"/>
<circle cx="223.554" cy="383.216" r="4.25337" transform="rotate(105.775 223.554 383.216)" fill="#BDD3CE"/>
<circle cx="267.076" cy="323.025" r="4.25337" transform="rotate(105.775 267.076 323.025)" fill="#00D9A4"/>
<circle cx="241.21" cy="583.56" r="4.25337" transform="rotate(105.775 241.21 583.56)" fill="#00D9A4"/>
<circle cx="154.498" cy="206.804" r="6.38006" transform="rotate(105.775 154.498 206.804)" fill="#BDD3CE"/>
<circle cx="112.077" cy="540.009" r="4.25337" transform="rotate(105.775 112.077 540.009)" fill="#BDD3CE"/>
</svg>
