<svg width="85" height="85" viewBox="0 0 85 85" fill="none" xmlns="http://www.w3.org/2000/svg">
<rect x="10.5" y="6.5" width="64" height="64" rx="4.5" stroke="#00D9A4"/>
<mask id="mask0_516_6" style="mask-type:alpha" maskUnits="userSpaceOnUse" x="10" y="6" width="65" height="65">
<rect x="10.5" y="6.5" width="64" height="64" rx="4.5" stroke="#00D9A4"/>
</mask>
<g mask="url(#mask0_516_6)">
<path d="M-1.77823 34.2871C-2.7267 40.2343 -2.49449 46.3102 -1.09485 52.1676C0.304788 58.0251 2.84444 63.5496 6.37909 68.4256C9.91376 73.3016 14.3742 77.4336 19.5058 80.5858C24.6373 83.738 30.3395 85.8486 36.2868 86.7971C42.234 87.7455 48.3098 87.5133 54.1673 86.1137C60.0248 84.714 65.5492 82.1744 70.4252 78.6397C75.3012 75.1051 79.4333 70.6446 82.5855 65.513C85.7377 60.3815 87.8482 54.6793 88.7967 48.7321L43.5092 41.5096L-1.77823 34.2871Z" fill="#CCE0DB"/>
</g>
<g filter="url(#filter0_d_516_6)">
<rect x="20" y="16" width="45" height="45" rx="5" fill="#00D9A4"/>
</g>
<g clip-path="url(#clip0_516_6)">
<path d="M48.3262 42.2879L47.8457 42.1082C47.4902 41.3387 46.8047 40.6649 45.502 40.5457C45.4502 40.5411 45.4023 40.516 45.369 40.4761C45.3357 40.4362 45.3196 40.3846 45.3242 40.3328C45.3289 40.281 45.3539 40.2332 45.3939 40.1999C45.4338 40.1665 45.4853 40.1504 45.5371 40.1551C47.2188 40.3113 47.9863 41.2977 48.3262 42.2879Z" fill="white"/>
<path d="M39.6777 40.3382C39.6793 40.3639 39.6758 40.3896 39.6675 40.4139C39.6591 40.4382 39.646 40.4606 39.6289 40.4799C39.6119 40.4991 39.5912 40.5148 39.5681 40.526C39.5449 40.5372 39.5198 40.5438 39.4941 40.5453C39.4785 40.5453 37.9473 40.6449 36.8125 41.6253C36.5558 41.8581 36.3508 42.1422 36.2109 42.4593L35.707 42.6546C35.8752 42.152 36.1674 41.6999 36.5566 41.3402C37.7949 40.2699 39.4043 40.1683 39.4727 40.1683C39.522 40.1654 39.5706 40.1814 39.6087 40.2129C39.6467 40.2444 39.6714 40.2892 39.6777 40.3382Z" fill="white"/>
<path d="M42.2246 42.0234L39.8789 40.123L39.0762 41.2812L40.6758 43.9453L42.2246 42.0234Z" fill="white"/>
<path d="M35.9277 48.9609C36.3333 48.9609 36.6621 48.6321 36.6621 48.2266C36.6621 47.821 36.3333 47.4922 35.9277 47.4922C35.5222 47.4922 35.1934 47.821 35.1934 48.2266C35.1934 48.6321 35.5222 48.9609 35.9277 48.9609Z" fill="white"/>
<path d="M44.1113 39.2559C44.634 39.0011 45.1111 38.6619 45.5234 38.252C46.127 37.6133 46.7539 35.6504 46.9883 33.6738L46.4707 32.2285C46.2925 31.7426 45.957 31.3301 45.5176 31.0566C44.9868 30.7254 44.5597 30.2517 44.2852 29.6895C43.8066 30.1563 42.9043 30.6328 41.2402 30.4941C38.4297 30.252 38.0078 33.0313 37.9746 33.3145C38.1699 35.3906 38.8281 37.5664 39.4785 38.252C39.8898 38.6623 40.3663 39.0016 40.8887 39.2559C41.3875 39.5109 41.9397 39.644 42.5 39.644C43.0603 39.644 43.6125 39.5109 44.1113 39.2559Z" fill="white"/>
<path d="M44.5645 29.3496C44.8012 29.9201 45.2111 30.4017 45.7363 30.7266C46.249 31.0455 46.6402 31.5268 46.8477 32.0938L47.1426 32.918C47.3828 31.5293 47.7734 28.418 46.4785 27.5078C45.5664 26.8633 45.1445 27.1856 44.9707 27.377C45.0932 28.0623 44.9478 28.7685 44.5645 29.3496Z" fill="white"/>
<path d="M42.7754 42.0234L44.3242 43.9453L45.9238 41.2812L45.1211 40.123L42.7754 42.0234Z" fill="white"/>
<path d="M44.2891 39.6035C43.7354 39.8872 43.1221 40.0351 42.5 40.0351C41.8779 40.0351 41.2646 39.8872 40.7109 39.6035C40.5547 39.5254 40.377 39.4258 40.1895 39.3086L40.0605 39.7676L42.5 41.7441L44.9395 39.7676L44.8105 39.3086C44.623 39.4258 44.4531 39.5254 44.2891 39.6035Z" fill="white"/>
<path d="M41.2734 30.1016C42.5645 30.2109 43.543 29.9395 44.0996 29.3203C44.3224 29.0525 44.4809 28.7372 44.5628 28.3986C44.6447 28.0601 44.648 27.7072 44.5723 27.3672C44.3477 26.1953 43.752 26.123 43.7266 26.1211H43.709C43.2528 26.0427 42.791 26.0022 42.3281 26C39.8652 26 38.4219 27.2305 37.8965 28.4336C37.4707 29.4102 37.6523 31.2754 37.8164 32.3828C38.1836 31.377 39.0977 29.916 41.2734 30.1016Z" fill="white"/>
<path d="M47.459 50.1369C47.5021 50.1291 47.5421 50.1092 47.5743 50.0795C47.6065 50.0497 47.6296 50.0114 47.6408 49.969C47.652 49.9266 47.6509 49.8819 47.6375 49.8402C47.6242 49.7984 47.5993 49.7613 47.5656 49.7332C47.532 49.7051 47.491 49.6872 47.4475 49.6816C47.4041 49.676 47.3599 49.6829 47.3202 49.7015C47.2805 49.7201 47.2469 49.7496 47.2234 49.7866C47.1999 49.8236 47.1875 49.8665 47.1875 49.9104C47.1949 49.9758 47.2272 50.0359 47.2778 50.0781C47.3284 50.1203 47.3933 50.1414 47.459 50.1369Z" fill="white"/>
<path d="M51.9336 44.8945C51.8896 44.4951 51.735 44.1159 51.4873 43.7995C51.2395 43.4831 50.9085 43.2421 50.5313 43.1035L48.3262 42.2871C48.5127 42.8493 48.6018 43.4391 48.5898 44.0312C49.127 44.0645 50.4961 44.2754 50.8613 45.5508C51.082 46.332 51.0332 47.5566 50.7148 49.2148C50.6762 49.4165 50.5828 49.6036 50.4451 49.7559C50.3073 49.9081 50.1304 50.0196 49.9336 50.0781C49.8897 50.2114 49.804 50.327 49.6894 50.4079C49.5748 50.4887 49.4371 50.5306 49.2969 50.5273C49.213 50.5321 49.1291 50.5196 49.0502 50.4908C48.9714 50.462 48.8992 50.4173 48.8382 50.3597C48.7772 50.302 48.7286 50.2324 48.6953 50.1553C48.6621 50.0782 48.645 49.9951 48.645 49.9111C48.645 49.8272 48.6621 49.7441 48.6953 49.6669C48.7286 49.5898 48.7772 49.5203 48.8382 49.4626C48.8992 49.4049 48.9714 49.3603 49.0502 49.3315C49.1291 49.3026 49.213 49.2902 49.2969 49.2949C49.4244 49.2926 49.55 49.3269 49.6586 49.3937C49.7673 49.4605 49.8546 49.557 49.9102 49.6719C50.0186 49.6243 50.1138 49.5511 50.1876 49.4585C50.2614 49.366 50.3117 49.2569 50.334 49.1406C50.7246 47.1504 50.6289 46.1484 50.4883 45.6582C50.1426 44.4492 48.5742 44.416 48.3906 44.416H48.373C48.3438 44.416 46.6152 44.3809 46.2461 45.6582C46.1055 46.1484 46.0176 47.1504 46.3984 49.1406C46.422 49.2606 46.4751 49.3729 46.5528 49.4673C46.6305 49.5618 46.7305 49.6354 46.8437 49.6816C46.8976 49.5636 46.9846 49.4639 47.0942 49.3945C47.2038 49.3251 47.3312 49.2892 47.4609 49.291C47.5448 49.2863 47.6287 49.2987 47.7076 49.3276C47.7864 49.3564 47.8586 49.401 47.9196 49.4587C47.9806 49.5164 48.0292 49.5859 48.0625 49.663C48.0957 49.7402 48.1128 49.8233 48.1128 49.9072C48.1128 49.9912 48.0957 50.0743 48.0625 50.1514C48.0292 50.2285 47.9806 50.2981 47.9196 50.3557C47.8586 50.4134 47.7864 50.4581 47.7076 50.4869C47.6287 50.5157 47.5448 50.5282 47.4609 50.5234C47.3218 50.5263 47.1854 50.4852 47.071 50.406C46.9567 50.3267 46.8703 50.2133 46.8242 50.082C46.6223 50.0267 46.4397 49.9163 46.2969 49.7631C46.1541 49.61 46.0567 49.4202 46.0156 49.2148C45.6973 47.5566 45.6484 46.3242 45.8691 45.5508C46.248 44.2305 47.6973 44.0508 48.2012 44.0293C48.2248 43.3706 48.1041 42.7146 47.8477 42.1074L46.2422 41.5215L44.5156 44.3867C44.4993 44.4136 44.4768 44.4362 44.45 44.4525C44.4231 44.4688 44.3927 44.4784 44.3613 44.4805H44.3477C44.3185 44.4806 44.2896 44.4741 44.2633 44.4616C44.2369 44.4491 44.2137 44.4309 44.1953 44.4082L43.8672 43.9961L43.373 45.0625L44.623 51H52.7324L51.9336 44.8945Z" fill="white"/>
<path d="M49.293 49.6845C49.2502 49.693 49.2107 49.7135 49.179 49.7435C49.1474 49.7736 49.125 49.812 49.1144 49.8544C49.1037 49.8967 49.1053 49.9412 49.119 49.9826C49.1326 50.0241 49.1578 50.0608 49.1915 50.0885C49.2252 50.1162 49.266 50.1338 49.3093 50.1392C49.3526 50.1446 49.3966 50.1376 49.4361 50.119C49.4755 50.1004 49.5089 50.071 49.5324 50.0342C49.5558 49.9974 49.5683 49.9547 49.5684 49.911C49.561 49.8449 49.5281 49.7842 49.4766 49.7419C49.4252 49.6996 49.3593 49.679 49.293 49.6845Z" fill="white"/>
<path d="M41.1328 44L40.8047 44.4082C40.7863 44.4309 40.7631 44.4491 40.7367 44.4616C40.7104 44.4741 40.6815 44.4806 40.6523 44.4805H40.6387C40.6073 44.4784 40.5769 44.4688 40.55 44.4525C40.5232 44.4362 40.5007 44.4136 40.4844 44.3867L38.7598 41.5137L36.2207 42.459C35.6582 43.6465 35.5879 45.4922 35.8164 47.1094C35.8567 47.1064 35.8972 47.1064 35.9375 47.1094C36.2135 47.1094 36.4798 47.2109 36.6859 47.3945C36.8919 47.5781 37.0233 47.831 37.055 48.1052C37.0867 48.3794 37.0165 48.6556 36.8578 48.8814C36.699 49.1072 36.4629 49.2667 36.1942 49.3297C35.9254 49.3927 35.643 49.3547 35.4004 49.2229C35.1579 49.0912 34.9723 48.8749 34.8789 48.6152C34.7854 48.3555 34.7907 48.0706 34.8937 47.8145C34.9967 47.5585 35.1903 47.3492 35.4375 47.2266C35.2266 45.7715 35.2266 43.9727 35.7168 42.6523L34.4805 43.1113C34.1033 43.2496 33.7721 43.4903 33.5241 43.8063C33.276 44.1223 33.1209 44.5012 33.0762 44.9004L32.2676 51H40.5098L41.6309 45.1035L41.1328 44Z" fill="white"/>
<path d="M42.9902 44.957L43.5898 43.6563L42.5 42.3066L41.4082 43.6582L42.0137 44.998C42.0302 45.0348 42.035 45.0757 42.0273 45.1152L40.9082 51H44.2285L42.9766 45.0801C42.9677 45.0387 42.9725 44.9955 42.9902 44.957Z" fill="white"/>
</g>
<defs>
<filter id="filter0_d_516_6" x="0" y="0" width="85" height="85" filterUnits="userSpaceOnUse" color-interpolation-filters="sRGB">
<feFlood flood-opacity="0" result="BackgroundImageFix"/>
<feColorMatrix in="SourceAlpha" type="matrix" values="0 0 0 0 0 0 0 0 0 0 0 0 0 0 0 0 0 0 127 0" result="hardAlpha"/>
<feOffset dy="4"/>
<feGaussianBlur stdDeviation="10"/>
<feComposite in2="hardAlpha" operator="out"/>
<feColorMatrix type="matrix" values="0 0 0 0 0.0991667 0 0 0 0 0.35 0 0 0 0 0.290815 0 0 0 0.08 0"/>
<feBlend mode="normal" in2="BackgroundImageFix" result="effect1_dropShadow_516_6"/>
<feBlend mode="normal" in="SourceGraphic" in2="effect1_dropShadow_516_6" result="shape"/>
</filter>
<clipPath id="clip0_516_6">
<rect width="25" height="25" fill="white" transform="translate(30 26)"/>
</clipPath>
</defs>
</svg>
