<svg width="481" height="791" viewBox="0 0 481 791" fill="none" xmlns="http://www.w3.org/2000/svg">
<line opacity="0.1" x1="483.736" y1="407.307" x2="278.994" y2="336.738" stroke="#005944"/>
<line opacity="0.1" x1="279.196" y1="336.856" x2="33.6331" y2="366.289" stroke="#005944"/>
<line opacity="0.1" x1="525.756" y1="597.253" x2="363.595" y2="580.622" stroke="#005944"/>
<line opacity="0.1" x1="157.557" y1="218.681" x2="279.531" y2="335.919" stroke="#005944"/>
<line opacity="0.1" x1="157.687" y1="219.193" x2="82.345" y2="454.521" stroke="#005944"/>
<line opacity="0.1" x1="157.362" y1="218.564" x2="449.57" y2="311.029" stroke="#005944"/>
<line opacity="0.1" x1="394.307" y1="151.71" x2="623.801" y2="424.977" stroke="#005944"/>
<line opacity="0.1" x1="394.396" y1="151.867" x2="483.497" y2="408.19" stroke="#005944"/>
<line opacity="0.1" x1="394.349" y1="152.296" x2="279.58" y2="336.529" stroke="#005944"/>
<line opacity="0.1" x1="279.455" y1="336.685" x2="82.0229" y2="454.774" stroke="#005944"/>
<line opacity="0.1" x1="34.0114" y1="365.552" x2="82.2033" y2="454.102" stroke="#005944"/>
<line opacity="0.1" x1="279.084" y1="335.769" x2="709.851" y2="274.361" stroke="#005944"/>
<line opacity="0.1" x1="363.686" y1="579.115" x2="483.487" y2="406.607" stroke="#005944"/>
<line opacity="0.1" x1="623.788" y1="425.531" x2="363.905" y2="580.553" stroke="#005944"/>
<circle cx="279.338" cy="336.861" r="6.38006" transform="rotate(-150.101 279.338 336.861)" fill="#BDD3CE"/>
<circle cx="449.6" cy="312.101" r="6.38006" transform="rotate(-150.101 449.6 312.101)" fill="#BDD3CE"/>
<circle cx="33.7298" cy="366.375" r="6.38006" transform="rotate(-150.101 33.7298 366.375)" fill="#00D9A4"/>
<circle cx="483.052" cy="408.368" r="4.25337" transform="rotate(-150.101 483.052 408.368)" fill="#BDD3CE"/>
<circle cx="157.521" cy="220.202" r="4.25337" transform="rotate(-150.101 157.521 220.202)" fill="#BDD3CE"/>
<circle cx="81.7668" cy="454.345" r="4.25337" transform="rotate(-150.101 81.7668 454.345)" fill="#BDD3CE"/>
<circle cx="114.439" cy="355.671" r="4.25337" transform="rotate(-150.101 114.439 355.671)" fill="#BDD3CE"/>
<circle cx="364.099" cy="579.4" r="4.25337" transform="rotate(-150.101 364.099 579.4)" fill="#BDD3CE"/>
<circle cx="320.407" cy="269.706" r="4.25337" transform="rotate(-150.101 320.407 269.706)" fill="#00D9A4"/>
<circle cx="394.154" cy="155.105" r="4.25337" transform="rotate(-150.101 394.154 155.105)" fill="#BDD3CE"/>
</svg>
