<svg width="100" height="100" viewBox="0 0 100 100" fill="none" xmlns="http://www.w3.org/2000/svg">
<rect x="10.5" y="6.5" width="79" height="79" rx="4.5" stroke="#00D9A4"/>
<mask id="mask0_500_3" style="mask-type:alpha" maskUnits="userSpaceOnUse" x="10" y="6" width="80" height="80">
<rect x="10.5" y="6.5" width="79" height="79" rx="4.5" stroke="#00D9A4"/>
</mask>
<g mask="url(#mask0_500_3)">
<path d="M-4.70286 40.5164C-5.87021 47.836 -5.58441 55.314 -3.86178 62.5232C-2.13915 69.7324 0.98657 76.5317 5.33693 82.533C9.68728 88.5342 15.1771 93.6198 21.4928 97.4994C27.8086 101.379 34.8267 103.977 42.1464 105.144C49.466 106.311 56.9439 106.026 64.1532 104.303C71.3624 102.58 78.1617 99.4546 84.163 95.1042C90.1642 90.7539 95.2498 85.2641 99.1294 78.9483C103.009 72.6325 105.607 65.6145 106.774 58.2948L51.0356 49.4056L-4.70286 40.5164Z" fill="#CCE0DB"/>
</g>
<g filter="url(#filter0_d_500_3)">
<rect x="20" y="16" width="60" height="60" rx="5" fill="#00D9A4"/>
</g>
<path d="M66.2917 39.6797H60.5665V47.0796C60.5655 48.0469 60.1808 48.9743 59.4969 49.6583C58.813 50.3423 57.8856 50.7271 56.9183 50.7282H44.5577V52.5951C44.5578 53.2887 44.8332 53.954 45.3234 54.4448C45.8137 54.9356 46.4786 55.2118 47.1723 55.2127H61.0275L64.5681 60.1256C64.5958 60.1633 64.6321 60.1939 64.6739 60.215C64.7157 60.236 64.7619 60.2468 64.8087 60.2466C64.8396 60.2468 64.8704 60.2427 64.9002 60.2346C64.9596 60.2147 65.0112 60.1766 65.0478 60.1258C65.0843 60.075 65.104 60.0139 65.104 59.9513V55.2127H66.2944C66.9876 55.2111 67.6519 54.9346 68.1415 54.4439C68.6311 53.9531 68.9062 53.2883 68.9062 52.5951V42.297C68.9056 41.6035 68.63 40.9386 68.1399 40.448C67.6498 39.9573 66.9852 39.6811 66.2917 39.6797Z" fill="white"/>
<path d="M56.9176 31.7539H34.1531C33.342 31.7547 32.5643 32.0773 31.9907 32.6509C31.4172 33.2244 31.0946 34.0021 31.0938 34.8133V47.0786C31.0946 47.8898 31.4172 48.6675 31.9907 49.241C32.5643 49.8146 33.342 50.1372 34.1531 50.138H35.6268V55.8367C35.6271 55.8991 35.6471 55.9598 35.6839 56.0101C35.7208 56.0604 35.7726 56.0978 35.832 56.1169C35.8914 56.1359 35.9553 56.1357 36.0146 56.1163C36.0739 56.0968 36.1255 56.0591 36.162 56.0086L40.3901 50.137H56.9176C57.7288 50.1361 58.5065 49.8136 59.08 49.24C59.6536 48.6664 59.9762 47.8887 59.977 47.0776V34.8133C59.9762 34.0021 59.6536 33.2244 59.08 32.6509C58.5065 32.0773 57.7288 31.7547 56.9176 31.7539ZM39.1719 42.3222C38.8576 42.3222 38.5503 42.229 38.289 42.0543C38.0277 41.8797 37.824 41.6315 37.7037 41.3411C37.5834 41.0508 37.5519 40.7312 37.6133 40.423C37.6746 40.1147 37.8259 39.8315 38.0482 39.6093C38.2704 39.387 38.5536 39.2357 38.8618 39.1744C39.1701 39.1131 39.4896 39.1445 39.78 39.2648C40.0704 39.3851 40.3186 39.5888 40.4932 39.8501C40.6678 40.1114 40.761 40.4187 40.761 40.733C40.7605 41.1543 40.5929 41.5582 40.295 41.8561C39.9971 42.154 39.5932 42.3216 39.1719 42.3222ZM45.5367 42.3222C45.2224 42.3222 44.9152 42.229 44.6539 42.0543C44.3925 41.8797 44.1888 41.6315 44.0686 41.3411C43.9483 41.0508 43.9168 40.7312 43.9781 40.423C44.0394 40.1147 44.1908 39.8315 44.413 39.6093C44.6353 39.387 44.9185 39.2357 45.2267 39.1744C45.535 39.1131 45.8545 39.1445 46.1449 39.2648C46.4353 39.3851 46.6835 39.5888 46.8581 39.8501C47.0327 40.1114 47.1259 40.4187 47.1259 40.733C47.1255 41.1546 46.9577 41.5587 46.6595 41.8567C46.3612 42.1547 45.9569 42.3221 45.5354 42.3222H45.5367ZM51.9016 42.3222C51.5873 42.3222 51.2801 42.229 51.0187 42.0543C50.7574 41.8797 50.5537 41.6315 50.4334 41.3411C50.3132 41.0508 50.2817 40.7312 50.343 40.423C50.4043 40.1147 50.5557 39.8315 50.7779 39.6093C51.0002 39.387 51.2833 39.2357 51.5916 39.1744C51.8999 39.1131 52.2194 39.1445 52.5098 39.2648C52.8001 39.3851 53.0483 39.5888 53.223 39.8501C53.3976 40.1114 53.4908 40.4187 53.4908 40.733C53.4903 41.1546 53.3226 41.5587 53.0243 41.8567C52.7261 42.1547 52.3218 42.3221 51.9002 42.3222H51.9016Z" fill="white"/>
<defs>
<filter id="filter0_d_500_3" x="0" y="0" width="100" height="100" filterUnits="userSpaceOnUse" color-interpolation-filters="sRGB">
<feFlood flood-opacity="0" result="BackgroundImageFix"/>
<feColorMatrix in="SourceAlpha" type="matrix" values="0 0 0 0 0 0 0 0 0 0 0 0 0 0 0 0 0 0 127 0" result="hardAlpha"/>
<feOffset dy="4"/>
<feGaussianBlur stdDeviation="10"/>
<feComposite in2="hardAlpha" operator="out"/>
<feColorMatrix type="matrix" values="0 0 0 0 0.0991667 0 0 0 0 0.35 0 0 0 0 0.290815 0 0 0 0.08 0"/>
<feBlend mode="normal" in2="BackgroundImageFix" result="effect1_dropShadow_500_3"/>
<feBlend mode="normal" in="SourceGraphic" in2="effect1_dropShadow_500_3" result="shape"/>
</filter>
</defs>
</svg>
