<svg width="100" height="100" viewBox="0 0 100 100" fill="none" xmlns="http://www.w3.org/2000/svg">
<rect x="10.5" y="6.5" width="79" height="79" rx="4.5" stroke="#00D9A4"/>
<mask id="mask0_500_6" style="mask-type:alpha" maskUnits="userSpaceOnUse" x="10" y="6" width="80" height="80">
<rect x="10.5" y="6.5" width="79" height="79" rx="4.5" stroke="#00D9A4"/>
</mask>
<g mask="url(#mask0_500_6)">
<path d="M-4.70286 40.5164C-5.87021 47.836 -5.58441 55.314 -3.86178 62.5232C-2.13915 69.7324 0.98657 76.5317 5.33693 82.533C9.68728 88.5342 15.1771 93.6198 21.4928 97.4994C27.8086 101.379 34.8267 103.977 42.1464 105.144C49.466 106.311 56.9439 106.026 64.1532 104.303C71.3624 102.58 78.1617 99.4546 84.163 95.1042C90.1642 90.7539 95.2498 85.2641 99.1294 78.9483C103.009 72.6325 105.607 65.6145 106.774 58.2948L51.0356 49.4056L-4.70286 40.5164Z" fill="#CCE0DB"/>
</g>
<g filter="url(#filter0_d_500_6)">
<rect x="20" y="16" width="60" height="60" rx="5" fill="#00D9A4"/>
</g>
<path d="M47.6716 57.0111C47.6826 56.8225 47.6374 56.6349 47.5418 56.4719C47.4462 56.309 47.3044 56.178 47.1343 56.0956C46.9643 56.0132 46.7736 55.9831 46.5865 56.009C46.3993 56.035 46.2241 56.1158 46.0828 56.2414L44.7916 57.3914C44.6971 57.4744 44.6199 57.5754 44.5645 57.6884C44.5091 57.8014 44.4766 57.9242 44.4688 58.0498C44.461 58.1754 44.4782 58.3013 44.5193 58.4203C44.5603 58.5393 44.6245 58.6489 44.7081 58.743C44.7917 58.8371 44.8931 58.9137 45.0064 58.9684C45.1197 59.0232 45.2427 59.055 45.3684 59.0621C45.494 59.0691 45.6198 59.0512 45.7386 59.0095C45.8573 58.9677 45.9666 58.9029 46.0602 58.8188L47.354 57.6688C47.4477 57.5856 47.524 57.4846 47.5785 57.3717C47.6331 57.2589 47.6647 57.1363 47.6716 57.0111Z" fill="white"/>
<path d="M43.9909 52.5733C44.005 52.3275 43.9459 52.0831 43.8212 51.8708C43.6965 51.6586 43.5117 51.488 43.2902 51.3806C43.0686 51.2733 42.8202 51.2339 42.5764 51.2675C42.3325 51.3012 42.104 51.4063 41.9198 51.5696L40.3328 52.9837C40.0862 53.2033 39.9368 53.5118 39.9174 53.8414C39.8981 54.1711 40.0104 54.4949 40.2297 54.7418C40.4495 54.9882 40.7581 55.1375 41.0878 55.1568C41.4174 55.1761 41.7413 55.064 41.9885 54.8449L43.5769 53.4311C43.6993 53.3227 43.7989 53.191 43.8699 53.0438C43.941 52.8965 43.9821 52.7366 43.9909 52.5733Z" fill="white"/>
<path d="M46.1687 54.8398C46.1784 54.6768 46.1557 54.5135 46.102 54.3593C46.0483 54.2051 45.9646 54.0631 45.8557 53.9414C45.7474 53.8188 45.6158 53.719 45.4686 53.6477C45.3214 53.5764 45.1615 53.535 44.9982 53.526C44.9731 53.526 44.9483 53.5234 44.9235 53.5234C44.6185 53.5228 44.324 53.6351 44.0969 53.8386L42.5077 55.252C42.2722 55.4742 42.1324 55.7794 42.1181 56.1029C42.1038 56.4264 42.2161 56.7428 42.4311 56.9849C42.6461 57.227 42.947 57.3758 43.27 57.3998C43.5929 57.4237 43.9124 57.321 44.1609 57.1133L45.75 55.6998C45.8734 55.5914 45.9739 55.4596 46.0458 55.3119C46.1177 55.1643 46.1594 55.0038 46.1687 54.8398Z" fill="white"/>
<path d="M42.7406 36.3584C42.7402 36.2825 42.7248 36.2075 42.6953 36.1376C42.6657 36.0677 42.6226 36.0044 42.5685 35.9512L38.8842 32.3183C38.7749 32.211 38.6275 32.1513 38.4742 32.1524C38.321 32.1534 38.1744 32.2152 38.0666 32.3241L30.4008 40.0963C30.2932 40.2054 30.2334 40.3528 30.2344 40.506C30.2354 40.6592 30.2972 40.8058 30.4062 40.9135L34.0894 44.5461C34.1974 44.6532 34.3434 44.7131 34.4955 44.7128H34.4995C34.5753 44.7123 34.6502 44.6969 34.7201 44.6674C34.7899 44.6378 34.8532 44.5948 34.9063 44.5407L42.5717 36.7685C42.6257 36.7148 42.6685 36.6509 42.6975 36.5804C42.7265 36.51 42.7412 36.4346 42.7406 36.3584Z" fill="white"/>
<path d="M41.8134 50.3059C41.8276 50.06 41.7686 49.8155 41.6439 49.6032C41.5192 49.3909 41.3344 49.2203 41.1128 49.1129C40.8912 49.0056 40.6427 48.9663 40.3988 49C40.1549 49.0338 39.9265 49.139 39.7423 49.3025L38.1539 50.7159C38.0272 50.8233 37.9232 50.9549 37.848 51.103C37.7729 51.2512 37.7282 51.4129 37.7165 51.5785C37.7048 51.7442 37.7264 51.9106 37.78 52.0678C37.8336 52.225 37.9181 52.37 38.0285 52.494C38.1389 52.6181 38.2731 52.7188 38.423 52.7903C38.573 52.8617 38.7357 52.9025 38.9016 52.9101C39.0676 52.9177 39.2334 52.892 39.3892 52.8346C39.5451 52.7771 39.6879 52.6891 39.8092 52.5757L41.398 51.1622C41.5204 51.054 41.6201 50.9226 41.6914 50.7756C41.7627 50.6286 41.8042 50.469 41.8134 50.3059Z" fill="white"/>
<path d="M62.9767 33.2578C62.8829 33.1366 62.7449 33.0576 62.5929 33.038C62.4409 33.0184 62.2874 33.0598 62.1659 33.1532L58.069 36.3136C57.9496 36.4051 57.8709 36.5398 57.8496 36.6887C57.8284 36.8377 57.8664 36.989 57.9555 37.1103L57.9605 37.1182L57.9645 37.1243L64.6334 45.7669C64.727 45.8882 64.865 45.9673 65.0169 45.9869C65.1689 46.0065 65.3224 45.965 65.4438 45.8715L69.5406 42.7115C69.6617 42.6176 69.7406 42.4794 69.7601 42.3274C69.7796 42.1754 69.738 42.0218 69.6445 41.9004L62.9767 33.2578Z" fill="white"/>
<path d="M59.4063 49.8621L52.5102 43.4678L49.5759 43.7161L49.0056 44.4309C48.41 45.2472 47.531 45.8117 46.5408 46.0137C45.5507 46.2156 44.5208 46.0405 43.6531 45.5227L43.3365 45.3311C43.3007 45.3093 43.2698 45.2805 43.2456 45.2465C43.2213 45.2124 43.2042 45.1738 43.1952 45.1329C43.1863 45.092 43.1857 45.0498 43.1936 45.0087C43.2014 44.9676 43.2175 44.9285 43.2409 44.8938L46.7987 39.6394C46.8361 39.5837 46.8908 39.5418 46.9543 39.52L47.8998 39.1966L42.8057 37.4102L36.1407 44.1664C36.762 44.9946 37.2014 45.9447 37.4301 46.9544C37.6474 47.8652 38.0621 48.7171 38.6448 49.4499L39.3319 48.839C39.6287 48.5743 40.0024 48.4115 40.3983 48.3745C40.7942 48.3376 41.1916 48.4283 41.5322 48.6335C41.8729 48.8387 42.1388 49.1476 42.2912 49.5149C42.4436 49.8822 42.4744 50.2886 42.3791 50.6747C42.6982 50.6097 43.0288 50.6296 43.3378 50.7323C43.6468 50.8351 43.9234 51.0173 44.14 51.2605C44.3036 51.443 44.4294 51.6562 44.51 51.8878C44.5905 52.1193 44.6243 52.3645 44.6094 52.6092C44.6023 52.722 44.5852 52.834 44.5583 52.9438C44.7152 52.9116 44.8756 52.8995 45.0356 52.9079C45.5284 52.9373 45.9894 53.161 46.3174 53.53C46.6455 53.8989 46.8138 54.3829 46.7854 54.8758C46.775 55.0513 46.7399 55.2244 46.6812 55.3901C47.0025 55.3815 47.3188 55.472 47.587 55.6493C47.8552 55.8266 48.0624 56.082 48.1806 56.381C48.2987 56.68 48.3221 57.0081 48.2475 57.3208C48.1729 57.6335 48.004 57.9157 47.7636 58.1292L47.2109 58.6208L47.9156 59.3719C48.0672 59.5227 48.247 59.6421 48.4447 59.7234C48.6424 59.8047 48.8542 59.8462 49.068 59.8456C49.2818 59.845 49.4934 59.8023 49.6907 59.7199C49.8879 59.6375 50.0671 59.5171 50.2178 59.3655C50.4673 59.1152 50.629 58.7908 50.6785 58.4409C50.728 58.091 50.6627 57.7345 50.4923 57.4248L49.4501 56.3827C49.3922 56.3247 49.3597 56.2462 49.3597 56.1643C49.3597 56.0824 49.3922 56.0039 49.4501 55.946C49.508 55.8881 49.5866 55.8556 49.6685 55.8556C49.7503 55.8556 49.8289 55.8881 49.8868 55.946L50.9617 57.0209L50.9653 57.0234L51.4817 57.5395C51.784 57.8421 52.193 58.014 52.6208 58.0182C53.0485 58.0224 53.4608 57.8586 53.769 57.5619C54.0772 57.2653 54.2566 56.8595 54.2687 56.4319C54.2809 56.0043 54.1247 55.589 53.8338 55.2754L52.5591 54.0025C52.503 53.9442 52.472 53.8662 52.4727 53.7852C52.4735 53.7043 52.506 53.6269 52.5632 53.5697C52.6205 53.5124 52.6979 53.4799 52.7788 53.4792C52.8598 53.4784 52.9378 53.5094 52.9961 53.5655L54.2737 54.8434L54.462 55.0314C54.7635 55.339 55.1743 55.5149 55.6049 55.521C56.0356 55.527 56.4512 55.3626 56.7612 55.0637C57.0712 54.7647 57.2505 54.3554 57.2601 53.9248C57.2697 53.4942 57.1087 53.0773 56.8123 52.7648L55.4625 51.415C55.4338 51.3863 55.4111 51.3523 55.3956 51.3148C55.3801 51.2773 55.3721 51.2371 55.3721 51.1966C55.3721 51.156 55.3801 51.1158 55.3957 51.0784C55.4112 51.0409 55.434 51.0069 55.4627 50.9782C55.4914 50.9495 55.5254 50.9268 55.5629 50.9113C55.6004 50.8958 55.6406 50.8878 55.6811 50.8878C55.7217 50.8878 55.7618 50.8958 55.7993 50.9114C55.8368 50.9269 55.8708 50.9497 55.8995 50.9784L57.2565 52.3357L57.4437 52.523C57.7511 52.8286 58.1669 53.0001 58.6004 53.0001C59.0338 53.0001 59.4496 52.8286 59.757 52.523C60.0341 52.2273 60.1875 51.8368 60.1858 51.4315C60.1738 50.9091 59.9595 50.4116 59.5881 50.044L59.4063 49.8621Z" fill="white"/>
<path d="M52.1857 38.3778L47.2508 40.0701L43.9344 44.9716L43.9704 44.9942C44.7074 45.4332 45.5819 45.5807 46.4222 45.4078C47.2624 45.2349 48.0076 44.7541 48.5114 44.0598L49.1745 43.2283C49.2007 43.1954 49.2333 43.1683 49.2704 43.1486C49.3075 43.1288 49.3482 43.1169 49.3901 43.1136L52.5925 42.8426C52.6353 42.8387 52.6785 42.8439 52.7191 42.8579C52.7597 42.8719 52.797 42.8944 52.8283 42.9239L59.6693 49.2643C61.2754 48.3794 62.7009 47.2007 63.8719 45.7895L57.5569 37.6055L52.1857 38.3778Z" fill="white"/>
<defs>
<filter id="filter0_d_500_6" x="0" y="0" width="100" height="100" filterUnits="userSpaceOnUse" color-interpolation-filters="sRGB">
<feFlood flood-opacity="0" result="BackgroundImageFix"/>
<feColorMatrix in="SourceAlpha" type="matrix" values="0 0 0 0 0 0 0 0 0 0 0 0 0 0 0 0 0 0 127 0" result="hardAlpha"/>
<feOffset dy="4"/>
<feGaussianBlur stdDeviation="10"/>
<feComposite in2="hardAlpha" operator="out"/>
<feColorMatrix type="matrix" values="0 0 0 0 0.0991667 0 0 0 0 0.35 0 0 0 0 0.290815 0 0 0 0.08 0"/>
<feBlend mode="normal" in2="BackgroundImageFix" result="effect1_dropShadow_500_6"/>
<feBlend mode="normal" in="SourceGraphic" in2="effect1_dropShadow_500_6" result="shape"/>
</filter>
</defs>
</svg>
