<svg width="321" height="875" viewBox="0 0 321 875" fill="none" xmlns="http://www.w3.org/2000/svg">
<line opacity="0.1" x1="90.7435" y1="120.527" x2="-2.22772" y2="261.873" stroke="#005944"/>
<line opacity="0.1" x1="90.2629" y1="120.748" x2="-154.871" y2="89.6838" stroke="#005944"/>
<line opacity="0.1" x1="90.822" y1="120.313" x2="53.3192" y2="424.499" stroke="#005944"/>
<line opacity="0.1" x1="7.89485" y1="629.19" x2="-214.406" y2="551.042" stroke="#005944"/>
<line opacity="0.1" x1="199.854" y1="341.048" x2="-26.8675" y2="616.619" stroke="#005944"/>
<line opacity="0.1" x1="199.716" y1="341.165" x2="-36.0054" y2="475.611" stroke="#005944"/>
<line opacity="0.1" x1="199.286" y1="341.196" x2="-2.82017" y2="262.032" stroke="#005944"/>
<line opacity="0.1" x1="-2.16177" y1="261.405" x2="136.939" y2="673.693" stroke="#005944"/>
<line opacity="0.1" x1="-35.874" y1="474.85" x2="136.841" y2="673.528" stroke="#005944"/>
<line opacity="0.1" x1="136.297" y1="674.327" x2="7.89227" y2="629.187" stroke="#005944"/>
<line opacity="0.1" x1="-97.7545" y1="695.666" x2="136.417" y2="673.358" stroke="#005944"/>
<circle cx="-3.18969" cy="261.855" r="6.38006" transform="rotate(-70.6312 -3.18969 261.855)" fill="#BDD3CE"/>
<circle cx="52.2695" cy="424.724" r="6.38006" transform="rotate(-70.6312 52.2695 424.724)" fill="#BDD3CE"/>
<circle cx="89.2395" cy="120.769" r="4.25337" transform="rotate(-70.6312 89.2395 120.769)" fill="#BDD3CE"/>
<circle cx="75.4036" cy="491.015" r="4.25337" transform="rotate(-70.6312 75.4036 491.015)" fill="#BDD3CE"/>
<circle cx="28.1948" cy="548.361" r="4.25337" transform="rotate(-70.6312 28.1948 548.361)" fill="#00D9A4"/>
<circle cx="70.3392" cy="289.959" r="4.25337" transform="rotate(-70.6312 70.3392 289.959)" fill="#00D9A4"/>
<circle cx="133.267" cy="671.409" r="6.38006" transform="rotate(-70.6312 133.267 671.409)" fill="#BDD3CE"/>
<circle cx="196.489" cy="341.519" r="4.25337" transform="rotate(-70.6312 196.489 341.519)" fill="#BDD3CE"/>
</svg>
