<svg width="258" height="783" viewBox="0 0 258 783" fill="none" xmlns="http://www.w3.org/2000/svg">
<line opacity="0.1" y1="-0.5" x2="328.585" y2="-0.5" transform="matrix(0.587727 -0.809059 0.67778 0.735265 11.9707 693.686)" stroke="#005944"/>
<line opacity="0.1" y1="-0.5" x2="212.845" y2="-0.5" transform="matrix(0.735936 -0.677051 0.677053 0.735934 167.273 318.771)" stroke="#005944"/>
<line opacity="0.1" x1="265.454" y1="609.101" x2="167.47" y2="317.447" stroke="#005944"/>
<line opacity="0.1" y1="-0.5" x2="252.39" y2="-0.5" transform="matrix(-0.873728 -0.486414 0.486415 -0.873728 388.465 440.055)" stroke="#005944"/>
<line opacity="0.1" x1="716.133" y1="575.359" x2="250.352" y2="563.111" stroke="#005944"/>
<line opacity="0.1" x1="249.968" y1="562.802" x2="323.422" y2="174.574" stroke="#005944"/>
<line opacity="0.1" y1="-0.5" x2="272.15" y2="-0.5" transform="matrix(0.875335 -0.483518 0.424465 0.905444 12.1426 694.203)" stroke="#005944"/>
<line opacity="0.1" x1="12.3092" y1="693.71" x2="322.655" y2="776.925" stroke="#005944"/>
<circle cx="11.4404" cy="693.853" r="8.33049" transform="rotate(-18.5702 11.4404 693.853)" fill="#00D9A4"/>
<circle r="8.33049" transform="matrix(0.947934 -0.318468 0.318465 0.947935 169.665 317.296)" fill="#BDD3CE"/>
<circle cx="250.328" cy="562.625" r="5.55366" transform="rotate(-18.5702 250.328 562.625)" fill="#BDD3CE"/>
<circle cx="204" cy="428.209" r="5.55366" transform="rotate(-18.5702 204 428.209)" fill="#BDD3CE"/>
</svg>
