<svg width="352" height="897" viewBox="0 0 352 897" fill="none" xmlns="http://www.w3.org/2000/svg">
<line opacity="0.1" x1="-58.7319" y1="484.757" x2="14.3283" y2="280.891" stroke="#005944"/>
<line opacity="0.1" x1="14.2089" y1="281.093" x2="-12.2278" y2="35.1886" stroke="#005944"/>
<line opacity="0.1" x1="133.859" y1="160.904" x2="15.1419" y2="281.439" stroke="#005944"/>
<line opacity="0.1" x1="133.344" y1="161.027" x2="-101.047" y2="82.8207" stroke="#005944"/>
<line opacity="0.1" x1="133.977" y1="160.709" x2="37.9559" y2="451.768" stroke="#005944"/>
<line opacity="0.1" x1="197.936" y1="398.453" x2="-78.1094" y2="624.597" stroke="#005944"/>
<line opacity="0.1" x1="197.778" y1="398.541" x2="-59.6126" y2="484.509" stroke="#005944"/>
<line opacity="0.1" x1="197.35" y1="398.488" x2="14.5294" y2="281.481" stroke="#005944"/>
<line opacity="0.1" x1="14.3766" y1="281.353" x2="-101.296" y2="82.4957" stroke="#005944"/>
<line opacity="0.1" x1="15.2973" y1="280.994" x2="71.4469" y2="712.477" stroke="#005944"/>
<line opacity="0.1" x1="-59.3353" y1="483.787" x2="71.3833" y2="712.296" stroke="#005944"/>
<line opacity="0.1" x1="70.6935" y1="712.973" x2="-46.4624" y2="643.693" stroke="#005944"/>
<line opacity="0.1" x1="-163.033" y1="688.325" x2="70.9996" y2="712.045" stroke="#005944"/>
<circle cx="14.2016" cy="281.234" r="6.38006" transform="rotate(-59.4018 14.2016 281.234)" fill="#BDD3CE"/>
<circle cx="36.882" cy="451.785" r="6.38006" transform="rotate(-59.4018 36.882 451.785)" fill="#BDD3CE"/>
<circle cx="132.336" cy="160.85" r="4.25337" transform="rotate(-59.4018 132.336 160.85)" fill="#BDD3CE"/>
<circle cx="-2.59695" cy="116.117" r="4.25337" transform="rotate(-59.4018 -2.59695 116.117)" fill="#BDD3CE"/>
<circle cx="46.6638" cy="521.312" r="4.25337" transform="rotate(-59.4018 46.6638 521.312)" fill="#BDD3CE"/>
<circle cx="80.8501" cy="323.119" r="4.25337" transform="rotate(-59.4018 80.8501 323.119)" fill="#00D9A4"/>
<circle cx="68.29" cy="709.521" r="6.38006" transform="rotate(-59.4018 68.29 709.521)" fill="#BDD3CE"/>
<circle cx="194.543" cy="398.258" r="4.25337" transform="rotate(-59.4018 194.543 398.258)" fill="#BDD3CE"/>
</svg>
