<svg width="529" height="893" viewBox="0 0 529 893" fill="none" xmlns="http://www.w3.org/2000/svg">
<line opacity="0.1" y1="-0.5" x2="251.653" y2="-0.5" transform="matrix(-0.951463 -0.307764 0.488745 -0.872427 718.761 686.395)" stroke="#005944"/>
<line opacity="0.1" y1="-0.5" x2="216.563" y2="-0.5" transform="matrix(-0.737554 -0.675288 0.675287 -0.737556 446.054 471.482)" stroke="#005944"/>
<line opacity="0.1" x1="286.129" y1="325.796" x2="49.1453" y2="255.04" stroke="#005944"/>
<line opacity="0.1" y1="-0.5" x2="163.011" y2="-0.5" transform="matrix(-0.871943 -0.489608 0.48961 -0.871942 408.892 662.389)" stroke="#005944"/>
<line opacity="0.1" x1="221.588" y1="168.965" x2="286.809" y2="325.07" stroke="#005944"/>
<line opacity="0.1" y1="-0.5" x2="247.094" y2="-0.5" transform="matrix(-0.658844 0.752279 -0.752278 -0.658845 221.127 169.158)" stroke="#005944"/>
<line opacity="0.1" y1="-0.5" x2="306.489" y2="-0.5" transform="matrix(0.754502 0.656298 -0.656297 0.754503 221.127 169.158)" stroke="#005944"/>
<line opacity="0.1" x1="597.025" y1="522.022" x2="407.954" y2="662.652" stroke="#005944"/>
<line opacity="0.1" x1="445.139" y1="472.623" x2="408.144" y2="662.348" stroke="#005944"/>
<line opacity="0.1" x1="465.43" y1="201.779" x2="567.17" y2="543.819" stroke="#005944"/>
<line opacity="0.1" x1="465.449" y1="201.959" x2="445.146" y2="472.566" stroke="#005944"/>
<line opacity="0.1" x1="465.235" y1="202.333" x2="286.611" y2="325.651" stroke="#005944"/>
<line opacity="0.1" x1="286.434" y1="325.742" x2="58.3105" y2="355.475" stroke="#005944"/>
<line opacity="0.1" x1="49.7854" y1="254.516" x2="58.7433" y2="354.931" stroke="#005944"/>
<line opacity="0.1" y1="-0.5" x2="435.121" y2="-0.5" transform="matrix(0.964346 0.264645 -0.264644 0.964346 286.327 325.236)" stroke="#005944"/>
<line opacity="0.1" x1="267.193" y1="581.669" x2="445.766" y2="471.111" stroke="#005944"/>
<line opacity="0.1" y1="-0.5" x2="263.256" y2="-0.5" transform="matrix(0.992522 -0.122069 0.122071 0.992521 444.648 472.527)" stroke="#005944"/>
<line opacity="0.1" x1="566.937" y1="544.322" x2="266.822" y2="583.074" stroke="#005944"/>
<circle cx="407.251" cy="661.001" r="6.38006" transform="rotate(-126.642 407.251 661.001)" fill="#BDD3CE"/>
<circle cx="286.257" cy="325.858" r="6.38006" transform="rotate(-126.642 286.257 325.858)" fill="#BDD3CE"/>
<circle cx="426.789" cy="561.119" r="4.25337" transform="rotate(-126.642 426.789 561.119)" fill="#00D9A4"/>
<circle r="6.38006" transform="matrix(-0.596806 -0.802386 0.802382 -0.596811 452.302 370.925)" fill="#BDD3CE"/>
<circle r="6.38006" transform="matrix(-0.596806 -0.802386 0.802382 -0.596811 49.1995 255.159)" fill="#00D9A4"/>
<circle cx="444.666" cy="472.553" r="4.25337" transform="rotate(-126.642 444.666 472.553)" fill="#BDD3CE"/>
<circle r="4.25337" transform="matrix(-0.5968 -0.80239 0.802378 -0.596816 220.949 170.347)" fill="#BDD3CE"/>
<circle cx="58.2462" cy="354.98" r="4.25337" transform="rotate(-126.642 58.2462 354.98)" fill="#BDD3CE"/>
<circle cx="127.499" cy="277.469" r="4.25337" transform="rotate(-126.642 127.499 277.469)" fill="#BDD3CE"/>
<circle r="4.25337" transform="matrix(-0.596812 -0.802381 0.802387 -0.596804 267.459 582.092)" fill="#BDD3CE"/>
<circle cx="479.849" cy="609.65" r="4.25337" transform="rotate(-126.642 479.849 609.65)" fill="#BDD3CE"/>
<circle r="4.25337" transform="matrix(-0.596816 -0.802378 0.80239 -0.5968 520.2 388.803)" fill="#BDD3CE"/>
<circle cx="350.664" cy="280.603" r="4.25337" transform="rotate(-126.642 350.664 280.603)" fill="#00D9A4"/>
<circle r="4.25337" transform="matrix(-0.5968 -0.80239 0.802378 -0.596816 463.938 204.832)" fill="#BDD3CE"/>
</svg>
