<svg width="402" height="887" viewBox="0 0 402 887" fill="none" xmlns="http://www.w3.org/2000/svg">
<line opacity="0.1" x1="379.72" y1="405.93" x2="330.624" y2="616.854" stroke="#005944"/>
<line opacity="0.1" x1="330.719" y1="616.64" x2="385.299" y2="857.863" stroke="#005944"/>
<line opacity="0.1" x1="225.707" y1="749.808" x2="329.753" y2="616.403" stroke="#005944"/>
<line opacity="0.1" x1="226.204" y1="749.626" x2="468.042" y2="800.319" stroke="#005944"/>
<line opacity="0.1" x1="225.611" y1="750.014" x2="287.475" y2="449.834" stroke="#005944"/>
<line opacity="0.1" x1="349.226" y1="249.463" x2="564.516" y2="345.249" stroke="#005944"/>
<line opacity="0.1" x1="380.676" y1="406.053" x2="564.156" y2="345.232" stroke="#005944"/>
<line opacity="0.1" x1="134.699" y1="521.219" x2="382.864" y2="264.789" stroke="#005944"/>
<line opacity="0.1" x1="134.846" y1="521.114" x2="380.623" y2="406.075" stroke="#005944"/>
<line opacity="0.1" x1="135.277" y1="521.117" x2="330.356" y2="616.291" stroke="#005944"/>
<line opacity="0.1" x1="330.523" y1="616.4" x2="468.327" y2="800.613" stroke="#005944"/>
<line opacity="0.1" x1="384.528" y1="857.562" x2="467.64" y2="800.503" stroke="#005944"/>
<line opacity="0.1" x1="329.649" y1="616.863" x2="224.182" y2="194.717" stroke="#005944"/>
<line opacity="0.1" x1="562.985" y1="507.637" x2="379.051" y2="406.249" stroke="#005944"/>
<line opacity="0.1" x1="380.431" y1="406.824" x2="224.266" y2="194.889" stroke="#005944"/>
<line opacity="0.1" x1="224.874" y1="194.137" x2="349.229" y2="249.465" stroke="#005944"/>
<line opacity="0.1" x1="383.417" y1="264.746" x2="564.392" y2="507.272" stroke="#005944"/>
<line opacity="0.1" y1="-0.5" x2="208.431" y2="-0.5" transform="matrix(-0.23582 0.971797 -0.954039 -0.299684 432.374 62.584)" stroke="#005944"/>
<line opacity="0.1" x1="459.883" y1="191.705" x2="224.676" y2="195.094" stroke="#005944"/>
<circle cx="330.71" cy="616.497" r="6.38006" transform="rotate(113.985 330.71 616.497)" fill="#BDD3CE"/>
<circle cx="288.539" cy="449.693" r="6.38006" transform="rotate(113.985 288.539 449.693)" fill="#BDD3CE"/>
<circle cx="385.375" cy="857.757" r="6.38006" transform="rotate(113.985 385.375 857.757)" fill="#00D9A4"/>
<circle cx="383.235" cy="265.108" r="4.25337" transform="rotate(113.985 383.235 265.108)" fill="#BDD3CE"/>
<circle cx="402.437" cy="192.651" r="4.25337" transform="rotate(113.985 402.437 192.651)" fill="#BDD3CE"/>
<circle cx="380.846" cy="406.501" r="4.25337" transform="rotate(113.985 380.846 406.501)" fill="#BDD3CE"/>
<circle cx="227.225" cy="749.686" r="4.25337" transform="rotate(113.985 227.225 749.686)" fill="#BDD3CE"/>
<circle cx="366.412" cy="778.581" r="4.25337" transform="rotate(113.985 366.412 778.581)" fill="#BDD3CE"/>
<circle cx="270.816" cy="381.755" r="4.25337" transform="rotate(113.985 270.816 381.755)" fill="#BDD3CE"/>
<circle cx="322.487" cy="328.395" r="4.25337" transform="rotate(113.985 322.487 328.395)" fill="#00D9A4"/>
<circle cx="259.682" cy="582.567" r="4.25337" transform="rotate(113.985 259.682 582.567)" fill="#00D9A4"/>
<circle cx="227.659" cy="197.288" r="6.38006" transform="rotate(113.985 227.659 197.288)" fill="#BDD3CE"/>
<circle cx="138.091" cy="521.022" r="4.25337" transform="rotate(113.985 138.091 521.022)" fill="#BDD3CE"/>
</svg>
