<svg width="543" height="752" viewBox="0 0 543 752" fill="none" xmlns="http://www.w3.org/2000/svg">
<line opacity="0.1" y1="-0.5" x2="251.653" y2="-0.5" transform="matrix(-0.951463 -0.307764 0.488745 -0.872427 426.761 686.395)" stroke="#005944"/>
<line opacity="0.1" y1="-0.5" x2="216.563" y2="-0.5" transform="matrix(-0.737555 -0.675288 0.675287 -0.737555 154.054 471.482)" stroke="#005944"/>
<line opacity="0.1" x1="116.647" y1="662.825" x2="-25.4895" y2="583.013" stroke="#005944"/>
<line opacity="0.1" x1="-70.5449" y1="168.781" x2="160.702" y2="369.929" stroke="#005944"/>
<line opacity="0.1" x1="305.025" y1="522.022" x2="115.954" y2="662.652" stroke="#005944"/>
<line opacity="0.1" x1="153.139" y1="472.623" x2="116.144" y2="662.348" stroke="#005944"/>
<line opacity="0.1" x1="173.43" y1="201.779" x2="275.17" y2="543.819" stroke="#005944"/>
<line opacity="0.1" x1="173.449" y1="201.959" x2="153.146" y2="472.566" stroke="#005944"/>
<line opacity="0.1" x1="173.235" y1="202.333" x2="-5.38934" y2="325.651" stroke="#005944"/>
<line opacity="0.1" y1="-0.5" x2="435.121" y2="-0.5" transform="matrix(0.964346 0.264645 -0.264644 0.964346 -5.67358 325.236)" stroke="#005944"/>
<line opacity="0.1" x1="-24.8069" y1="581.669" x2="153.766" y2="471.111" stroke="#005944"/>
<line opacity="0.1" y1="-0.5" x2="263.256" y2="-0.5" transform="matrix(0.992522 -0.122069 0.122071 0.992521 152.648 472.527)" stroke="#005944"/>
<line opacity="0.1" y1="-0.5" x2="136.108" y2="-0.5" transform="matrix(-0.802383 0.596809 -0.596807 -0.802385 413.935 440.393)" stroke="#005944"/>
<line opacity="0.1" x1="274.937" y1="544.322" x2="-25.1783" y2="583.074" stroke="#005944"/>
<line opacity="0.1" y1="-0.5" x2="208.431" y2="-0.5" transform="matrix(-0.731197 -0.682167 0.72911 -0.684397 427.096 686.145)" stroke="#005944"/>
<line opacity="0.1" x1="301.082" y1="646.784" x2="413.496" y2="440.153" stroke="#005944"/>
<circle cx="427.007" cy="686.737" r="6.38006" transform="rotate(-126.642 427.007 686.737)" fill="#00D9A4"/>
<circle cx="115.251" cy="661.001" r="6.38006" transform="rotate(-126.642 115.251 661.001)" fill="#BDD3CE"/>
<circle r="6.38006" transform="matrix(-0.596805 -0.802387 0.802382 -0.596812 -5.7431 325.858)" fill="#BDD3CE"/>
<circle cx="134.789" cy="561.119" r="4.25337" transform="rotate(-126.642 134.789 561.119)" fill="#00D9A4"/>
<circle r="6.38006" transform="matrix(-0.596805 -0.802386 0.802382 -0.596811 160.302 370.925)" fill="#BDD3CE"/>
<circle cx="274.709" cy="543.986" r="4.25337" transform="rotate(-126.642 274.709 543.986)" fill="#BDD3CE"/>
<circle cx="328.433" cy="596.258" r="4.25337" transform="rotate(-126.642 328.433 596.258)" fill="#BDD3CE"/>
<circle cx="152.666" cy="472.553" r="4.25337" transform="rotate(-126.642 152.666 472.553)" fill="#BDD3CE"/>
<circle r="4.25337" transform="matrix(-0.596799 -0.802391 0.802377 -0.596817 301.013 646.34)" fill="#BDD3CE"/>
<circle cx="187.849" cy="609.65" r="4.25337" transform="rotate(-126.642 187.849 609.65)" fill="#BDD3CE"/>
<circle r="4.25337" transform="matrix(-0.596815 -0.802379 0.802389 -0.596801 228.2 388.803)" fill="#BDD3CE"/>
<circle cx="249.355" cy="460.006" r="4.25337" transform="rotate(-126.642 249.355 460.006)" fill="#00D9A4"/>
<circle cx="58.6644" cy="280.603" r="4.25337" transform="rotate(-126.642 58.6644 280.603)" fill="#00D9A4"/>
<circle r="6.38006" transform="matrix(-0.596815 -0.802379 0.802389 -0.596801 410.12 441.675)" fill="#BDD3CE"/>
<circle cx="171.938" cy="204.832" r="4.25337" transform="rotate(-126.642 171.938 204.832)" fill="#BDD3CE"/>
</svg>
