<svg width="25" height="25" viewBox="0 0 25 25" fill="none" xmlns="http://www.w3.org/2000/svg">
<path d="M1.79261 23.2075C1.86517 23.2801 1.95133 23.3377 2.04617 23.377C2.14102 23.4164 2.24268 23.4366 2.34535 23.4366C2.44801 23.4366 2.54968 23.4164 2.64452 23.377C2.73936 23.3377 2.82552 23.2801 2.89808 23.2075L12.4996 13.6059L22.1051 23.2075C22.2517 23.3541 22.4505 23.4364 22.6578 23.4364C22.8652 23.4364 23.064 23.3541 23.2106 23.2075C23.3572 23.0609 23.4395 22.862 23.4395 22.6547C23.4395 22.4474 23.3572 22.2486 23.2106 22.102L13.6051 12.5004L23.2067 2.89497C23.3533 2.74837 23.4356 2.54955 23.4356 2.34223C23.4356 2.13492 23.3533 1.93609 23.2067 1.7895C23.0601 1.6429 22.8613 1.56055 22.6539 1.56055C22.4466 1.56055 22.2478 1.6429 22.1012 1.7895L12.4996 11.395L2.89417 1.7934C2.74472 1.66541 2.55247 1.59853 2.35585 1.60613C2.15923 1.61372 1.97271 1.69523 1.83358 1.83437C1.69444 1.97351 1.61293 2.16002 1.60534 2.35664C1.59774 2.55326 1.66462 2.74551 1.79261 2.89497L11.3942 12.5004L1.79261 22.1059C1.6471 22.2523 1.56543 22.4503 1.56543 22.6567C1.56543 22.8631 1.6471 23.0611 1.79261 23.2075Z" fill="#005944"/>
</svg>
