<svg width="85" height="85" viewBox="0 0 85 85" fill="none" xmlns="http://www.w3.org/2000/svg">
<rect x="10.5" y="6.5" width="64" height="64" rx="4.5" stroke="#00D9A4"/>
<g filter="url(#filter0_d_476_3)">
<rect x="20" y="16" width="45" height="45" rx="5" fill="#00D9A4"/>
</g>
<mask id="mask0_476_3" style="mask-type:alpha" maskUnits="userSpaceOnUse" x="10" y="6" width="65" height="65">
<rect x="10.5" y="6.5" width="64" height="64" rx="4.5" stroke="#00D9A4"/>
</mask>
<g mask="url(#mask0_476_3)">
<path d="M-1.77823 34.2871C-2.7267 40.2343 -2.49449 46.3102 -1.09485 52.1676C0.304788 58.0251 2.84444 63.5496 6.37909 68.4256C9.91376 73.3016 14.3742 77.4336 19.5058 80.5858C24.6373 83.738 30.3395 85.8486 36.2868 86.7971C42.234 87.7455 48.3098 87.5133 54.1673 86.1137C60.0248 84.714 65.5492 82.1744 70.4252 78.6397C75.3012 75.1051 79.4333 70.6446 82.5855 65.513C85.7377 60.3815 87.8482 54.6793 88.7967 48.7321L43.5092 41.5096L-1.77823 34.2871Z" fill="#CCE0DB"/>
</g>
<path d="M42.5 26.6328C40.7751 26.634 39.1212 27.3197 37.9015 28.5394C36.6818 29.7591 35.996 31.413 35.9949 33.138C35.9949 35.5647 38.9544 41.8034 40.7175 45.3006C41.6088 47.0783 42.2821 48.328 42.2869 48.3425C42.3077 48.3809 42.3384 48.4131 42.3759 48.4354C42.4135 48.4578 42.4563 48.4697 42.5 48.4697C42.5437 48.4697 42.5866 48.4578 42.6241 48.4354C42.6616 48.4131 42.6924 48.3809 42.7132 48.3425C42.718 48.328 43.3913 47.0783 44.2825 45.3006C46.0457 41.8034 49.0052 35.5647 49.0052 33.138C49.004 31.413 48.3183 29.7591 47.0986 28.5394C45.8789 27.3197 44.2249 26.634 42.5 26.6328ZM42.5 36.7078C41.7707 36.7079 41.0576 36.4917 40.4512 36.0865C39.8447 35.6814 39.372 35.1055 39.0928 34.4317C38.8136 33.7578 38.7406 33.0163 38.8828 32.301C39.0251 31.5856 39.3763 30.9285 39.8921 30.4128C40.4078 29.897 41.0649 29.5458 41.7803 29.4035C42.4956 29.2613 43.2371 29.3343 43.9109 29.6135C44.5848 29.8927 45.1607 30.3654 45.5658 30.9719C45.971 31.5784 46.1872 32.2914 46.1871 33.0207C46.1859 33.9983 45.7971 34.9354 45.1059 35.6266C44.4147 36.3178 43.4775 36.7067 42.5 36.7078Z" fill="white"/>
<path d="M50.6957 47.6342C50.6957 49.407 46.4719 50.3661 42.5001 50.3661C38.5282 50.3661 34.3044 49.407 34.3044 47.6342C34.3044 46.2198 37.1332 45.3237 40.0394 45.0234L40.2865 45.5175C41.0179 46.9803 41.604 48.0798 41.7929 48.4431L41.8655 48.5787C41.9285 48.6917 42.0206 48.7858 42.1321 48.8513C42.2437 48.9168 42.3707 48.9514 42.5001 48.9514C42.6294 48.9514 42.7564 48.9168 42.868 48.8513C42.9795 48.7858 43.0716 48.6917 43.1346 48.5787L43.2072 48.4431C43.3962 48.0798 43.9822 46.9803 44.7137 45.5175L44.9607 45.0234C47.8669 45.3237 50.6957 46.2198 50.6957 47.6342Z" fill="white"/>
<defs>
<filter id="filter0_d_476_3" x="0" y="0" width="85" height="85" filterUnits="userSpaceOnUse" color-interpolation-filters="sRGB">
<feFlood flood-opacity="0" result="BackgroundImageFix"/>
<feColorMatrix in="SourceAlpha" type="matrix" values="0 0 0 0 0 0 0 0 0 0 0 0 0 0 0 0 0 0 127 0" result="hardAlpha"/>
<feOffset dy="4"/>
<feGaussianBlur stdDeviation="10"/>
<feComposite in2="hardAlpha" operator="out"/>
<feColorMatrix type="matrix" values="0 0 0 0 0.0991667 0 0 0 0 0.35 0 0 0 0 0.290815 0 0 0 0.08 0"/>
<feBlend mode="normal" in2="BackgroundImageFix" result="effect1_dropShadow_476_3"/>
<feBlend mode="normal" in="SourceGraphic" in2="effect1_dropShadow_476_3" result="shape"/>
</filter>
</defs>
</svg>
