<svg width="85" height="85" viewBox="0 0 85 85" fill="none" xmlns="http://www.w3.org/2000/svg">
<rect x="10.5" y="6.5" width="64" height="64" rx="4.5" stroke="#00D9A4"/>
<mask id="mask0_476_4" style="mask-type:alpha" maskUnits="userSpaceOnUse" x="10" y="6" width="65" height="65">
<rect x="10.5" y="6.5" width="64" height="64" rx="4.5" stroke="#00D9A4"/>
</mask>
<g mask="url(#mask0_476_4)">
<path d="M-1.77823 34.2871C-2.7267 40.2343 -2.49449 46.3102 -1.09485 52.1676C0.304788 58.0251 2.84444 63.5496 6.37909 68.4256C9.91376 73.3016 14.3742 77.4336 19.5058 80.5858C24.6373 83.738 30.3395 85.8486 36.2868 86.7971C42.234 87.7455 48.3098 87.5133 54.1673 86.1137C60.0248 84.714 65.5492 82.1744 70.4252 78.6397C75.3012 75.1051 79.4333 70.6446 82.5855 65.513C85.7377 60.3815 87.8482 54.6793 88.7967 48.7321L43.5092 41.5096L-1.77823 34.2871Z" fill="#CCE0DB"/>
</g>
<g filter="url(#filter0_d_476_4)">
<rect x="20" y="16" width="45" height="45" rx="5" fill="#00D9A4"/>
</g>
<path d="M42.5001 29.7148C40.7628 29.7148 39.0646 30.23 37.6201 31.1952C36.1756 32.1604 35.0498 33.5322 34.3849 35.1372C33.7201 36.7422 33.5462 38.5084 33.8851 40.2123C34.224 41.9162 35.0606 43.4813 36.289 44.7097C37.5175 45.9381 39.0826 46.7747 40.7865 47.1136C42.4903 47.4526 44.2565 47.2786 45.8615 46.6138C47.4665 45.949 48.8384 44.8231 49.8035 43.3786C50.7687 41.9342 51.2839 40.2359 51.2839 38.4986C51.2813 36.1698 50.355 33.9371 48.7083 32.2904C47.0616 30.6437 44.8289 29.7174 42.5001 29.7148ZM36.0812 38.8365H35.4055C35.3159 38.8365 35.23 38.8009 35.1666 38.7375C35.1033 38.6742 35.0677 38.5882 35.0677 38.4986C35.0677 38.409 35.1033 38.3231 35.1666 38.2597C35.23 38.1964 35.3159 38.1608 35.4055 38.1608H36.0812C36.1708 38.1608 36.2567 38.1964 36.3201 38.2597C36.3834 38.3231 36.419 38.409 36.419 38.4986C36.419 38.5882 36.3834 38.6742 36.3201 38.7375C36.2567 38.8009 36.1708 38.8365 36.0812 38.8365ZM38.2001 43.2767L37.7221 43.7544C37.6587 43.8177 37.5727 43.8533 37.4831 43.8533C37.3935 43.8532 37.3075 43.8176 37.2442 43.7542C37.1808 43.6908 37.1453 43.6049 37.1453 43.5152C37.1453 43.4256 37.181 43.3397 37.2444 43.2763L37.7224 42.7986C37.7858 42.7353 37.8717 42.6997 37.9614 42.6997C38.051 42.6998 38.1369 42.7354 38.2003 42.7988C38.2636 42.8622 38.2992 42.9482 38.2991 43.0378C38.2991 43.1274 38.2635 43.2133 38.2001 43.2767ZM38.2001 34.1986C38.1367 34.262 38.0508 34.2975 37.9612 34.2975C37.8717 34.2975 37.7857 34.262 37.7224 34.1986L37.2444 33.7209C37.181 33.6576 37.1453 33.5716 37.1453 33.482C37.1453 33.3924 37.1808 33.3064 37.2442 33.2431C37.3075 33.1797 37.3935 33.144 37.4831 33.144C37.5727 33.144 37.6587 33.1795 37.7221 33.2429L38.2001 33.7206C38.2315 33.752 38.2564 33.7892 38.2734 33.8302C38.2904 33.8713 38.2992 33.9152 38.2992 33.9596C38.2992 34.004 38.2904 34.048 38.2734 34.089C38.2564 34.13 38.2315 34.1673 38.2001 34.1986ZM42.8379 45.5932C42.8379 45.6828 42.8023 45.7688 42.739 45.8321C42.6756 45.8955 42.5897 45.9311 42.5001 45.9311C42.4105 45.9311 42.3246 45.8955 42.2612 45.8321C42.1978 45.7688 42.1623 45.6828 42.1623 45.5932V44.9176C42.1623 44.828 42.1978 44.742 42.2612 44.6787C42.3246 44.6153 42.4105 44.5797 42.5001 44.5797C42.5897 44.5797 42.6756 44.6153 42.739 44.6787C42.8023 44.742 42.8379 44.828 42.8379 44.9176V45.5932ZM42.8379 38.4986C42.8379 38.5882 42.8023 38.6741 42.7389 38.7375L41.3031 40.1733C41.2394 40.2348 41.1541 40.2689 41.0655 40.2681C40.9769 40.2673 40.8922 40.2318 40.8295 40.1692C40.7669 40.1065 40.7314 40.0218 40.7306 39.9332C40.7298 39.8446 40.7639 39.7593 40.8254 39.6956L42.1623 38.3588V34.1067C42.1623 34.0171 42.1978 33.9312 42.2612 33.8678C42.3246 33.8045 42.4105 33.7689 42.5001 33.7689C42.5897 33.7689 42.6756 33.8045 42.739 33.8678C42.8023 33.9312 42.8379 34.0171 42.8379 34.1067V38.4986ZM42.8379 32.0797C42.8379 32.1693 42.8023 32.2552 42.739 32.3186C42.6756 32.382 42.5897 32.4175 42.5001 32.4175C42.4105 32.4175 42.3246 32.382 42.2612 32.3186C42.1978 32.2552 42.1623 32.1693 42.1623 32.0797V31.404C42.1623 31.3144 42.1978 31.2285 42.2612 31.1651C42.3246 31.1018 42.4105 31.0662 42.5001 31.0662C42.5897 31.0662 42.6756 31.1018 42.739 31.1651C42.8023 31.2285 42.8379 31.3144 42.8379 31.404V32.0797ZM47.7558 43.754C47.6925 43.8174 47.6066 43.853 47.517 43.853C47.4274 43.853 47.3415 43.8174 47.2781 43.754L46.8001 43.2763C46.7367 43.213 46.7011 43.1271 46.701 43.0374C46.701 42.9478 46.7366 42.8619 46.7999 42.7985C46.8633 42.7351 46.9492 42.6994 47.0388 42.6994C47.1284 42.6994 47.2144 42.7349 47.2778 42.7983L47.7558 43.276C47.7872 43.3074 47.8122 43.3446 47.8292 43.3856C47.8462 43.4267 47.8549 43.4706 47.8549 43.515C47.8549 43.5594 47.8462 43.6034 47.8292 43.6444C47.8122 43.6854 47.7872 43.7227 47.7558 43.754ZM47.7558 33.7203L47.2778 34.198C47.2144 34.2613 47.1284 34.2969 47.0388 34.2968C46.9492 34.2968 46.8633 34.2612 46.7999 34.1978C46.7366 34.1344 46.701 34.0484 46.701 33.9588C46.7011 33.8692 46.7367 33.7833 46.8001 33.7199L47.2781 33.2422C47.3415 33.1789 47.4275 33.1433 47.5171 33.1433C47.6067 33.1434 47.6926 33.179 47.756 33.2424C47.8193 33.3058 47.8549 33.3917 47.8549 33.4813C47.8549 33.571 47.8192 33.6569 47.7558 33.7203ZM49.5947 38.8365H48.919C48.8294 38.8365 48.7435 38.8009 48.6801 38.7375C48.6168 38.6742 48.5812 38.5882 48.5812 38.4986C48.5812 38.409 48.6168 38.3231 48.6801 38.2597C48.7435 38.1964 48.8294 38.1608 48.919 38.1608H49.5947C49.6843 38.1608 49.7702 38.1964 49.8336 38.2597C49.8969 38.3231 49.9325 38.409 49.9325 38.4986C49.9325 38.5882 49.8969 38.6742 49.8336 38.7375C49.7702 38.8009 49.6843 38.8365 49.5947 38.8365Z" fill="white"/>
<path d="M42.5001 26.6758C40.1615 26.6758 37.8754 27.3693 35.9309 28.6685C33.9864 29.9678 32.4708 31.8145 31.5759 33.9751C30.6809 36.1357 30.4467 38.5132 30.903 40.8069C31.3592 43.1006 32.4854 45.2075 34.139 46.8612C35.7927 48.5148 37.8996 49.641 40.1933 50.0972C42.487 50.5535 44.8645 50.3193 47.0251 49.4244C49.1857 48.5294 51.0324 47.0138 52.3317 45.0693C53.6309 43.1248 54.3244 40.8387 54.3244 38.5001C54.321 35.3651 53.0742 32.3596 50.8574 30.1428C48.6407 27.926 45.6351 26.6792 42.5001 26.6758ZM42.5001 47.9596C40.6292 47.9596 38.8003 47.4048 37.2447 46.3654C35.6891 45.3259 34.4767 43.8486 33.7607 42.1201C33.0447 40.3916 32.8574 38.4896 33.2224 36.6547C33.5874 34.8197 34.4883 33.1342 35.8113 31.8113C37.1342 30.4883 38.8197 29.5874 40.6547 29.2224C42.4896 28.8574 44.3916 29.0447 46.1201 29.7607C47.8486 30.4767 49.3259 31.6891 50.3654 33.2447C51.4048 34.8003 51.9596 36.6292 51.9596 38.5001C51.9567 41.008 50.9592 43.4124 49.1858 45.1858C47.4124 46.9592 45.008 47.9567 42.5001 47.9596Z" fill="white"/>
<defs>
<filter id="filter0_d_476_4" x="0" y="0" width="85" height="85" filterUnits="userSpaceOnUse" color-interpolation-filters="sRGB">
<feFlood flood-opacity="0" result="BackgroundImageFix"/>
<feColorMatrix in="SourceAlpha" type="matrix" values="0 0 0 0 0 0 0 0 0 0 0 0 0 0 0 0 0 0 127 0" result="hardAlpha"/>
<feOffset dy="4"/>
<feGaussianBlur stdDeviation="10"/>
<feComposite in2="hardAlpha" operator="out"/>
<feColorMatrix type="matrix" values="0 0 0 0 0.0991667 0 0 0 0 0.35 0 0 0 0 0.290815 0 0 0 0.08 0"/>
<feBlend mode="normal" in2="BackgroundImageFix" result="effect1_dropShadow_476_4"/>
<feBlend mode="normal" in="SourceGraphic" in2="effect1_dropShadow_476_4" result="shape"/>
</filter>
</defs>
</svg>
