<svg width="85" height="85" viewBox="0 0 85 85" fill="none" xmlns="http://www.w3.org/2000/svg">
<rect x="10.5" y="6.5" width="64" height="64" rx="4.5" stroke="#00D9A4"/>
<mask id="mask0_476_6" style="mask-type:alpha" maskUnits="userSpaceOnUse" x="10" y="6" width="65" height="65">
<rect x="10.5" y="6.5" width="64" height="64" rx="4.5" stroke="#00D9A4"/>
</mask>
<g mask="url(#mask0_476_6)">
<path d="M-1.77823 34.2871C-2.7267 40.2343 -2.49449 46.3102 -1.09485 52.1676C0.304788 58.0251 2.84444 63.5496 6.37909 68.4256C9.91376 73.3016 14.3742 77.4336 19.5058 80.5858C24.6373 83.738 30.3395 85.8486 36.2868 86.7971C42.234 87.7455 48.3098 87.5133 54.1673 86.1137C60.0248 84.714 65.5492 82.1744 70.4252 78.6397C75.3012 75.1051 79.4333 70.6446 82.5855 65.513C85.7377 60.3815 87.8482 54.6793 88.7967 48.7321L43.5092 41.5096L-1.77823 34.2871Z" fill="#CCE0DB"/>
</g>
<g filter="url(#filter0_d_476_6)">
<rect x="20" y="16" width="45" height="45" rx="5" fill="#00D9A4"/>
</g>
<path d="M30 30.918V46.0809L39.8928 38.5005L30 30.918Z" fill="white"/>
<path d="M30.6104 30.3711L42.4982 39.4828L54.3861 30.3711H30.6104Z" fill="white"/>
<path d="M45.1035 38.4993L55.0001 46.0826V30.9141L45.1035 38.4993Z" fill="white"/>
<path d="M44.4415 39.0078L42.7432 40.3079C42.6709 40.3632 42.5845 40.391 42.498 40.391C42.4116 40.391 42.3252 40.3632 42.2529 40.3079L40.5548 39.0078L30.6096 46.6284H54.3866L44.4415 39.0078Z" fill="white"/>
<defs>
<filter id="filter0_d_476_6" x="0" y="0" width="85" height="85" filterUnits="userSpaceOnUse" color-interpolation-filters="sRGB">
<feFlood flood-opacity="0" result="BackgroundImageFix"/>
<feColorMatrix in="SourceAlpha" type="matrix" values="0 0 0 0 0 0 0 0 0 0 0 0 0 0 0 0 0 0 127 0" result="hardAlpha"/>
<feOffset dy="4"/>
<feGaussianBlur stdDeviation="10"/>
<feComposite in2="hardAlpha" operator="out"/>
<feColorMatrix type="matrix" values="0 0 0 0 0.0991667 0 0 0 0 0.35 0 0 0 0 0.290815 0 0 0 0.08 0"/>
<feBlend mode="normal" in2="BackgroundImageFix" result="effect1_dropShadow_476_6"/>
<feBlend mode="normal" in="SourceGraphic" in2="effect1_dropShadow_476_6" result="shape"/>
</filter>
</defs>
</svg>
