<svg width="85" height="85" viewBox="0 0 85 85" fill="none" xmlns="http://www.w3.org/2000/svg">
<rect x="10.5" y="6.5" width="64" height="64" rx="4.5" stroke="#00D9A4"/>
<mask id="mask0_476_5" style="mask-type:alpha" maskUnits="userSpaceOnUse" x="10" y="6" width="65" height="65">
<rect x="10.5" y="6.5" width="64" height="64" rx="4.5" stroke="#00D9A4"/>
</mask>
<g mask="url(#mask0_476_5)">
<path d="M-1.77823 34.2871C-2.7267 40.2343 -2.49449 46.3102 -1.09485 52.1676C0.304788 58.0251 2.84444 63.5496 6.37909 68.4256C9.91376 73.3016 14.3742 77.4336 19.5058 80.5858C24.6373 83.738 30.3395 85.8486 36.2868 86.7971C42.234 87.7455 48.3098 87.5133 54.1673 86.1137C60.0248 84.714 65.5492 82.1744 70.4252 78.6397C75.3012 75.1051 79.4333 70.6446 82.5855 65.513C85.7377 60.3815 87.8482 54.6793 88.7967 48.7321L43.5092 41.5096L-1.77823 34.2871Z" fill="#CCE0DB"/>
</g>
<g filter="url(#filter0_d_476_5)">
<rect x="20" y="16" width="45" height="45" rx="5" fill="#00D9A4"/>
</g>
<path d="M42.0864 34.1421C42.2438 34.0728 42.3849 33.9714 42.5007 33.8443C42.6165 33.7172 42.7045 33.5673 42.7589 33.4041C42.8132 33.241 42.8329 33.0683 42.8165 32.8971C42.8001 32.7259 42.748 32.5601 42.6636 32.4103L40.0909 27.8648C39.9376 27.5987 39.6901 27.3996 39.3973 27.3071C39.1044 27.2145 38.7875 27.2351 38.5091 27.3648C38.3091 27.4603 38.1045 27.5648 37.9045 27.6784L41.6773 34.3284L42.0864 34.1421Z" fill="white"/>
<path d="M43.6364 43.0144C42.6318 42.7871 41.4455 41.6507 40.5409 40.0734C39.9171 39.0446 39.5536 37.8791 39.4818 36.678C39.477 36.4085 39.5154 36.1399 39.5955 35.8825C39.7136 35.5144 40.2091 35.0962 41.0636 34.6371L37.3182 28.0234C35.9062 29.007 34.8367 30.4071 34.2591 32.028C33.5045 34.7553 35.1182 39.0416 36.8773 42.1416C38.6364 45.2416 41.4909 48.8325 44.2182 49.5825C44.7062 49.7002 45.2072 49.7552 45.7091 49.7462C46.9183 49.7574 48.1155 49.5062 49.2182 49.0098L45.4545 42.3962C44.4455 43.0144 43.9136 43.078 43.6364 43.0144Z" fill="white"/>
<path d="M50.7681 46.7094L48.1817 42.1685C48.0971 42.0192 47.982 41.8894 47.8441 41.7874C47.7062 41.6854 47.5484 41.6134 47.3809 41.5762C47.2134 41.5389 47.04 41.5372 46.8718 41.5711C46.7036 41.605 46.5444 41.6738 46.4045 41.773L46.0317 42.0321L49.8045 48.6866C50.0045 48.5684 50.2045 48.4503 50.3863 48.3275C50.6422 48.1556 50.8237 47.8934 50.8946 47.5933C50.9654 47.2933 50.9202 46.9775 50.7681 46.7094Z" fill="white"/>
<defs>
<filter id="filter0_d_476_5" x="0" y="0" width="85" height="85" filterUnits="userSpaceOnUse" color-interpolation-filters="sRGB">
<feFlood flood-opacity="0" result="BackgroundImageFix"/>
<feColorMatrix in="SourceAlpha" type="matrix" values="0 0 0 0 0 0 0 0 0 0 0 0 0 0 0 0 0 0 127 0" result="hardAlpha"/>
<feOffset dy="4"/>
<feGaussianBlur stdDeviation="10"/>
<feComposite in2="hardAlpha" operator="out"/>
<feColorMatrix type="matrix" values="0 0 0 0 0.0991667 0 0 0 0 0.35 0 0 0 0 0.290815 0 0 0 0.08 0"/>
<feBlend mode="normal" in2="BackgroundImageFix" result="effect1_dropShadow_476_5"/>
<feBlend mode="normal" in="SourceGraphic" in2="effect1_dropShadow_476_5" result="shape"/>
</filter>
</defs>
</svg>
