<svg width="413" height="795" viewBox="0 0 413 795" fill="none" xmlns="http://www.w3.org/2000/svg">
<line opacity="0.1" y1="-0.5" x2="251.653" y2="-0.5" transform="matrix(0.513372 0.858166 -0.942321 0.334711 76.7454 17.9961)" stroke="#005944"/>
<line opacity="0.1" x1="140.949" y1="359.257" x2="164.851" y2="574.497" stroke="#005944"/>
<line opacity="0.1" x1="164.87" y1="574.265" x2="296.622" y2="783.571" stroke="#005944"/>
<line opacity="0.1" x1="294.606" y1="239.946" x2="349.016" y2="393.609" stroke="#005944"/>
<line opacity="0.1" x1="110.166" y1="734.79" x2="163.88" y2="574.362" stroke="#005944"/>
<line opacity="0.1" x1="110.574" y1="734.454" x2="355.496" y2="701.768" stroke="#005944"/>
<line opacity="0.1" x1="110.144" y1="735.017" x2="68.575" y2="431.36" stroke="#005944"/>
<line opacity="0.1" x1="60.1185" y1="221.861" x2="295.014" y2="240.534" stroke="#005944"/>
<line opacity="0.1" x1="141.892" y1="359.058" x2="294.67" y2="240.639" stroke="#005944"/>
<line opacity="0.1" x1="-51.7331" y1="549.522" x2="96.9397" y2="225.117" stroke="#005944"/>
<line opacity="0.1" x1="-51.6292" y1="549.374" x2="141.85" y2="359.095" stroke="#005944"/>
<line opacity="0.1" x1="-51.2214" y1="549.234" x2="164.412" y2="574.056" stroke="#005944"/>
<line opacity="0.1" x1="164.605" y1="574.104" x2="355.863" y2="701.951" stroke="#005944"/>
<line opacity="0.1" x1="295.795" y1="783.541" x2="355.178" y2="702.073" stroke="#005944"/>
<line opacity="0.1" x1="163.936" y1="574.83" x2="-76.017" y2="211.852" stroke="#005944"/>
<line opacity="0.1" x1="347.616" y1="394.173" x2="140.424" y2="359.782" stroke="#005944"/>
<line opacity="0.1" x1="141.918" y1="359.867" x2="-75.8801" y2="211.989" stroke="#005944"/>
<line opacity="0.1" x1="-75.5583" y1="211.076" x2="60.1215" y2="221.862" stroke="#005944"/>
<line opacity="0.1" x1="97.4463" y1="224.893" x2="348.822" y2="393.361" stroke="#005944"/>
<line opacity="0.1" y1="-0.5" x2="208.431" y2="-0.5" transform="matrix(0.101056 0.994881 -0.99939 0.0349237 76.3291 17.9609)" stroke="#005944"/>
<line opacity="0.1" x1="145.244" y1="130.567" x2="-75.4259" y2="212.044" stroke="#005944"/>
<circle cx="76.7865" cy="17.5732" r="6.38006" transform="rotate(94.5452 76.7865 17.5732)" fill="#00D9A4"/>
<circle cx="294.454" cy="242.241" r="6.38006" transform="rotate(94.5452 294.454 242.241)" fill="#BDD3CE"/>
<circle cx="164.814" cy="574.132" r="6.38006" transform="rotate(94.5452 164.814 574.132)" fill="#BDD3CE"/>
<circle cx="213.978" cy="304.54" r="4.25337" transform="rotate(94.5452 213.978 304.54)" fill="#00D9A4"/>
<circle cx="69.5319" cy="430.874" r="6.38006" transform="rotate(94.5452 69.5319 430.874)" fill="#BDD3CE"/>
<circle cx="296.659" cy="783.444" r="6.38006" transform="rotate(94.5452 296.659 783.444)" fill="#00D9A4"/>
<circle cx="97.3961" cy="225.294" r="4.25337" transform="rotate(94.5452 97.3961 225.294)" fill="#BDD3CE"/>
<circle cx="91.388" cy="150.579" r="4.25337" transform="rotate(94.5452 91.388 150.579)" fill="#BDD3CE"/>
<circle cx="142.201" cy="359.422" r="4.25337" transform="rotate(94.5452 142.201 359.422)" fill="#BDD3CE"/>
<circle cx="145.002" cy="130.946" r="4.25337" transform="rotate(94.5452 145.002 130.946)" fill="#BDD3CE"/>
<circle cx="111.557" cy="734.172" r="4.25337" transform="rotate(94.5452 111.557 734.172)" fill="#BDD3CE"/>
<circle cx="355.585" cy="702.364" r="4.25337" transform="rotate(94.5452 355.585 702.364)" fill="#BDD3CE"/>
<circle cx="252.426" cy="715.094" r="4.25337" transform="rotate(94.5452 252.426 715.094)" fill="#BDD3CE"/>
<circle cx="347.695" cy="393.676" r="4.25337" transform="rotate(94.5452 347.695 393.676)" fill="#BDD3CE"/>
<circle cx="206.005" cy="233.079" r="4.25337" transform="rotate(94.5452 206.005 233.079)" fill="#BDD3CE"/>
<circle cx="30.2074" cy="372.708" r="4.25337" transform="rotate(94.5452 30.2074 372.708)" fill="#BDD3CE"/>
<circle cx="61.1737" cy="305.192" r="4.25337" transform="rotate(94.5452 61.1737 305.192)" fill="#00D9A4"/>
<circle cx="86.5426" cy="565.778" r="4.25337" transform="rotate(94.5452 86.5426 565.778)" fill="#00D9A4"/>
</svg>
