<svg width="326" height="893" viewBox="0 0 326 893" fill="none" xmlns="http://www.w3.org/2000/svg">
<line opacity="0.1" x1="222.328" y1="744.107" x2="334.081" y2="617.089" stroke="#005944"/>
<line opacity="0.1" x1="222.834" y1="743.955" x2="461.251" y2="808.862" stroke="#005944"/>
<line opacity="0.1" x1="222.22" y1="744.308" x2="301.729" y2="448.312" stroke="#005944"/>
<line opacity="0.1" x1="144.999" y1="510.538" x2="407.895" y2="269.234" stroke="#005944"/>
<line opacity="0.1" x1="145.152" y1="510.442" x2="397.303" y2="410.141" stroke="#005944"/>
<line opacity="0.1" x1="145.582" y1="510.471" x2="334.69" y2="617.015" stroke="#005944"/>
<line opacity="0.1" x1="333.951" y1="617.542" x2="253.636" y2="189.897" stroke="#005944"/>
<line opacity="0.1" x1="397.066" y1="410.874" x2="253.709" y2="190.074" stroke="#005944"/>
<line opacity="0.1" x1="254.36" y1="189.361" x2="375.225" y2="251.946" stroke="#005944"/>
<line opacity="0.1" x1="489.102" y1="200.832" x2="254.107" y2="190.304" stroke="#005944"/>
<circle cx="302.8" cy="448.236" r="6.38006" transform="rotate(117.376 302.8 448.236)" fill="#BDD3CE"/>
<circle cx="223.851" cy="744.075" r="4.25337" transform="rotate(117.376 223.851 744.075)" fill="#BDD3CE"/>
<circle cx="289.125" cy="379.368" r="4.25337" transform="rotate(117.376 289.125 379.368)" fill="#BDD3CE"/>
<circle cx="266.134" cy="579.169" r="4.25337" transform="rotate(117.376 266.134 579.169)" fill="#00D9A4"/>
<circle cx="256.954" cy="192.673" r="6.38006" transform="rotate(117.376 256.954 192.673)" fill="#BDD3CE"/>
<circle cx="148.397" cy="510.54" r="4.25337" transform="rotate(117.376 148.397 510.54)" fill="#BDD3CE"/>
</svg>
