<svg width="330" height="665" viewBox="0 0 330 665" fill="none" xmlns="http://www.w3.org/2000/svg">
<line opacity="0.1" y1="-0.5" x2="251.653" y2="-0.5" transform="matrix(0.439736 0.898127 -0.967032 0.254657 259.366 29.2988)" stroke="#005944"/>
<line opacity="0.1" x1="294.778" y1="374.739" x2="300.579" y2="591.224" stroke="#005944"/>
<line opacity="0.1" x1="300.618" y1="590.993" x2="414.387" y2="810.593" stroke="#005944"/>
<line opacity="0.1" x1="232.668" y1="746.376" x2="299.623" y2="591.008" stroke="#005944"/>
<line opacity="0.1" x1="232.628" y1="746.6" x2="216.623" y2="440.53" stroke="#005944"/>
<line opacity="0.1" x1="225.732" y1="231.057" x2="458.24" y2="269.327" stroke="#005944"/>
<line opacity="0.1" x1="295.735" y1="374.618" x2="457.889" y2="269.403" stroke="#005944"/>
<line opacity="0.1" x1="86.8457" y1="548.207" x2="262.152" y2="237.386" stroke="#005944"/>
<line opacity="0.1" x1="86.9617" y1="548.069" x2="295.689" y2="374.653" stroke="#005944"/>
<line opacity="0.1" x1="87.3798" y1="547.963" x2="300.178" y2="590.748" stroke="#005944"/>
<line opacity="0.1" x1="300.367" y1="590.812" x2="480.251" y2="734.22" stroke="#005944"/>
<line opacity="0.1" x1="299.639" y1="591.48" x2="90.9124" y2="209.69" stroke="#005944"/>
<line opacity="0.1" x1="497.797" y1="426.832" x2="294.211" y2="375.218" stroke="#005944"/>
<line opacity="0.1" x1="295.692" y1="375.426" x2="91.0375" y2="209.836" stroke="#005944"/>
<line opacity="0.1" x1="91.4342" y1="208.954" x2="225.735" y2="231.059" stroke="#005944"/>
<line opacity="0.1" x1="262.675" y1="237.203" x2="499.066" y2="426.121" stroke="#005944"/>
<line opacity="0.1" y1="-0.5" x2="208.431" y2="-0.5" transform="matrix(0.0174227 0.999848 -0.998806 -0.0488554 258.954 29.2324)" stroke="#005944"/>
<line opacity="0.1" x1="318.201" y1="147.208" x2="91.4855" y2="209.928" stroke="#005944"/>
<circle cx="259.442" cy="28.8842" r="6.38006" transform="rotate(99.3469 259.442 28.8842)" fill="#00D9A4"/>
<circle cx="300.573" cy="590.859" r="6.38006" transform="rotate(99.3469 300.573 590.859)" fill="#BDD3CE"/>
<circle cx="217.617" cy="440.126" r="6.38006" transform="rotate(99.3469 217.617 440.126)" fill="#BDD3CE"/>
<circle cx="262.591" cy="237.602" r="4.25337" transform="rotate(99.3469 262.591 237.602)" fill="#BDD3CE"/>
<circle cx="262.859" cy="162.645" r="4.25337" transform="rotate(99.3469 262.859 162.645)" fill="#BDD3CE"/>
<circle cx="296.012" cy="375.006" r="4.25337" transform="rotate(99.3469 296.012 375.006)" fill="#BDD3CE"/>
<circle cx="317.928" cy="147.569" r="4.25337" transform="rotate(99.3469 317.928 147.569)" fill="#BDD3CE"/>
<circle cx="183.299" cy="378.871" r="4.25337" transform="rotate(99.3469 183.299 378.871)" fill="#BDD3CE"/>
<circle cx="219.808" cy="314.186" r="4.25337" transform="rotate(99.3469 219.808 314.186)" fill="#00D9A4"/>
<circle cx="223.275" cy="575.979" r="4.25337" transform="rotate(99.3469 223.275 575.979)" fill="#00D9A4"/>
<circle cx="94.9258" cy="211.3" r="6.38006" transform="rotate(99.3469 94.9258 211.3)" fill="#BDD3CE"/>
<circle cx="90.0781" cy="547.158" r="4.25337" transform="rotate(99.3469 90.0781 547.158)" fill="#BDD3CE"/>
</svg>
