<svg width="438" height="487" viewBox="0 0 438 487" fill="none" xmlns="http://www.w3.org/2000/svg">
<line opacity="0.1" x1="420.849" y1="235.15" x2="208.746" y2="278.873" stroke="#005944"/>
<line opacity="0.1" x1="208.98" y1="278.869" x2="12.7684" y2="429.43" stroke="#005944"/>
<line opacity="0.1" x1="553.87" y1="377.102" x2="405.904" y2="445.502" stroke="#005944"/>
<line opacity="0.1" x1="44.079" y1="239.259" x2="208.79" y2="277.893" stroke="#005944"/>
<line opacity="0.1" x1="44.4522" y1="239.634" x2="99.6686" y2="480.48" stroke="#005944"/>
<line opacity="0.1" x1="43.8515" y1="239.259" x2="342.356" y2="169.76" stroke="#005944"/>
<line opacity="0.1" x1="421.137" y1="236.071" x2="553.189" y2="377.231" stroke="#005944"/>
<line opacity="0.1" x1="213.565" y1="60.907" x2="550.339" y2="178.913" stroke="#005944"/>
<line opacity="0.1" x1="213.722" y1="60.9968" x2="421.094" y2="236.032" stroke="#005944"/>
<line opacity="0.1" x1="213.9" y1="61.3899" x2="209.144" y2="278.395" stroke="#005944"/>
<line opacity="0.1" x1="209.115" y1="278.592" x2="99.5207" y2="480.862" stroke="#005944"/>
<line opacity="0.1" x1="12.7183" y1="428.604" x2="99.3335" y2="480.191" stroke="#005944"/>
<line opacity="0.1" x1="208.329" y1="277.991" x2="547.538" y2="5.46954" stroke="#005944"/>
<line opacity="0.1" x1="405.214" y1="444.161" x2="420.279" y2="234.675" stroke="#005944"/>
<line opacity="0.1" x1="420.334" y1="236.171" x2="547.416" y2="5.61987" stroke="#005944"/>
<line opacity="0.1" x1="550.611" y1="179.397" x2="406.135" y2="445.287" stroke="#005944"/>
<circle cx="209.105" cy="278.802" r="6.38006" transform="rotate(179.234 209.105 278.802)" fill="#BDD3CE"/>
<circle cx="342.93" cy="170.669" r="6.38006" transform="rotate(179.234 342.93 170.669)" fill="#BDD3CE"/>
<circle cx="12.8956" cy="429.456" r="6.38006" transform="rotate(179.234 12.8956 429.456)" fill="#00D9A4"/>
<circle cx="420.802" cy="236.411" r="4.25337" transform="rotate(179.234 420.802 236.411)" fill="#BDD3CE"/>
<circle cx="44.8249" cy="240.587" r="4.25337" transform="rotate(179.234 44.8249 240.587)" fill="#BDD3CE"/>
<circle cx="99.0817" cy="480.624" r="4.25337" transform="rotate(179.234 99.0817 480.624)" fill="#BDD3CE"/>
<circle cx="76.8596" cy="379.085" r="4.25337" transform="rotate(179.234 76.8596 379.085)" fill="#BDD3CE"/>
<circle cx="405.714" cy="444.194" r="4.25337" transform="rotate(179.234 405.714 444.194)" fill="#BDD3CE"/>
<circle cx="397.207" cy="126.128" r="4.25337" transform="rotate(179.234 397.207 126.128)" fill="#BDD3CE"/>
<circle cx="210.18" cy="200.093" r="4.25337" transform="rotate(179.234 210.18 200.093)" fill="#00D9A4"/>
<circle cx="215.165" cy="63.9054" r="4.25337" transform="rotate(179.234 215.165 63.9054)" fill="#BDD3CE"/>
</svg>
