<svg width="502" height="825" viewBox="0 0 502 825" fill="none" xmlns="http://www.w3.org/2000/svg">
<line opacity="0.1" x1="473.865" y1="384.597" x2="322.679" y2="539.653" stroke="#005944"/>
<line opacity="0.1" x1="322.871" y1="539.519" x2="244.708" y2="774.164" stroke="#005944"/>
<line opacity="0.1" x1="164.091" y1="599.101" x2="322.167" y2="538.815" stroke="#005944"/>
<line opacity="0.1" x1="164.61" y1="599.203" x2="345.289" y2="767.757" stroke="#005944"/>
<line opacity="0.1" x1="163.902" y1="599.229" x2="372.213" y2="374.413" stroke="#005944"/>
<line opacity="0.1" x1="474.619" y1="385.198" x2="663.088" y2="428.133" stroke="#005944"/>
<line opacity="0.1" x1="204.546" y1="356.411" x2="549.612" y2="265.463" stroke="#005944"/>
<line opacity="0.1" x1="205.094" y1="356.624" x2="322.741" y2="539.032" stroke="#005944"/>
<line opacity="0.1" x1="322.827" y1="539.213" x2="345.381" y2="768.157" stroke="#005944"/>
<line opacity="0.1" x1="244.203" y1="773.507" x2="344.85" y2="767.707" stroke="#005944"/>
<line opacity="0.1" x1="321.84" y1="539.155" x2="450.113" y2="123.371" stroke="#005944"/>
<line opacity="0.1" x1="578.022" y1="566.48" x2="473.127" y2="384.523" stroke="#005944"/>
<line opacity="0.1" x1="474.01" y1="385.731" x2="450.096" y2="123.564" stroke="#005944"/>
<line opacity="0.1" x1="451.005" y1="123.232" x2="528.766" y2="234.94" stroke="#005944"/>
<line opacity="0.1" x1="653.341" y1="242.797" x2="450.341" y2="123.948" stroke="#005944"/>
<circle cx="322.937" cy="539.393" r="6.38006" transform="rotate(145.158 322.937 539.393)" fill="#BDD3CE"/>
<circle cx="373.196" cy="374.844" r="6.38006" transform="rotate(145.158 373.196 374.844)" fill="#BDD3CE"/>
<circle cx="244.827" cy="774.112" r="6.38006" transform="rotate(145.158 244.827 774.112)" fill="#00D9A4"/>
<circle cx="474.533" cy="385.668" r="4.25337" transform="rotate(145.158 474.533 385.668)" fill="#BDD3CE"/>
<circle cx="165.453" cy="599.785" r="4.25337" transform="rotate(145.158 165.453 599.785)" fill="#BDD3CE"/>
<circle cx="344.884" cy="768.205" r="4.25337" transform="rotate(145.158 344.884 768.205)" fill="#BDD3CE"/>
<circle cx="269.586" cy="696.552" r="4.25337" transform="rotate(145.158 269.586 696.552)" fill="#BDD3CE"/>
<circle cx="393.198" cy="307.541" r="4.25337" transform="rotate(145.158 393.198 307.541)" fill="#BDD3CE"/>
<circle cx="465.029" cy="288.633" r="4.25337" transform="rotate(145.158 465.029 288.633)" fill="#00D9A4"/>
<circle cx="279.727" cy="473.595" r="4.25337" transform="rotate(145.158 279.727 473.595)" fill="#00D9A4"/>
<circle cx="451.756" cy="127.372" r="6.38006" transform="rotate(145.158 451.756 127.372)" fill="#BDD3CE"/>
<circle cx="207.551" cy="357.998" r="4.25337" transform="rotate(145.158 207.551 357.998)" fill="#BDD3CE"/>
</svg>
