<svg width="110" height="45" viewBox="0 0 110 45" fill="none" xmlns="http://www.w3.org/2000/svg">
<path fill-rule="evenodd" clip-rule="evenodd" d="M76.6812 21.6186C76.6812 21.6186 73.16 22.9117 75.1621 24.6113C77.1643 26.3109 80.4872 21.2235 86.9097 24.9581C86.9097 24.9581 83.8939 19.3079 76.6812 21.6186Z" fill="#D507D3"/>
<path fill-rule="evenodd" clip-rule="evenodd" d="M17.134 22.7781C17.7853 22.7153 18.4374 22.8904 18.9736 23.2721C19.5097 23.6538 19.8949 24.2171 20.0604 24.8614C20.1299 25.2138 20.129 25.5768 20.0576 25.9288C19.9862 26.2808 19.8458 26.6145 19.6448 26.91C19.4439 27.2056 19.1865 27.4568 18.888 27.6489C18.5895 27.8409 18.256 27.9696 17.9075 28.0275C16.1874 28.3743 14.6767 27.1749 14.5762 25.6004C14.4784 24.1083 15.668 22.8918 17.134 22.7781Z" fill="#6622CC"/>
<path fill-rule="evenodd" clip-rule="evenodd" d="M0 8.85465C0.022339 14.7009 4.34773 17.6141 8.62564 17.6141C11.728 17.6141 14.9224 16.2442 16.126 12.6716C16.7012 11.009 16.7012 9.36908 16.6062 7.65812H8.65077V11.458H12.2306C11.4627 13.0951 10.3569 13.5612 8.62564 13.5612C6.079 13.5612 4.43708 11.7025 4.43708 8.86318C4.43708 6.24558 5.90308 4.09409 8.62564 4.09409C10.3346 4.09409 11.4376 4.68241 12.1357 6.14895H16.3661C15.5479 1.88576 12.0156 0.106582 8.62564 0.081003C4.34773 0.0895294 0.022339 3.00839 0 8.85465ZM30.113 17.4265H34.3183V16.7899L26.723 0.0895291H24.8745L17.3016 16.7813V17.4265H21.5097L22.4954 15.2722H29.1412L30.113 17.4265ZM27.745 11.5234H23.8888L25.7876 7.02148L27.745 11.5234ZM38.9145 12.1828H34.7511C34.6534 19.7173 48.3527 19.5951 48.3527 12.4016C48.3527 8.12138 45.0857 7.60696 41.746 7.24032C40.2297 7.0698 38.9815 6.79979 39.0765 5.50378C39.2217 3.4745 43.7397 3.2784 43.7397 5.5521H47.825C47.9227 -1.83743 34.846 -1.83743 34.9801 5.5521C35.0275 9.27244 37.4318 10.5429 41.0842 10.8129C42.7596 10.9095 44.1558 11.1795 44.1558 12.3789C44.1726 14.3854 38.9145 14.3598 38.9145 12.1828ZM60.695 11.8645V7.95085H55.275V4.20777H61.3792V0.294163H50.9022V17.4265H55.275V11.8645H60.695ZM80.3282 8.88023C80.3282 -2.96008 63.0741 -2.96008 63.0741 8.88023C63.0741 20.7205 80.3282 20.7433 80.3282 8.88023ZM67.4833 8.88023C67.4833 2.71565 75.9191 2.71565 75.9191 8.88023C75.9191 15.0931 67.4833 15.0931 67.4833 8.88023ZM93.874 11.35C98.1268 8.41696 96.9261 0.319742 90.3166 0.294163H82.9391V17.4265H87.2393V12.3789H89.4733L92.3578 17.4265H97.1662V16.7899L93.874 11.35ZM90.3166 8.48801H87.2449V4.20777C88.2558 4.20777 89.3113 4.18503 90.3166 4.20777C92.7683 4.23335 92.6482 8.48801 90.3166 8.48801ZM101.637 4.20777V17.4265H105.89V4.20777H110V0.294163H97.5013V4.20777H101.637Z" fill="black"/>
<path fill-rule="evenodd" clip-rule="evenodd" d="M107.328 23.9125C107.328 23.9125 106.004 42.8297 78.2649 37.6059C43.6394 31.0889 48.6657 25.129 27.9183 32.3821C5.11022 40.3542 3.32031 26.3141 3.32031 26.3141C3.32031 26.3141 11.4182 34.6444 25.5895 29.2415C31.42 27.019 38.9203 20.8288 48.3278 20.9823C61.2397 21.1955 59.7263 33.3967 75.9723 33.553C85.5446 33.6468 95.921 25.3109 96.2254 25.3649C96.2673 25.3847 107.118 22.4574 107.328 23.9125Z" fill="url(#paint0_linear_105_552)"/>
<path fill-rule="evenodd" clip-rule="evenodd" d="M8.52228 36.602C8.52228 36.602 18.2733 43.0564 30.6323 37.0567C41.3578 31.8528 46.1495 33.1516 50.824 34.3624C60.4213 36.8464 66.344 46.0151 79.443 41.6269C84.6312 39.8846 85.3963 32.1228 85.3963 32.1228C85.3963 32.1228 73.1937 22.0389 60.5442 29.8917L47.071 28.8828L36.0104 30.9973C36.0104 30.9973 14.5371 39.3958 4.45659 26.4925C4.06565 25.9923 2.93195 25.9241 2.60245 25.6058C1.64746 24.6565 1.25652 23.7783 1.17555 24.2273C0.619863 27.3452 2.68901 32.9186 8.52228 36.602Z" fill="url(#paint1_linear_105_552)"/>
<path fill-rule="evenodd" clip-rule="evenodd" d="M5.10761 31.0685C5.10761 31.0685 12.7503 38.1426 25.397 34.4251C37.5913 30.8383 41.5928 29.2013 50.2882 30.5769C60.62 32.2082 64.6829 42.5138 73.1857 42.6332C80.5799 42.7412 83.537 39.791 89.5993 32.6999C93.4025 28.252 97.3286 24.3043 105.837 24.0485C108.805 23.9575 107.191 23.2157 103.408 23.031C98.8923 22.8122 90.9173 23.5028 83.7576 29.5679C71.1584 40.2344 63.6525 20.0269 34.9134 29.6731C16.1096 35.9854 9.40508 30.7502 2.19237 24.5572C0.341028 22.9713 1.65344 25.93 1.65344 25.93C1.65344 25.93 3.30932 29.4713 5.10761 31.0685Z" fill="url(#paint2_linear_105_552)"/>
<path fill-rule="evenodd" clip-rule="evenodd" d="M96.3676 39.0754C97.0877 39.0472 97.7923 39.294 98.343 39.7672C98.8936 40.2404 99.2507 40.906 99.3442 41.6333C99.4308 42.3533 99.2585 43.0808 98.8592 43.6815C98.4599 44.2823 97.8605 44.7157 97.1718 44.9018C96.808 45.0005 96.4287 45.0253 96.0555 44.9747C95.6823 44.9242 95.3226 44.7992 94.9968 44.6071C94.6711 44.4149 94.3858 44.1593 94.1572 43.8548C93.9286 43.5504 93.7612 43.2031 93.6645 42.8327C93.6366 42.725 93.6142 42.6159 93.5975 42.5059C93.4769 41.7292 93.6641 40.9355 94.1181 40.2992C94.572 39.6629 95.2555 39.236 96.0185 39.1124C96.1338 39.0916 96.2505 39.0793 96.3676 39.0754Z" fill="#FADD2E"/>
<path fill-rule="evenodd" clip-rule="evenodd" d="M36.3624 38.0085C36.3624 38.0085 33.073 41.2201 36.6584 42.1637C40.5482 43.1897 42.6788 36.3146 54.1136 41.8795C54.1136 41.8681 44.1727 31.5569 36.3624 38.0085Z" fill="#781ECD"/>
<defs>
<linearGradient id="paint0_linear_105_552" x1="53.8288" y1="20.5503" x2="59.6089" y2="38.0262" gradientUnits="userSpaceOnUse">
<stop stop-color="#F9C540"/>
<stop offset="1" stop-color="#FAE925"/>
</linearGradient>
<linearGradient id="paint1_linear_105_552" x1="47.529" y1="22.9939" x2="35.3043" y2="41.4893" gradientUnits="userSpaceOnUse">
<stop stop-color="#811CCE"/>
<stop offset="0.68" stop-color="#F500D5"/>
<stop offset="1" stop-color="#F500D5"/>
</linearGradient>
<linearGradient id="paint2_linear_105_552" x1="107.373" y1="33.166" x2="1.24464" y2="31.3471" gradientUnits="userSpaceOnUse">
<stop stop-color="#5409EA"/>
<stop offset="0.49" stop-color="#FD00F7"/>
<stop offset="1" stop-color="#FD00F7"/>
</linearGradient>
</defs>
</svg>
