<svg width="748" height="394" viewBox="0 0 748 394" fill="none" xmlns="http://www.w3.org/2000/svg">
<line opacity="0.1" x1="351.446" y1="-81.2659" x2="476.766" y2="95.3528" stroke="#005944"/>
<line opacity="0.1" x1="476.67" y1="95.1399" x2="693.42" y2="214.249" stroke="#005944"/>
<line opacity="0.1" x1="506.71" y1="262.05" x2="475.852" y2="95.7067" stroke="#005944"/>
<line opacity="0.1" x1="506.903" y1="261.558" x2="705.217" y2="114.157" stroke="#005944"/>
<line opacity="0.1" x1="506.801" y1="262.259" x2="323.138" y2="16.8953" stroke="#005944"/>
<line opacity="0.1" x1="275.26" y1="178.585" x2="247.887" y2="-177.214" stroke="#005944"/>
<line opacity="0.1" x1="275.279" y1="178.405" x2="352.154" y2="-81.8454" stroke="#005944"/>
<line opacity="0.1" x1="275.568" y1="178.085" x2="476.168" y2="95.18" stroke="#005944"/>
<line opacity="0.1" x1="476.36" y1="95.1287" x2="705.626" y2="114.139" stroke="#005944"/>
<line opacity="0.1" x1="692.683" y1="214.626" x2="705.088" y2="114.578" stroke="#005944"/>
<line opacity="0.1" x1="476.128" y1="96.088" x2="90.211" y2="-104.907" stroke="#005944"/>
<circle cx="476.557" cy="95.0516" r="6.38006" transform="rotate(65.5241 476.557 95.0516)" fill="#BDD3CE"/>
<circle cx="323.739" cy="16.0047" r="6.38006" transform="rotate(65.5241 323.739 16.0047)" fill="#BDD3CE"/>
<circle cx="693.392" cy="214.122" r="6.38006" transform="rotate(65.5241 693.392 214.122)" fill="#00D9A4"/>
<circle cx="507.627" cy="260.833" r="4.25337" transform="rotate(65.5241 507.627 260.833)" fill="#BDD3CE"/>
<circle cx="705.585" cy="114.635" r="4.25337" transform="rotate(65.5241 705.585 114.635)" fill="#BDD3CE"/>
<circle cx="621.553" cy="175.811" r="4.25337" transform="rotate(65.5241 621.553 175.811)" fill="#BDD3CE"/>
<circle cx="404.06" cy="125.717" r="4.25337" transform="rotate(65.5241 404.06 125.717)" fill="#00D9A4"/>
<circle cx="277.362" cy="175.915" r="4.25337" transform="rotate(65.5241 277.362 175.915)" fill="#BDD3CE"/>
</svg>
