<svg width="337" height="891" viewBox="0 0 337 891" fill="none" xmlns="http://www.w3.org/2000/svg">
<line opacity="0.1" y1="-0.5" x2="216.563" y2="-0.5" transform="matrix(0.592205 -0.805787 -0.805787 -0.592205 -64.7559 476.021)" stroke="#005944"/>
<line opacity="0.1" y1="-0.5" x2="247.321" y2="-0.5" transform="matrix(0.884305 -0.466909 -0.466909 -0.884305 63.5635 301.584)" stroke="#005944"/>
<line opacity="0.1" y1="-0.5" x2="163.011" y2="-0.5" transform="matrix(0.760125 -0.649777 -0.649777 -0.760125 8.81055 656.062)" stroke="#005944"/>
<line opacity="0.1" y1="-0.5" x2="169.182" y2="-0.5" transform="matrix(-0.198776 0.980045 0.980045 0.198776 97.1074 135.74)" stroke="#005944"/>
<line opacity="0.1" y1="-0.5" x2="247.094" y2="-0.5" transform="matrix(0.792521 0.609845 0.609845 -0.792521 97.1074 135.74)" stroke="#005944"/>
<line opacity="0.1" y1="-0.5" x2="306.489" y2="-0.5" transform="matrix(-0.612521 0.790454 0.790454 0.612521 97.1074 135.74)" stroke="#005944"/>
<line opacity="0.1" y1="-0.5" x2="235.637" y2="-0.5" transform="matrix(0.903097 0.429436 0.429436 -0.903097 -202.807 554.496)" stroke="#005944"/>
<line opacity="0.1" y1="-0.5" x2="193.298" y2="-0.5" transform="matrix(0.378546 0.925582 0.925582 -0.378546 -63.1729 476.773)" stroke="#005944"/>
<line opacity="0.1" y1="-0.5" x2="217.057" y2="-0.5" transform="matrix(0.917683 0.397314 0.397314 -0.917683 -135.694 215.279)" stroke="#005944"/>
<line opacity="0.1" y1="-0.5" x2="230.053" y2="-0.5" transform="matrix(0.99782 -0.0659962 -0.0659962 -0.99782 63.4541 301.533)" stroke="#005944"/>
<line opacity="0.1" y1="-0.5" x2="100.814" y2="-0.5" transform="matrix(0.106474 0.994315 0.994315 -0.106474 282.271 186.105)" stroke="#005944"/>
<line opacity="0.1" y1="-0.5" x2="435.121" y2="-0.5" transform="matrix(-0.8945 0.447068 0.447068 0.8945 63.4941 301.516)" stroke="#005944"/>
<line opacity="0.1" y1="-0.5" x2="210.027" y2="-0.5" transform="matrix(-0.936351 -0.351065 -0.351065 0.936351 131.938 549.803)" stroke="#005944"/>
<line opacity="0.1" y1="-0.5" x2="302.607" y2="-0.5" transform="matrix(0.997741 -0.067186 -0.067186 -0.997741 -169.205 570.475)" stroke="#005944"/>
<circle r="6.38006" transform="matrix(0.429436 -0.903097 -0.903097 -0.429436 10.1499 654.381)" fill="#BDD3CE"/>
<circle r="6.38006" transform="matrix(0.429436 -0.903097 -0.903097 -0.429436 63.6831 302.112)" fill="#BDD3CE"/>
<circle r="6.38006" transform="matrix(0.429436 -0.903097 -0.903097 -0.429436 282.473 186.676)" fill="#00D9A4"/>
<circle r="4.25337" transform="matrix(0.429436 -0.903097 -0.903097 -0.429436 97.5137 136.873)" fill="#BDD3CE"/>
<circle r="4.25337" transform="matrix(0.429436 -0.903097 -0.903097 -0.429436 293.006 286.352)" fill="#BDD3CE"/>
<circle r="4.25337" transform="matrix(0.429436 -0.903097 -0.903097 -0.429436 210.006 223.783)" fill="#BDD3CE"/>
<circle r="4.25337" transform="matrix(0.429436 -0.903097 -0.903097 -0.429436 131.936 549.803)" fill="#BDD3CE"/>
</svg>
