<svg width="495" height="861" viewBox="0 0 495 861" fill="none" xmlns="http://www.w3.org/2000/svg">
<line opacity="0.1" x1="464.73" y1="400.276" x2="333.284" y2="572.385" stroke="#005944"/>
<line opacity="0.1" x1="333.459" y1="572.229" x2="284.075" y2="814.569" stroke="#005944"/>
<line opacity="0.1" x1="182.994" y1="650.472" x2="332.675" y2="571.616" stroke="#005944"/>
<line opacity="0.1" x1="183.522" y1="650.51" x2="383.157" y2="796.117" stroke="#005944"/>
<line opacity="0.1" x1="182.823" y1="650.621" x2="362.591" y2="402.39" stroke="#005944"/>
<line opacity="0.1" x1="465.551" y1="400.784" x2="657.815" y2="420.746" stroke="#005944"/>
<line opacity="0.1" x1="193.976" y1="404.678" x2="525.604" y2="272.9" stroke="#005944"/>
<line opacity="0.1" x1="194.154" y1="404.643" x2="465.494" y2="400.782" stroke="#005944"/>
<line opacity="0.1" x1="194.546" y1="404.823" x2="333.271" y2="571.763" stroke="#005944"/>
<line opacity="0.1" x1="333.379" y1="571.931" x2="383.296" y2="796.503" stroke="#005944"/>
<line opacity="0.1" x1="283.495" y1="813.979" x2="382.715" y2="796.119" stroke="#005944"/>
<line opacity="0.1" x1="332.392" y1="571.993" x2="409.742" y2="143.802" stroke="#005944"/>
<line opacity="0.1" x1="590" y1="568.318" x2="463.988" y2="400.293" stroke="#005944"/>
<line opacity="0.1" x1="465.01" y1="401.386" x2="409.748" y2="143.996" stroke="#005944"/>
<line opacity="0.1" x1="410.611" y1="143.558" x2="501.239" y2="245.106" stroke="#005944"/>
<line opacity="0.1" x1="625.855" y1="237.927" x2="410.038" y2="144.349" stroke="#005944"/>
<circle cx="333.509" cy="572.096" r="6.38006" transform="rotate(138.252 333.509 572.096)" fill="#BDD3CE"/>
<circle cx="363.62" cy="402.699" r="6.38006" transform="rotate(138.252 363.62 402.699)" fill="#BDD3CE"/>
<circle cx="284.188" cy="814.506" r="6.38006" transform="rotate(138.252 284.188 814.506)" fill="#00D9A4"/>
<circle cx="465.523" cy="401.26" r="4.25337" transform="rotate(138.252 465.523 401.26)" fill="#BDD3CE"/>
<circle cx="184.429" cy="650.985" r="4.25337" transform="rotate(138.252 184.429 650.985)" fill="#BDD3CE"/>
<circle cx="382.809" cy="796.61" r="4.25337" transform="rotate(138.252 382.809 796.61)" fill="#BDD3CE"/>
<circle cx="299.442" cy="734.532" r="4.25337" transform="rotate(138.252 299.442 734.532)" fill="#BDD3CE"/>
<circle cx="375.384" cy="333.479" r="4.25337" transform="rotate(138.252 375.384 333.479)" fill="#BDD3CE"/>
<circle cx="444.419" cy="306.071" r="4.25337" transform="rotate(138.252 444.419 306.071)" fill="#00D9A4"/>
<circle r="4.25337" transform="matrix(-0.746081 0.665856 -0.665848 -0.746087 282.702 511.973)" fill="#00D9A4"/>
<circle cx="411.854" cy="147.576" r="6.38006" transform="rotate(138.252 411.854 147.576)" fill="#BDD3CE"/>
<circle cx="197.15" cy="405.891" r="4.25337" transform="rotate(138.252 197.15 405.891)" fill="#BDD3CE"/>
</svg>
