<svg width="281" height="891" viewBox="0 0 281 891" fill="none" xmlns="http://www.w3.org/2000/svg">
<line opacity="0.1" x1="400.654" y1="476.318" x2="272.404" y2="301.814" stroke="#005944"/>
<line opacity="0.1" x1="272.504" y1="302.026" x2="53.7967" y2="186.55" stroke="#005944"/>
<line opacity="0.1" x1="327.165" y1="656.443" x2="203.256" y2="550.522" stroke="#005944"/>
<line opacity="0.1" x1="239.683" y1="135.641" x2="273.313" y2="301.446" stroke="#005944"/>
<line opacity="0.1" x1="239.498" y1="136.136" x2="43.6713" y2="286.825" stroke="#005944"/>
<line opacity="0.1" x1="239.589" y1="135.434" x2="427.319" y2="377.699" stroke="#005944"/>
<line opacity="0.1" x1="472.194" y1="215.738" x2="273.004" y2="301.978" stroke="#005944"/>
<line opacity="0.1" x1="272.814" y1="302.032" x2="43.2623" y2="286.849" stroke="#005944"/>
<line opacity="0.1" x1="54.5265" y1="186.159" x2="43.7923" y2="286.4" stroke="#005944"/>
<line opacity="0.1" x1="273.03" y1="301.068" x2="662.246" y2="495.597" stroke="#005944"/>
<line opacity="0.1" x1="204.187" y1="549.335" x2="400.846" y2="475.601" stroke="#005944"/>
<line opacity="0.1" x1="505.472" y1="570.973" x2="203.549" y2="550.643" stroke="#005944"/>
<circle cx="272.618" cy="302.112" r="6.38006" transform="rotate(-115.432 272.618 302.112)" fill="#BDD3CE"/>
<circle cx="53.8277" cy="186.676" r="6.38006" transform="rotate(-115.432 53.8277 186.676)" fill="#00D9A4"/>
<circle cx="238.787" cy="136.873" r="4.25337" transform="rotate(-115.432 238.787 136.873)" fill="#BDD3CE"/>
<circle cx="43.2949" cy="286.352" r="4.25337" transform="rotate(-115.432 43.2949 286.352)" fill="#BDD3CE"/>
<circle cx="126.295" cy="223.783" r="4.25337" transform="rotate(-115.432 126.295 223.783)" fill="#BDD3CE"/>
<circle cx="204.365" cy="549.803" r="4.25337" transform="rotate(-115.432 204.365 549.803)" fill="#BDD3CE"/>
</svg>
