<svg width="306" height="882" viewBox="0 0 306 882" fill="none" xmlns="http://www.w3.org/2000/svg">
<line opacity="0.1" x1="77.9346" y1="129.146" x2="-21.1384" y2="266.285" stroke="#005944"/>
<line opacity="0.1" x1="77.4448" y1="129.346" x2="-166.093" y2="87.5749" stroke="#005944"/>
<line opacity="0.1" x1="78.0224" y1="128.936" x2="27.232" y2="431.187" stroke="#005944"/>
<line opacity="0.1" x1="177.281" y1="354.237" x2="-61.2928" y2="619.613" stroke="#005944"/>
<line opacity="0.1" x1="177.138" y1="354.347" x2="-64.2456" y2="478.34" stroke="#005944"/>
<line opacity="0.1" x1="176.707" y1="354.359" x2="-21.7373" y2="266.419" stroke="#005944"/>
<line opacity="0.1" x1="-21.0522" y1="265.822" x2="99.8568" y2="683.807" stroke="#005944"/>
<line opacity="0.1" x1="-64.0811" y1="477.585" x2="99.7664" y2="683.638" stroke="#005944"/>
<line opacity="0.1" x1="99.1875" y1="684.413" x2="-27.1168" y2="633.693" stroke="#005944"/>
<line opacity="0.1" x1="-135.574" y1="695.479" x2="99.3493" y2="683.449" stroke="#005944"/>
<circle cx="26.1735" cy="431.367" r="6.38006" transform="rotate(-68.1208 26.1735 431.367)" fill="#BDD3CE"/>
<circle cx="76.4214" cy="129.324" r="4.25337" transform="rotate(-68.1208 76.4214 129.324)" fill="#BDD3CE"/>
<circle cx="46.3816" cy="498.609" r="4.25337" transform="rotate(-68.1208 46.3816 498.609)" fill="#BDD3CE"/>
<circle cx="-3.29341" cy="553.831" r="4.25337" transform="rotate(-68.1208 -3.29341 553.831)" fill="#00D9A4"/>
<circle cx="50.1287" cy="297.523" r="4.25337" transform="rotate(-68.1208 50.1287 297.523)" fill="#00D9A4"/>
<circle cx="96.2883" cy="681.365" r="6.38006" transform="rotate(-68.1208 96.2883 681.365)" fill="#BDD3CE"/>
<circle cx="173.899" cy="354.56" r="4.25337" transform="rotate(-68.1208 173.899 354.56)" fill="#BDD3CE"/>
</svg>
