<svg width="25" height="25" viewBox="0 0 25 25" fill="none" xmlns="http://www.w3.org/2000/svg">
<path d="M0.769043 5.63928V19.3373C0.769043 22.0268 2.94929 24.207 5.63879 24.207H19.3368C22.0263 24.207 24.2065 22.0268 24.2065 19.3373V5.63928C24.2065 2.94977 22.0263 0.769531 19.3368 0.769531H5.63879C2.94929 0.769531 0.769043 2.94977 0.769043 5.63928ZM14.9704 19.129C9.18961 21.1236 3.85251 15.7865 5.84707 10.0056C6.51913 8.05727 8.05664 6.51962 10.005 5.84756C15.786 3.853 21.1231 9.19009 19.1285 14.9711C18.4565 16.9194 16.9189 18.4569 14.9704 19.129ZM20.6204 5.40124C20.5284 5.88289 20.1299 6.16313 19.7176 6.16313C19.4667 6.16313 19.2109 6.05956 19.0151 5.83483C18.9978 5.81495 18.9816 5.79363 18.9673 5.77146C18.7652 5.46247 18.7589 5.0954 18.9307 4.79771C19.0523 4.58699 19.2485 4.4365 19.4836 4.37356C19.7183 4.31033 19.9638 4.34281 20.1742 4.46454C20.472 4.6362 20.65 4.95735 20.6297 5.32557C20.6283 5.35074 20.6253 5.37635 20.6204 5.40124Z" fill="#005944"/>
<path d="M12.4879 6.79492C9.34822 6.79492 6.79419 9.34896 6.79419 12.4886C6.79419 15.6283 9.34822 18.1824 12.4879 18.1824C15.6276 18.1824 18.1816 15.6283 18.1816 12.4886C18.1816 9.34896 15.6276 6.79492 12.4879 6.79492Z" fill="#005944"/>
</svg>
