<svg width="285" height="786" viewBox="0 0 285 786" fill="none" xmlns="http://www.w3.org/2000/svg">
<line opacity="0.1" y1="-0.5" x2="251.653" y2="-0.5" transform="matrix(-0.626943 -0.779065 0.887082 -0.461612 380.341 758.906)" stroke="#005944"/>
<line opacity="0.1" x1="269.634" y1="429.776" x2="216.242" y2="219.898" stroke="#005944"/>
<line opacity="0.1" x1="216.255" y1="220.131" x2="56.8661" y2="31.0206" stroke="#005944"/>
<line opacity="0.1" x1="133.921" y1="569.16" x2="58.8164" y2="424.481" stroke="#005944"/>
<line opacity="0.1" x1="248.272" y1="53.5898" x2="217.223" y2="219.898" stroke="#005944"/>
<line opacity="0.1" x1="247.915" y1="53.9798" x2="9.85088" y2="120.169" stroke="#005944"/>
<line opacity="0.1" x1="248.262" y1="53.3625" x2="331.359" y2="348.371" stroke="#005944"/>
<line opacity="0.1" x1="368.66" y1="554.696" x2="133.436" y2="568.634" stroke="#005944"/>
<line opacity="0.1" x1="268.727" y1="430.105" x2="133.763" y2="568.484" stroke="#005944"/>
<line opacity="0.1" x1="434.118" y1="214.891" x2="268.764" y2="430.061" stroke="#005944"/>
<line opacity="0.1" x1="433.733" y1="215.086" x2="216.738" y2="220.274" stroke="#005944"/>
<line opacity="0.1" x1="216.54" y1="220.255" x2="9.46228" y2="120.039" stroke="#005944"/>
<line opacity="0.1" x1="57.6894" y1="30.9332" x2="10.1227" y2="119.82" stroke="#005944"/>
<line opacity="0.1" x1="217.103" y1="219.441" x2="504.874" y2="545.812" stroke="#005944"/>
<line opacity="0.1" x1="60.1248" y1="423.729" x2="270.081" y2="429.183" stroke="#005944"/>
<line opacity="0.1" x1="268.59" y1="429.307" x2="504.72" y2="545.697" stroke="#005944"/>
<line opacity="0.1" x1="331.271" y1="556.848" x2="59.0433" y2="424.702" stroke="#005944"/>
<circle cx="133.755" cy="566.867" r="6.38006" transform="rotate(-93.391 133.755 566.867)" fill="#BDD3CE"/>
<circle cx="216.329" cy="220.254" r="6.38006" transform="rotate(-93.391 216.329 220.254)" fill="#BDD3CE"/>
<circle cx="204.859" cy="494.051" r="4.25337" transform="rotate(-93.391 204.859 494.051)" fill="#00D9A4"/>
<circle cx="56.847" cy="31.1502" r="6.38006" transform="rotate(-93.391 56.847 31.1502)" fill="#00D9A4"/>
<circle cx="268.371" cy="429.788" r="4.25337" transform="rotate(-93.391 268.371 429.788)" fill="#BDD3CE"/>
<circle cx="246.979" cy="54.3951" r="4.25337" transform="rotate(-93.391 246.979 54.3951)" fill="#BDD3CE"/>
<circle cx="9.67988" cy="119.588" r="4.25337" transform="rotate(-93.391 9.67988 119.588)" fill="#BDD3CE"/>
<circle cx="110.094" cy="92.7388" r="4.25337" transform="rotate(-93.391 110.094 92.7388)" fill="#BDD3CE"/>
<circle cx="60.1149" cy="424.231" r="4.25337" transform="rotate(-93.391 60.1149 424.231)" fill="#BDD3CE"/>
<circle cx="222.623" cy="563.729" r="4.25337" transform="rotate(-93.391 222.623 563.729)" fill="#BDD3CE"/>
</svg>
