<svg width="85" height="85" viewBox="0 0 85 85" fill="none" xmlns="http://www.w3.org/2000/svg">
<rect x="10.5" y="6.5" width="64" height="64" rx="4.5" stroke="#00D9A4"/>
<mask id="mask0_234_5" style="mask-type:alpha" maskUnits="userSpaceOnUse" x="10" y="6" width="65" height="65">
<rect x="10.5" y="6.5" width="64" height="64" rx="4.5" stroke="#00D9A4"/>
</mask>
<g mask="url(#mask0_234_5)">
<path d="M85.3591 22.5723C83.1761 16.4788 79.8978 10.845 75.7114 5.99255C71.525 1.14013 66.5124 -2.83588 60.9599 -5.70847C55.4073 -8.58106 49.4235 -10.294 43.3501 -10.7494C37.2768 -11.2048 31.2327 -10.3939 25.5632 -8.36279C19.8936 -6.33173 14.7095 -3.12034 10.3069 1.08801C5.90429 5.29635 2.36936 10.4192 -0.0960593 16.1642C-2.56148 21.9091 -3.90909 28.1636 -4.06197 34.5706C-4.21484 40.9775 -3.16998 47.4114 -0.987039 53.5049L42.186 38.0386L85.3591 22.5723Z" fill="#CCE0DB"/>
</g>
<g filter="url(#filter0_d_234_5)">
<rect x="20" y="16" width="45" height="45" rx="5" fill="#00D9A4"/>
</g>
<path d="M49.2866 49.2422C48.9515 49.2423 48.6207 49.1666 48.3191 49.0205C41.1944 45.5604 35.4397 39.8057 31.9796 32.6811C31.7785 32.2633 31.7123 31.7934 31.7899 31.3363C31.8675 30.8793 32.0853 30.4576 32.413 30.1297L34.5474 27.9908C34.6209 27.9168 34.7083 27.8581 34.8046 27.8181C34.9009 27.7781 35.0042 27.7576 35.1085 27.7578C35.2128 27.7576 35.316 27.778 35.4123 27.8179C35.5087 27.8578 35.5961 27.9163 35.6696 27.9902L39.0964 31.4166C39.2273 31.5477 39.3083 31.7205 39.3252 31.905C39.3422 32.0896 39.2941 32.2742 39.1892 32.427L37.7947 34.457C40.0895 37.9355 43.0662 40.9122 46.5447 43.207L48.5743 41.8111C48.7271 41.7062 48.9117 41.658 49.0963 41.675C49.2808 41.6919 49.4536 41.7729 49.5847 41.9039L53.0099 45.3301C53.0837 45.4038 53.1422 45.4913 53.1821 45.5876C53.2221 45.684 53.2426 45.7872 53.2426 45.8915C53.2426 45.9958 53.2221 46.0991 53.1821 46.1954C53.1422 46.2917 53.0837 46.3792 53.0099 46.4529L50.871 48.5873C50.4505 49.0069 49.8807 49.2424 49.2866 49.2422Z" fill="white"/>
<path d="M51.8792 29.1572H43.7802C43.5555 29.1574 43.34 29.2468 43.181 29.4057C43.022 29.5646 42.9326 29.7801 42.9324 30.0049V34.9854C42.9326 35.2102 43.022 35.4257 43.1809 35.5846C43.3399 35.7436 43.5554 35.833 43.7802 35.8332H44.4851V37.6949C44.4849 37.7285 44.4948 37.7613 44.5135 37.7891C44.5321 37.817 44.5587 37.8386 44.5898 37.8512C44.6208 37.8639 44.655 37.8669 44.6878 37.8599C44.7206 37.8529 44.7505 37.8363 44.7738 37.8121L46.6796 35.833H51.8792C52.104 35.8327 52.3195 35.7433 52.4784 35.5844C52.6373 35.4254 52.7267 35.2099 52.7269 34.9852V30.0047C52.7266 29.78 52.6372 29.5646 52.4783 29.4057C52.3194 29.2468 52.1039 29.1575 51.8792 29.1572ZM45.8265 33.0309C45.6952 33.0309 45.5668 32.9919 45.4576 32.9189C45.3484 32.846 45.2633 32.7423 45.213 32.6209C45.1627 32.4996 45.1496 32.3661 45.1752 32.2372C45.2008 32.1084 45.2641 31.9901 45.357 31.8972C45.4498 31.8044 45.5681 31.7411 45.697 31.7155C45.8258 31.6899 45.9593 31.703 46.0806 31.7533C46.202 31.8035 46.3057 31.8887 46.3787 31.9979C46.4516 32.1071 46.4906 32.2355 46.4906 32.3668C46.4906 32.5429 46.4206 32.7118 46.2961 32.8364C46.1715 32.9609 46.0026 33.0309 45.8265 33.0309ZM47.8296 33.0309C47.6983 33.0309 47.5699 32.9919 47.4607 32.9189C47.3515 32.846 47.2664 32.7423 47.2161 32.6209C47.1659 32.4996 47.1527 32.3661 47.1783 32.2372C47.204 32.1084 47.2672 31.9901 47.3601 31.8972C47.4529 31.8044 47.5713 31.7411 47.7001 31.7155C47.8289 31.6899 47.9624 31.703 48.0838 31.7533C48.2051 31.8035 48.3088 31.8887 48.3818 31.9979C48.4548 32.1071 48.4937 32.2355 48.4937 32.3668C48.4937 32.5429 48.4237 32.7118 48.2992 32.8364C48.1747 32.9609 48.0058 33.0309 47.8296 33.0309ZM49.833 33.0309C49.7016 33.0309 49.5732 32.9919 49.464 32.9189C49.3548 32.846 49.2697 32.7423 49.2194 32.6209C49.1692 32.4996 49.156 32.3661 49.1817 32.2372C49.2073 32.1084 49.2705 31.9901 49.3634 31.8972C49.4563 31.8044 49.5746 31.7411 49.7034 31.7155C49.8322 31.6899 49.9657 31.703 50.0871 31.7533C50.2084 31.8035 50.3121 31.8887 50.3851 31.9979C50.4581 32.1071 50.497 32.2355 50.497 32.3668C50.497 32.454 50.4798 32.5404 50.4465 32.6209C50.4131 32.7015 50.3642 32.7747 50.3025 32.8364C50.2409 32.898 50.1677 32.9469 50.0871 32.9803C50.0065 33.0137 49.9202 33.0309 49.833 33.0309Z" fill="white"/>
<defs>
<filter id="filter0_d_234_5" x="0" y="0" width="85" height="85" filterUnits="userSpaceOnUse" color-interpolation-filters="sRGB">
<feFlood flood-opacity="0" result="BackgroundImageFix"/>
<feColorMatrix in="SourceAlpha" type="matrix" values="0 0 0 0 0 0 0 0 0 0 0 0 0 0 0 0 0 0 127 0" result="hardAlpha"/>
<feOffset dy="4"/>
<feGaussianBlur stdDeviation="10"/>
<feComposite in2="hardAlpha" operator="out"/>
<feColorMatrix type="matrix" values="0 0 0 0 0.0991667 0 0 0 0 0.35 0 0 0 0 0.290815 0 0 0 0.08 0"/>
<feBlend mode="normal" in2="BackgroundImageFix" result="effect1_dropShadow_234_5"/>
<feBlend mode="normal" in="SourceGraphic" in2="effect1_dropShadow_234_5" result="shape"/>
</filter>
</defs>
</svg>
