<svg width="191" height="675" viewBox="0 0 191 675" fill="none" xmlns="http://www.w3.org/2000/svg">
<line opacity="0.1" x1="81.2561" y1="-105.211" x2="-31.4719" y2="45.7231" stroke="#005944"/>
<line opacity="0.1" x1="81.3472" y1="-105.419" x2="19.4571" y2="230.198" stroke="#005944"/>
<line opacity="0.1" x1="187.9" y1="147.149" x2="-82.4101" y2="438.392" stroke="#005944"/>
<line opacity="0.1" x1="187.755" y1="147.257" x2="-83.1845" y2="281.039" stroke="#005944"/>
<line opacity="0.1" x1="187.323" y1="147.262" x2="-32.0629" y2="45.8454" stroke="#005944"/>
<line opacity="0.1" x1="-31.3691" y1="45.2554" x2="95.8589" y2="512.761" stroke="#005944"/>
<line opacity="0.1" x1="-83.0081" y1="280.285" x2="95.7717" y2="512.592" stroke="#005944"/>
<line opacity="0.1" x1="95.1813" y1="513.361" x2="-44.5446" y2="454.659" stroke="#005944"/>
<line opacity="0.1" x1="-133.05" y1="664.242" x2="95.0966" y2="512.482" stroke="#005944"/>
<circle cx="91.9791" cy="509.968" r="7.10421" transform="rotate(-67.2114 91.9791 509.968)" fill="#BDD3CE"/>
<circle cx="18.3404" cy="230.388" r="7.10421" transform="rotate(-67.2114 18.3404 230.388)" fill="#00D9A4"/>
<circle cx="39.6501" cy="305.613" r="4.73614" transform="rotate(-67.2114 39.6501 305.613)" fill="#BDD3CE"/>
<circle cx="184.166" cy="147.482" r="4.73614" transform="rotate(-67.2114 184.166 147.482)" fill="#BDD3CE"/>
<circle cx="47.3728" cy="81.7962" r="4.73614" transform="rotate(-67.2114 47.3728 81.7962)" fill="#00D9A4"/>
</svg>
