<svg width="85" height="85" viewBox="0 0 85 85" fill="none" xmlns="http://www.w3.org/2000/svg">
<rect x="10.5" y="6.5" width="64" height="64" rx="4.5" stroke="#00D9A4"/>
<mask id="mask0_202_5" style="mask-type:alpha" maskUnits="userSpaceOnUse" x="10" y="6" width="65" height="65">
<rect x="10.5" y="6.5" width="64" height="64" rx="4.5" stroke="#00D9A4"/>
</mask>
<g mask="url(#mask0_202_5)">
<path d="M-1.77823 34.2871C-2.7267 40.2343 -2.49449 46.3102 -1.09485 52.1676C0.304788 58.0251 2.84444 63.5496 6.37909 68.4256C9.91376 73.3016 14.3742 77.4336 19.5058 80.5858C24.6373 83.738 30.3395 85.8486 36.2868 86.7971C42.234 87.7455 48.3098 87.5133 54.1673 86.1137C60.0248 84.714 65.5492 82.1744 70.4252 78.6397C75.3012 75.1051 79.4333 70.6446 82.5855 65.513C85.7377 60.3815 87.8482 54.6793 88.7967 48.7321L43.5092 41.5096L-1.77823 34.2871Z" fill="#CCE0DB"/>
</g>
<g filter="url(#filter0_d_202_5)">
<rect x="20" y="16" width="45" height="45" rx="5" fill="#00D9A4"/>
</g>
<g clip-path="url(#clip0_202_5)">
<path d="M43.7617 44.3281L43.4961 44.8516C43.4799 44.8838 43.455 44.9109 43.4243 44.9298C43.3937 44.9488 43.3583 44.9589 43.3223 44.959H41.6816C41.6452 44.9592 41.6095 44.9493 41.5784 44.9303C41.5474 44.9114 41.5222 44.8841 41.5059 44.8516L41.2402 44.3281L42.5 43.3516L43.7617 44.3281Z" fill="white"/>
<path d="M42.1856 43.0957L40.4629 44.4395C40.4288 44.4659 40.3869 44.4803 40.3438 44.4805H40.3164C40.2909 44.4766 40.2663 44.4678 40.2441 44.4543C40.222 44.4409 40.2028 44.4233 40.1875 44.4023L37.9336 41.3535C37.906 41.3159 37.8927 41.2695 37.8963 41.2229C37.8999 41.1764 37.9201 41.1326 37.9532 41.0996L38.6661 40.3887C38.7058 40.4749 38.767 40.5495 38.8438 40.6055L42.1641 43.0762L42.1856 43.0957Z" fill="white"/>
<path d="M47.0644 41.3535L44.8145 44.4004C44.7992 44.4213 44.78 44.439 44.7578 44.4524C44.7357 44.4658 44.7111 44.4747 44.6855 44.4785H44.6582C44.615 44.4784 44.5732 44.464 44.5391 44.4375L42.8145 43.0937L42.8535 43.0703L46.1621 40.6035C46.2371 40.5476 46.2969 40.4737 46.3359 40.3887L47.0488 41.0996C47.0813 41.1331 47.1008 41.1771 47.1036 41.2237C47.1065 41.2702 47.0926 41.3163 47.0644 41.3535Z" fill="white"/>
<path d="M43.9492 51.0039H41.0527L41.7988 45.3496H43.2012L43.9492 51.0039Z" fill="white"/>
<path d="M41.416 45.2852L40.6562 51H31.0976C31.0699 51 31.0425 50.994 31.0172 50.9826C30.992 50.9711 30.9694 50.9544 30.9511 50.9336C30.9324 50.9129 30.9184 50.8884 30.91 50.8617C30.9016 50.8351 30.8989 50.807 30.9023 50.7793L31.7324 44.4395C31.7887 44.0044 31.9681 43.5945 32.2494 43.2579C32.5307 42.9212 32.9022 42.6719 33.3203 42.5391L37.5 41.2188C37.4949 41.3511 37.5364 41.481 37.6171 41.5859L39.8711 44.6289C39.959 44.7525 40.0925 44.8361 40.2421 44.8613C40.2755 44.8684 40.3096 44.8717 40.3437 44.8711C40.4736 44.8717 40.6 44.8291 40.7031 44.75L40.9375 44.5742L41.166 45.0254C41.2199 45.1361 41.3074 45.227 41.416 45.2852Z" fill="white"/>
<path d="M54.0957 50.7832C54.0996 50.8106 54.0976 50.8386 54.0898 50.8652C54.0821 50.8918 54.0688 50.9164 54.0508 50.9375C54.0325 50.9583 54.0099 50.975 53.9847 50.9865C53.9594 50.9979 53.932 51.0039 53.9043 51.0039H44.3477L43.5879 45.2852C43.6987 45.2296 43.788 45.139 43.8418 45.0273L44.0762 44.5723L44.2891 44.7402C44.3935 44.8249 44.5238 44.8711 44.6582 44.8711C44.6868 44.8737 44.7156 44.8737 44.7441 44.8711C44.8214 44.8603 44.8958 44.8342 44.9629 44.7943C45.03 44.7544 45.0884 44.7015 45.1348 44.6387L47.3828 41.5918C47.4648 41.4851 47.5076 41.3533 47.5039 41.2188L51.6797 42.5391C52.0979 42.6723 52.4696 42.9217 52.7515 43.2582C53.0333 43.5947 53.2137 44.0044 53.2715 44.4395L54.0957 50.7832Z" fill="white"/>
<path d="M46.0039 39.2461V40.1367C46.0039 40.167 45.9968 40.1969 45.9833 40.2241C45.9697 40.2512 45.95 40.2748 45.9258 40.293L42.6191 42.7598C42.585 42.7845 42.5441 42.7982 42.502 42.7988C42.4597 42.7988 42.4186 42.7851 42.3848 42.7598L39.0781 40.293C39.0539 40.2748 39.0342 40.2512 39.0206 40.2241C39.0071 40.1969 39 40.167 39 40.1367V39.248C40.0145 39.9958 41.2417 40.3992 42.502 40.3992C43.7622 40.3992 44.9894 39.9958 46.0039 39.248V39.2461Z" fill="white"/>
<path d="M49.0078 32.3379L48.918 33.6797C48.9098 33.8347 48.8582 33.9842 48.7691 34.1113C48.68 34.2384 48.557 34.3379 48.4141 34.3984C48.4141 34.3984 48.4453 31.6113 48.4648 31.5195C48.5875 31.5632 48.698 31.6355 48.7871 31.7305C48.8625 31.8119 48.9209 31.9076 48.9588 32.0119C48.9967 32.1162 49.0134 32.227 49.0078 32.3379Z" fill="white"/>
<path d="M36.5879 34.3984C36.4466 34.3387 36.3246 34.241 36.2353 34.1162C36.146 33.9915 36.093 33.8444 36.082 33.6914L35.9942 32.3477C35.9875 32.2352 36.0036 32.1226 36.0415 32.0165C36.0794 31.9105 36.1384 31.8132 36.2149 31.7305C36.3096 31.6289 36.4285 31.553 36.5606 31.5098L36.5879 34.3984Z" fill="white"/>
<path d="M48.0234 32.207V34.4863C47.9962 35.933 47.4024 37.3112 46.3697 38.3247C45.337 39.3381 43.9479 39.9059 42.501 39.9059C41.0541 39.9059 39.6649 39.3381 38.6322 38.3247C37.5995 37.3112 37.0057 35.933 36.9785 34.4863V32.2031C37.02 32.2192 37.0633 32.2303 37.1074 32.2363H37.1719C37.2865 32.2366 37.3986 32.2032 37.4944 32.1404C37.5902 32.0775 37.6655 31.988 37.7109 31.8828C37.7383 31.832 38.1719 31.1426 39.9805 31.1426C40.1621 31.1426 40.3555 31.1426 40.5547 31.1641C40.7051 31.1738 41.1113 31.1973 41.6387 31.1973C43.3008 31.1973 45.3496 30.9707 46.1309 29.9434C46.4609 30.0801 46.9863 30.5 47.2617 31.7754C47.2871 31.9069 47.3568 32.0257 47.4592 32.112C47.5615 32.1984 47.6903 32.2471 47.8242 32.25C47.8926 32.2471 47.9599 32.2325 48.0234 32.207Z" fill="white"/>
<path d="M48.0177 31.7035C48.0066 31.7465 47.9812 31.7844 47.9457 31.8111C47.9102 31.8377 47.8667 31.8514 47.8224 31.85C47.7769 31.851 47.7326 31.8362 47.6969 31.808C47.6613 31.7799 47.6366 31.7401 47.627 31.6957C47.2227 29.8188 46.2599 29.5473 45.9317 29.4985C45.2286 31.061 41.0489 30.811 40.5704 30.7778C37.8516 30.5824 37.3477 31.7153 37.3458 31.727C37.3302 31.7652 37.3029 31.7975 37.2678 31.8193C37.2327 31.841 37.1917 31.8511 37.1505 31.8481C37.1078 31.8429 37.0681 31.8239 37.0374 31.7939C37.0067 31.7639 36.9867 31.7246 36.9806 31.6821L36.6895 29.6235C36.622 29.1508 36.7021 28.6688 36.9189 28.2434C37.1356 27.8179 37.4784 27.4698 37.9005 27.2465C42.3048 24.9145 44.8438 26.4867 45.3458 26.8578C46.3224 26.5551 47.0841 26.643 47.5938 27.1215C48.8751 28.3266 48.0509 31.5668 48.0177 31.7035Z" fill="white"/>
</g>
<defs>
<filter id="filter0_d_202_5" x="0" y="0" width="85" height="85" filterUnits="userSpaceOnUse" color-interpolation-filters="sRGB">
<feFlood flood-opacity="0" result="BackgroundImageFix"/>
<feColorMatrix in="SourceAlpha" type="matrix" values="0 0 0 0 0 0 0 0 0 0 0 0 0 0 0 0 0 0 127 0" result="hardAlpha"/>
<feOffset dy="4"/>
<feGaussianBlur stdDeviation="10"/>
<feComposite in2="hardAlpha" operator="out"/>
<feColorMatrix type="matrix" values="0 0 0 0 0.0991667 0 0 0 0 0.35 0 0 0 0 0.290815 0 0 0 0.08 0"/>
<feBlend mode="normal" in2="BackgroundImageFix" result="effect1_dropShadow_202_5"/>
<feBlend mode="normal" in="SourceGraphic" in2="effect1_dropShadow_202_5" result="shape"/>
</filter>
<clipPath id="clip0_202_5">
<rect width="25" height="25" fill="white" transform="translate(30 26)"/>
</clipPath>
</defs>
</svg>
