<svg width="85" height="85" viewBox="0 0 85 85" fill="none" xmlns="http://www.w3.org/2000/svg">
<rect x="10.5" y="6.5" width="64" height="64" rx="4.5" stroke="#00D9A4"/>
<mask id="mask0_234_4" style="mask-type:alpha" maskUnits="userSpaceOnUse" x="10" y="6" width="65" height="65">
<rect x="10.5" y="6.5" width="64" height="64" rx="4.5" stroke="#00D9A4"/>
</mask>
<g mask="url(#mask0_234_4)">
<path d="M60.3427 -1.42656C54.5526 -4.17403 48.3107 -5.82294 41.9733 -6.27912C35.636 -6.73531 29.3273 -5.98984 23.4075 -4.08529C17.4876 -2.18074 12.0726 0.845602 7.47159 4.82094C2.87056 8.79629 -0.826386 13.6428 -3.40817 19.0837C-5.98995 24.5246 -7.406 30.4534 -7.57548 36.5316C-7.74496 42.6097 -6.66454 48.7182 -4.39591 54.5083C-2.12728 60.2984 1.28513 65.6566 5.64649 70.2771C10.0078 74.8976 15.2327 78.6898 21.0228 81.4373L40.6828 40.0054L60.3427 -1.42656Z" fill="#CCE0DB"/>
</g>
<g filter="url(#filter0_d_234_4)">
<rect x="20" y="16" width="45" height="45" rx="5" fill="#00D9A4"/>
</g>
<g clip-path="url(#clip0_234_4)">
<path d="M55 29.6035V48.0703C55 48.1221 54.9794 48.1718 54.9428 48.2084C54.9062 48.2451 54.8565 48.2656 54.8047 48.2656H45.0879C44.9922 48.9336 44.4102 49.3711 43.5762 49.3711H41.4277C40.5957 49.3711 40.0117 48.9336 39.918 48.2656H30.1953C30.1435 48.2656 30.0938 48.2451 30.0572 48.2084C30.0206 48.1718 30 48.1221 30 48.0703V29.6035C30 29.5517 30.0206 29.502 30.0572 29.4654C30.0938 29.4288 30.1435 29.4082 30.1953 29.4082H31.1719V46.5293C31.1721 46.6233 31.195 46.7158 31.2385 46.7991C31.282 46.8824 31.3449 46.954 31.4219 47.0078C31.5207 47.0777 31.6387 47.1152 31.7598 47.1152C31.8265 47.1154 31.8926 47.1035 31.9551 47.0801C35.301 45.8786 38.9607 45.8786 42.3066 47.0801C42.3706 47.1086 42.4398 47.1234 42.5098 47.1234C42.5798 47.1234 42.649 47.1086 42.7129 47.0801C46.0589 45.8791 49.7184 45.8791 53.0645 47.0801C53.1527 47.1113 53.2471 47.1209 53.3399 47.1081C53.4326 47.0953 53.5209 47.0605 53.5974 47.0066C53.6739 46.9526 53.7364 46.8811 53.7796 46.7981C53.8228 46.7151 53.8454 46.6229 53.8457 46.5293V29.4082H54.8223C54.871 29.4126 54.9162 29.4351 54.9491 29.4713C54.9821 29.5074 55.0002 29.5546 55 29.6035Z" fill="white"/>
<path d="M31.6875 28.5801C31.6491 28.5936 31.6158 28.6187 31.5923 28.652C31.5689 28.6852 31.5564 28.725 31.5566 28.7657V46.5391C31.557 46.5703 31.5648 46.6009 31.5794 46.6284C31.594 46.656 31.615 46.6796 31.6406 46.6973C31.6661 46.7155 31.6955 46.7273 31.7264 46.7317C31.7573 46.7361 31.7889 46.733 31.8184 46.7227C35.2042 45.503 38.9063 45.4837 42.3047 46.6681V28.4923C38.8576 27.3195 35.1147 27.3505 31.6875 28.5801ZM41.3008 43.1095C41.2777 43.1558 41.2372 43.1911 41.1881 43.2076C41.139 43.224 41.0854 43.2204 41.0391 43.1973C41.0039 43.1798 37.5391 41.5001 33.1992 43.1973C33.176 43.2058 33.1516 43.2104 33.127 43.211C33.0807 43.2119 33.0356 43.1964 32.9998 43.1671C32.9639 43.1379 32.9396 43.0969 32.9311 43.0514C32.9227 43.0059 32.9307 42.9589 32.9537 42.9187C32.9767 42.8786 33.0131 42.8479 33.0566 42.8321C37.5664 41.0626 41.0645 42.7677 41.2129 42.8321C41.2379 42.8434 41.2603 42.8598 41.2785 42.8803C41.2968 42.9009 41.3105 42.925 41.3188 42.9512C41.3271 42.9773 41.3298 43.0049 41.3267 43.0322C41.3236 43.0595 41.3147 43.0858 41.3008 43.1095ZM41.3008 39.2677C41.2777 39.314 41.2372 39.3493 41.1881 39.3658C41.139 39.3822 41.0854 39.3786 41.0391 39.3555C41.0039 39.338 37.5391 37.6583 33.1992 39.3555C33.176 39.364 33.1516 39.3686 33.127 39.3692C33.0816 39.3689 33.0378 39.3528 33.0031 39.3237C32.9683 39.2946 32.9447 39.2543 32.9364 39.2097C32.9281 39.1652 32.9356 39.1191 32.9575 39.0794C32.9794 39.0397 33.0145 39.0089 33.0566 38.9923C37.5664 37.2208 41.0645 38.9259 41.2129 38.9923C41.2377 39.0036 41.2598 39.0199 41.2778 39.0403C41.2959 39.0607 41.3095 39.0846 41.3178 39.1105C41.326 39.1364 41.3288 39.1638 41.3259 39.1909C41.323 39.2179 41.3144 39.2441 41.3008 39.2677ZM41.3008 35.4259C41.2777 35.4722 41.2372 35.5075 41.1881 35.524C41.139 35.5404 41.0854 35.5368 41.0391 35.5137C41.0039 35.4962 37.5391 33.8165 33.1992 35.5137C33.176 35.5222 33.1516 35.5268 33.127 35.5274C33.0816 35.5271 33.0378 35.511 33.0031 35.4819C32.9683 35.4528 32.9447 35.4125 32.9364 35.3679C32.9281 35.3234 32.9356 35.2773 32.9575 35.2376C32.9794 35.1979 33.0145 35.1671 33.0566 35.1505C37.5664 33.379 41.0645 35.0841 41.2129 35.1505C41.2377 35.1618 41.2598 35.1781 41.2778 35.1985C41.2959 35.2189 41.3095 35.2428 41.3178 35.2687C41.326 35.2946 41.3288 35.322 41.3259 35.3491C41.323 35.3761 41.3144 35.4023 41.3008 35.4259ZM41.3008 31.5841C41.2777 31.6304 41.2372 31.6657 41.1881 31.6822C41.139 31.6986 41.0854 31.695 41.0391 31.6719C41.0039 31.6563 37.5391 29.9747 33.1992 31.6719C33.1763 31.6813 33.1517 31.686 33.127 31.6856C33.0816 31.6853 33.0378 31.6692 33.0031 31.6401C32.9683 31.611 32.9447 31.5707 32.9364 31.5261C32.9281 31.4816 32.9356 31.4355 32.9575 31.3958C32.9794 31.3561 33.0145 31.3253 33.0566 31.3087C37.5664 29.5372 41.0645 31.2423 41.2129 31.3087C41.2377 31.32 41.2598 31.3363 41.2778 31.3567C41.2959 31.3771 41.3095 31.401 41.3178 31.4269C41.326 31.4528 41.3288 31.4802 41.3259 31.5073C41.323 31.5343 41.3144 31.5605 41.3008 31.5841ZM53.3145 28.5801C49.8866 27.3505 46.1431 27.3195 42.6953 28.4923V46.6681C46.0926 45.4805 49.7947 45.4964 53.1817 46.713C53.2029 46.7207 53.2254 46.7247 53.2481 46.7247C53.2881 46.724 53.327 46.7111 53.3594 46.6876C53.385 46.6698 53.406 46.6462 53.4206 46.6187C53.4352 46.5912 53.443 46.5605 53.4434 46.5294V28.7657C53.4438 28.7252 53.4316 28.6856 53.4085 28.6524C53.3854 28.6192 53.3525 28.5939 53.3145 28.5801ZM52.2402 43.0938C52.2261 43.1305 52.2012 43.1621 52.1688 43.1844C52.1363 43.2067 52.098 43.2187 52.0586 43.2188C52.034 43.2181 52.0096 43.2135 51.9863 43.2052C47.6445 41.5001 44.1738 43.1798 44.1484 43.2052C44.1021 43.2282 44.0485 43.2319 43.9994 43.2154C43.9503 43.1989 43.9098 43.1636 43.8867 43.1173C43.8636 43.0711 43.8596 43.0177 43.8757 42.9687C43.8918 42.9196 43.9267 42.879 43.9727 42.8555C44.1192 42.7813 47.6192 41.0782 52.1289 42.8555C52.1738 42.8743 52.2101 42.9091 52.2307 42.9531C52.2513 42.9972 52.2547 43.0474 52.2402 43.0938ZM52.2402 39.3829C52.2258 39.4192 52.2007 39.4504 52.1683 39.4723C52.136 39.4943 52.0977 39.506 52.0586 39.5059C52.0339 39.506 52.0093 39.5014 51.9863 39.4923C47.6445 37.7891 44.1738 39.4688 44.1484 39.4923C44.1021 39.5156 44.0484 39.5195 43.9991 39.5032C43.9498 39.4869 43.9091 39.4517 43.8858 39.4054C43.8624 39.359 43.8585 39.3053 43.8748 39.256C43.8911 39.2067 43.9263 39.166 43.9727 39.1427C44.1192 39.0684 47.6192 37.3653 52.1289 39.1427C52.1743 39.1614 52.2109 39.1965 52.2315 39.241C52.2521 39.2855 52.2553 39.3362 52.2402 39.3829ZM52.2402 35.6719C52.2258 35.7083 52.2007 35.7394 52.1683 35.7614C52.136 35.7833 52.0977 35.795 52.0586 35.795C52.0339 35.7951 52.0093 35.7904 51.9863 35.7813C47.6445 34.0782 44.1738 35.7579 44.1484 35.7813C44.1021 35.8044 44.0485 35.808 43.9994 35.7915C43.9503 35.7751 43.9098 35.7398 43.8867 35.6934C43.8636 35.6473 43.8596 35.5939 43.8757 35.5448C43.8918 35.4958 43.9267 35.4551 43.9727 35.4317C44.1192 35.3575 47.6192 33.6544 52.1289 35.4317C52.1743 35.4505 52.2109 35.4856 52.2315 35.5301C52.2521 35.5746 52.2553 35.6252 52.2402 35.6719ZM52.2402 31.961C52.2261 31.9977 52.2012 32.0293 52.1688 32.0516C52.1363 32.0739 52.098 32.0859 52.0586 32.086C52.0339 32.0861 52.0093 32.0814 51.9863 32.0723C47.6445 30.3673 44.1738 32.0489 44.1484 32.0723C44.1023 32.0955 44.0489 32.0995 43.9999 32.0834C43.9508 32.0673 43.9101 32.0324 43.8867 31.9864C43.875 31.9635 43.8678 31.9384 43.8658 31.9127C43.8637 31.887 43.8668 31.8612 43.8748 31.8367C43.8828 31.8122 43.8955 31.7895 43.9123 31.7699C43.9291 31.7504 43.9496 31.7343 43.9727 31.7227C44.1192 31.6505 47.6192 29.9454 52.1289 31.7227C52.1734 31.7414 52.2094 31.7759 52.2299 31.8195C52.2505 31.8632 52.2541 31.9129 52.2402 31.9591V31.961Z" fill="white"/>
</g>
<defs>
<filter id="filter0_d_234_4" x="0" y="0" width="85" height="85" filterUnits="userSpaceOnUse" color-interpolation-filters="sRGB">
<feFlood flood-opacity="0" result="BackgroundImageFix"/>
<feColorMatrix in="SourceAlpha" type="matrix" values="0 0 0 0 0 0 0 0 0 0 0 0 0 0 0 0 0 0 127 0" result="hardAlpha"/>
<feOffset dy="4"/>
<feGaussianBlur stdDeviation="10"/>
<feComposite in2="hardAlpha" operator="out"/>
<feColorMatrix type="matrix" values="0 0 0 0 0.0991667 0 0 0 0 0.35 0 0 0 0 0.290815 0 0 0 0.08 0"/>
<feBlend mode="normal" in2="BackgroundImageFix" result="effect1_dropShadow_234_4"/>
<feBlend mode="normal" in="SourceGraphic" in2="effect1_dropShadow_234_4" result="shape"/>
</filter>
<clipPath id="clip0_234_4">
<rect width="25" height="25" fill="white" transform="translate(30 26)"/>
</clipPath>
</defs>
</svg>
