<svg width="385" height="874" viewBox="0 0 385 874" fill="none" xmlns="http://www.w3.org/2000/svg">
<line opacity="0.1" y1="-0.5" x2="251.653" y2="-0.5" transform="matrix(-0.279097 -0.960263 0.996386 -0.08494 5.92188 820.85)" stroke="#005944"/>
<line opacity="0.1" x1="30.3114" y1="474.457" x2="61.7444" y2="260.187" stroke="#005944"/>
<line opacity="0.1" x1="61.6672" y1="260.408" x2="-12.7318" y2="24.5429" stroke="#005944"/>
<line opacity="0.1" x1="155.272" y1="118.989" x2="62.6498" y2="260.563" stroke="#005944"/>
<line opacity="0.1" x1="154.792" y1="119.211" x2="-90.4169" y2="88.751" stroke="#005944"/>
<line opacity="0.1" x1="155.35" y1="118.775" x2="118.597" y2="423.052" stroke="#005944"/>
<line opacity="0.1" y1="-0.5" x2="235.637" y2="-0.5" transform="matrix(-0.944218 -0.329322 0.32932 -0.944218 73.8423 627.383)" stroke="#005944"/>
<line opacity="0.1" x1="29.3485" y1="474.413" x2="-148.455" y2="550.242" stroke="#005944"/>
<line opacity="0.1" x1="264.926" y1="339.242" x2="38.8845" y2="615.372" stroke="#005944"/>
<line opacity="0.1" x1="264.788" y1="339.359" x2="29.3992" y2="474.386" stroke="#005944"/>
<line opacity="0.1" x1="264.358" y1="339.392" x2="62.0581" y2="260.726" stroke="#005944"/>
<line opacity="0.1" x1="61.8827" y1="260.631" x2="-90.7252" y2="88.4817" stroke="#005944"/>
<line opacity="0.1" x1="62.7146" y1="260.097" x2="202.831" y2="672.041" stroke="#005944"/>
<line opacity="0.1" x1="-160.758" y1="388.299" x2="30.9519" y2="474.083" stroke="#005944"/>
<line opacity="0.1" x1="29.5289" y1="473.624" x2="202.733" y2="671.876" stroke="#005944"/>
<line opacity="0.1" x1="202.19" y1="672.677" x2="73.6748" y2="627.854" stroke="#005944"/>
<line opacity="0.1" x1="38.3374" y1="615.46" x2="-162.13" y2="388.78" stroke="#005944"/>
<line opacity="0.1" y1="-0.5" x2="208.431" y2="-0.5" transform="matrix(0.154407 -0.988008 0.975608 0.219523 6.31592 820.986)" stroke="#005944"/>
<line opacity="0.1" x1="-31.8074" y1="694.592" x2="202.308" y2="671.707" stroke="#005944"/>
<circle cx="5.77515" cy="821.245" r="6.38006" transform="rotate(-70.7724 5.77515 821.245)" fill="#00D9A4"/>
<circle cx="61.6878" cy="260.55" r="6.38006" transform="rotate(-70.7724 61.6878 260.55)" fill="#BDD3CE"/>
<circle cx="117.549" cy="423.282" r="6.38006" transform="rotate(-70.7724 117.549 423.282)" fill="#BDD3CE"/>
<circle cx="38.4881" cy="615.084" r="4.25337" transform="rotate(-70.7724 38.4881 615.084)" fill="#BDD3CE"/>
<circle cx="25.3621" cy="688.883" r="4.25337" transform="rotate(-70.7724 25.3621 688.883)" fill="#BDD3CE"/>
<circle cx="29.1419" cy="473.982" r="4.25337" transform="rotate(-70.7724 29.1419 473.982)" fill="#BDD3CE"/>
<circle cx="153.769" cy="119.236" r="4.25337" transform="rotate(-70.7724 153.769 119.236)" fill="#BDD3CE"/>
<circle cx="12.6654" cy="101.986" r="4.25337" transform="rotate(-70.7724 12.6654 101.986)" fill="#BDD3CE"/>
<circle cx="140.846" cy="489.515" r="4.25337" transform="rotate(-70.7724 140.846 489.515)" fill="#BDD3CE"/>
<circle cx="93.7782" cy="546.976" r="4.25337" transform="rotate(-70.7724 93.7782 546.976)" fill="#00D9A4"/>
<circle cx="135.286" cy="288.471" r="4.25337" transform="rotate(-70.7724 135.286 288.471)" fill="#00D9A4"/>
<circle cx="199.154" cy="669.766" r="6.38006" transform="rotate(-70.7724 199.154 669.766)" fill="#BDD3CE"/>
<circle cx="261.562" cy="339.721" r="4.25337" transform="rotate(-70.7724 261.562 339.721)" fill="#BDD3CE"/>
</svg>
