<svg width="470" height="896" viewBox="0 0 470 896" fill="none" xmlns="http://www.w3.org/2000/svg">
<line opacity="0.1" y1="-0.5" x2="251.653" y2="-0.5" transform="matrix(-0.911503 -0.411293 0.582406 -0.812898 669.723 719.529)" stroke="#005944"/>
<line opacity="0.1" x1="422.133" y1="476.052" x2="279.593" y2="313.012" stroke="#005944"/>
<line opacity="0.1" x1="279.711" y1="313.214" x2="52.0266" y2="216.635" stroke="#005944"/>
<line opacity="0.1" x1="364.131" y1="661.744" x2="231.713" y2="566.674" stroke="#005944"/>
<line opacity="0.1" x1="232.945" y1="150.197" x2="280.468" y2="312.567" stroke="#005944"/>
<line opacity="0.1" x1="232.803" y1="150.707" x2="50.4122" y2="317.407" stroke="#005944"/>
<line opacity="0.1" x1="232.834" y1="149.999" x2="440.368" y2="375.531" stroke="#005944"/>
<line opacity="0.1" y1="-0.5" x2="235.637" y2="-0.5" transform="matrix(-0.863572 0.504225 -0.504227 -0.863572 566.698 542.25)" stroke="#005944"/>
<line opacity="0.1" x1="421.473" y1="476.757" x2="363.684" y2="661.214" stroke="#005944"/>
<line opacity="0.1" x1="471.649" y1="210.01" x2="421.486" y2="476.701" stroke="#005944"/>
<line opacity="0.1" x1="471.394" y1="210.358" x2="280.206" y2="313.124" stroke="#005944"/>
<line opacity="0.1" y1="-0.5" x2="230.053" y2="-0.5" transform="matrix(-0.999828 0.0185716 -0.0185727 -0.999828 280.011 312.695)" stroke="#005944"/>
<line opacity="0.1" x1="52.7211" y1="216.185" x2="50.4974" y2="316.974" stroke="#005944"/>
<line opacity="0.1" x1="280.154" y1="312.215" x2="684.419" y2="473.153" stroke="#005944"/>
<line opacity="0.1" x1="232.54" y1="565.414" x2="422.264" y2="475.323" stroke="#005944"/>
<line opacity="0.1" x1="420.99" y1="476.107" x2="684.229" y2="473.121" stroke="#005944"/>
<line opacity="0.1" x1="534.576" y1="561.51" x2="232.015" y2="566.769" stroke="#005944"/>
<circle cx="362.946" cy="659.775" r="6.38006" transform="rotate(-120.28 362.946 659.775)" fill="#BDD3CE"/>
<circle cx="279.831" cy="313.291" r="6.38006" transform="rotate(-120.28 279.831 313.291)" fill="#BDD3CE"/>
<circle cx="393.431" cy="562.674" r="4.25337" transform="rotate(-120.28 393.431 562.674)" fill="#00D9A4"/>
<circle cx="439.861" cy="376.478" r="6.38006" transform="rotate(-120.28 439.861 376.478)" fill="#BDD3CE"/>
<circle cx="52.0676" cy="216.76" r="6.38006" transform="rotate(-120.28 52.0676 216.76)" fill="#00D9A4"/>
<circle cx="421.011" cy="476.633" r="4.25337" transform="rotate(-120.28 421.011 476.633)" fill="#BDD3CE"/>
<circle cx="232.157" cy="151.503" r="4.25337" transform="rotate(-120.28 232.157 151.503)" fill="#BDD3CE"/>
<circle cx="49.9977" cy="316.969" r="4.25337" transform="rotate(-120.28 49.9977 316.969)" fill="#BDD3CE"/>
<circle cx="127.413" cy="247.608" r="4.25337" transform="rotate(-120.28 127.413 247.608)" fill="#BDD3CE"/>
<circle cx="232.758" cy="565.864" r="4.25337" transform="rotate(-120.28 232.758 565.864)" fill="#BDD3CE"/>
<circle cx="440.786" cy="616.786" r="4.25337" transform="rotate(-120.28 440.786 616.786)" fill="#BDD3CE"/>
<circle cx="348.857" cy="275.452" r="4.25337" transform="rotate(-120.28 348.857 275.452)" fill="#00D9A4"/>
<circle cx="469.828" cy="212.698" r="4.25337" transform="rotate(-120.28 469.828 212.698)" fill="#BDD3CE"/>
</svg>
