<svg width="100" height="100" viewBox="0 0 100 100" fill="none" xmlns="http://www.w3.org/2000/svg">
<rect x="10.5" y="6.5" width="79" height="79" rx="4.5" stroke="#00D9A4"/>
<mask id="mask0_211_16" style="mask-type:alpha" maskUnits="userSpaceOnUse" x="10" y="6" width="80" height="80">
<rect x="10.5" y="6.5" width="79" height="79" rx="4.5" stroke="#00D9A4"/>
</mask>
<g mask="url(#mask0_211_16)">
<path d="M-4.70286 40.5144C-5.87021 47.8341 -5.58441 55.312 -3.86178 62.5212C-2.13915 69.7305 0.98657 76.5298 5.33693 82.531C9.68728 88.5322 15.1771 93.6179 21.4928 97.4975C27.8086 101.377 34.8267 103.975 42.1464 105.142C49.466 106.309 56.9439 106.024 64.1532 104.301C71.3624 102.578 78.1617 99.4526 84.163 95.1023C90.1642 90.7519 95.2498 85.2621 99.1294 78.9463C103.009 72.6306 105.607 65.6125 106.774 58.2928L51.0356 49.4036L-4.70286 40.5144Z" fill="#CCE0DB"/>
</g>
<g filter="url(#filter0_d_211_16)">
<rect x="20" y="16" width="60" height="60" rx="5" fill="#00D9A4"/>
</g>
<g clip-path="url(#clip0_211_16)">
<path d="M66.8756 46.8636C65.3866 47.0425 64.0074 46.5567 62.7951 45.6943C62.7885 42.3297 62.5696 37.3201 59.868 36.0233C59.4063 35.8017 58.8838 36.1834 58.9509 36.6911C59.0966 37.7934 59.0758 38.6892 59.0755 39.8022C59.0754 40.1573 58.8079 40.4678 58.4536 40.491C58.0651 40.5164 57.742 40.2088 57.742 39.8257V38.6408C57.742 24.8858 37.7788 19.7765 32.9422 36.604C31.3162 42.263 33.2647 48.7138 38.0278 53.4377C39.1871 54.5871 39.9947 56.0114 40.3631 57.5566C43.2153 69.5336 57.6172 68.6905 57.7468 55.5252C57.7503 55.1673 58.0385 54.8728 58.3963 54.8683C58.8075 54.8631 59.0838 55.1892 59.0802 55.5454C59.0678 56.7479 58.942 57.8905 58.7077 58.9593C58.6223 59.3492 58.9085 59.741 59.3296 59.741C61.0864 59.741 62.7638 58.0899 62.9001 55.7589C64.1657 55.3407 65.5304 55.1529 66.9147 55.238C67.3046 55.2592 67.6215 54.9528 67.6215 54.5721V47.5262C67.6216 47.1288 67.2753 46.8161 66.8756 46.8636ZM44.2544 56.6298C43.7134 54.3584 42.5345 52.2723 40.8451 50.5969C37.1195 46.902 35.5646 41.9638 36.7873 37.7092C40.3357 25.3619 53.7416 29.4205 53.7416 38.6408V39.7278C53.7416 40.3124 53.0378 40.6155 52.6137 40.2093C49.6935 37.4127 45.8627 36.3542 42.0051 37.3919C41.6362 37.4914 41.2561 37.2606 41.1784 36.8805C41.1066 36.5298 41.3402 36.1891 41.6862 36.0969C44.991 35.2153 48.4598 35.6741 51.4973 37.6336C51.8673 37.8723 52.345 37.5465 52.2573 37.1151C51.5909 33.8359 48.8291 31.7453 46.2106 31.3765C43.3224 30.9697 39.6672 32.5164 38.0691 38.0774C36.9809 41.8637 38.4045 46.2981 41.7842 49.65C43.6503 51.5006 44.9531 53.8072 45.5518 56.3207C46.29 59.4197 48.1817 60.845 49.6687 60.6515C50.9941 60.4789 52.5073 58.9001 52.4097 55.0187C52.4094 55.0064 52.4091 54.9976 52.4089 54.3583C52.4083 52.8209 51.6727 51.4054 50.4411 50.5718C49.3011 49.8001 48.5183 48.6952 48.2369 47.4603C47.5313 44.3638 50.1322 41.6315 53.4452 43.8454C53.7514 44.05 53.8338 44.4641 53.6292 44.7703C53.4245 45.0765 53.0105 45.1586 52.7043 44.9542C51.4818 44.1373 50.4394 44.1762 49.8445 45.0607C49.167 46.0682 49.257 48.1601 51.1886 49.4675C52.7869 50.5494 53.7416 52.3775 53.7423 54.3577C53.7425 54.7266 53.7427 54.9512 53.7429 54.9904C53.9643 63.9453 46.0433 64.1396 44.2544 56.6298Z" fill="white"/>
</g>
<defs>
<filter id="filter0_d_211_16" x="0" y="0" width="100" height="100" filterUnits="userSpaceOnUse" color-interpolation-filters="sRGB">
<feFlood flood-opacity="0" result="BackgroundImageFix"/>
<feColorMatrix in="SourceAlpha" type="matrix" values="0 0 0 0 0 0 0 0 0 0 0 0 0 0 0 0 0 0 127 0" result="hardAlpha"/>
<feOffset dy="4"/>
<feGaussianBlur stdDeviation="10"/>
<feComposite in2="hardAlpha" operator="out"/>
<feColorMatrix type="matrix" values="0 0 0 0 0.0991667 0 0 0 0 0.35 0 0 0 0 0.290815 0 0 0 0.08 0"/>
<feBlend mode="normal" in2="BackgroundImageFix" result="effect1_dropShadow_211_16"/>
<feBlend mode="normal" in="SourceGraphic" in2="effect1_dropShadow_211_16" result="shape"/>
</filter>
<clipPath id="clip0_211_16">
<rect width="40" height="40" fill="white" transform="translate(30 26)"/>
</clipPath>
</defs>
</svg>
