<svg width="100" height="100" viewBox="0 0 100 100" fill="none" xmlns="http://www.w3.org/2000/svg">
<rect x="10.5" y="6.5" width="79" height="79" rx="4.5" stroke="#00D9A4"/>
<mask id="mask0_211_15" style="mask-type:alpha" maskUnits="userSpaceOnUse" x="10" y="6" width="80" height="80">
<rect x="10.5" y="6.5" width="79" height="79" rx="4.5" stroke="#00D9A4"/>
</mask>
<g mask="url(#mask0_211_15)">
<path d="M-4.70286 40.5144C-5.87021 47.8341 -5.58441 55.312 -3.86178 62.5212C-2.13915 69.7305 0.98657 76.5298 5.33693 82.531C9.68728 88.5322 15.1771 93.6179 21.4928 97.4975C27.8086 101.377 34.8267 103.975 42.1464 105.142C49.466 106.309 56.9439 106.024 64.1532 104.301C71.3624 102.578 78.1617 99.4526 84.163 95.1023C90.1642 90.7519 95.2498 85.2621 99.1294 78.9463C103.009 72.6306 105.607 65.6125 106.774 58.2928L51.0356 49.4036L-4.70286 40.5144Z" fill="#CCE0DB"/>
</g>
<g filter="url(#filter0_d_211_15)">
<rect x="20" y="16" width="60" height="60" rx="5" fill="#00D9A4"/>
</g>
<path d="M32.3686 53.2812L33.6686 53.7125C33.8218 53.7641 33.9489 53.873 34.0235 54.0163C34.0981 54.1596 34.1143 54.3263 34.0686 54.4813L33.3124 57.1188C33.1783 57.5992 33.1591 58.1045 33.2561 58.5938L33.7249 60.9375L33.2311 62.1813C33.121 62.4654 33.0813 62.7721 33.1155 63.075C33.1497 63.3778 33.2568 63.6679 33.4275 63.9204C33.5983 64.1729 33.8277 64.3802 34.0961 64.5247C34.3645 64.6692 34.6639 64.7465 34.9686 64.75H42.5374C43.0215 64.7503 43.4989 64.6368 43.9311 64.4188L49.3499 61.7125C49.884 61.4422 50.3299 61.0252 50.6354 60.5105C50.941 59.9957 51.0934 59.4046 51.0749 58.8063C51.0374 57.5375 51.2936 55.9062 52.7311 55.3312C54.6499 54.5625 56.8874 55.1187 58.0561 55.5187C58.5196 55.678 59.0139 55.7259 59.4993 55.6586C59.9846 55.5912 60.4473 55.4106 60.8499 55.1313C66.4311 51.2 69.0124 47.075 68.7499 42.5625C68.7499 34.1187 60.6186 27.25 50.6249 27.25H50.5686C44.4436 27.25 38.7811 29.8562 35.4124 34.2312C34.1107 35.8638 33.2112 37.7797 32.7867 39.8241C32.3622 41.8685 32.4245 43.9841 32.9686 46C33.0658 46.4019 33.024 46.8249 32.8499 47.2L31.2499 50.7313C31.1437 50.9708 31.0886 51.2298 31.0881 51.4918C31.0876 51.7538 31.1417 52.013 31.247 52.2529C31.3523 52.4928 31.5064 52.7082 31.6995 52.8853C31.8926 53.0623 32.1205 53.1972 32.3686 53.2812ZM49.9999 35.375C50.1657 35.375 50.3246 35.4408 50.4418 35.5581C50.559 35.6753 50.6249 35.8342 50.6249 36C50.6249 36.1658 50.559 36.3247 50.4418 36.4419C50.3246 36.5592 50.1657 36.625 49.9999 36.625C48.8256 36.625 47.6776 36.9732 46.7012 37.6256C45.7248 38.2781 44.9638 39.2054 44.5144 40.2903C44.065 41.3753 43.9474 42.5691 44.1765 43.7208C44.4056 44.8726 44.9711 45.9306 45.8014 46.7609C46.6318 47.5913 47.6898 48.1568 48.8415 48.3859C49.9933 48.615 51.1871 48.4974 52.2721 48.048C53.357 47.5986 54.2843 46.8376 54.9367 45.8612C55.5892 44.8848 55.9374 43.7368 55.9374 42.5625C55.9374 42.3967 56.0032 42.2378 56.1205 42.1206C56.2377 42.0033 56.3966 41.9375 56.5624 41.9375C56.7282 41.9375 56.8871 42.0033 57.0043 42.1206C57.1215 42.2378 57.1874 42.3967 57.1874 42.5625C57.1874 43.9841 56.7659 45.3737 55.9761 46.5557C55.1863 47.7376 54.0638 48.6589 52.7504 49.2029C51.4371 49.7469 49.9919 49.8892 48.5977 49.6119C47.2034 49.3346 45.9228 48.65 44.9176 47.6448C43.9124 46.6396 43.2278 45.3589 42.9505 43.9647C42.6732 42.5705 42.8155 41.1253 43.3595 39.812C43.9035 38.4986 44.8248 37.3761 46.0067 36.5863C47.1887 35.7965 48.5783 35.375 49.9999 35.375ZM37.7374 41.625C39.3336 41.575 40.6249 43.1369 40.6249 45.0625C40.6249 46.9613 39.3618 48.3913 37.8124 48.5C36.5561 48.5881 36.0155 45.7794 35.8593 43.9538C35.8194 43.6761 35.8372 43.3932 35.9116 43.1227C35.986 42.8522 36.1154 42.6 36.2916 42.3817C36.4679 42.1635 36.6872 41.9839 36.936 41.8543C37.1847 41.7246 37.4575 41.6476 37.7374 41.6281V41.625ZM34.5811 57.25H36.2499V56.625C36.2499 56.4592 36.3157 56.3003 36.433 56.1831C36.5502 56.0658 36.7091 56 36.8749 56C37.0407 56 37.1996 56.0658 37.3168 56.1831C37.434 56.3003 37.4999 56.4592 37.4999 56.625V57.25H39.3749V56.625C39.3749 56.4592 39.4407 56.3003 39.558 56.1831C39.6752 56.0658 39.8341 56 39.9999 56C40.1657 56 40.3246 56.0658 40.4418 56.1831C40.559 56.3003 40.6249 56.4592 40.6249 56.625V57.25H41.4624C41.7914 57.2554 42.1158 57.1731 42.4025 57.0117C42.6892 56.8502 42.9277 56.6154 43.0936 56.3312C43.5923 55.4554 44.2468 54.6781 45.0249 54.0375L42.8999 54.5312C42.5136 54.6195 42.1093 54.5837 41.7446 54.4289C41.3799 54.274 41.0734 54.008 40.8686 53.6688L40.0436 52.2875C39.8054 51.8901 39.7228 51.4186 39.8117 50.9639C39.9005 50.5092 40.1546 50.1035 40.5249 49.825L42.1249 48.625C42.1906 48.5758 42.2653 48.5399 42.3448 48.5196C42.4243 48.4992 42.507 48.4947 42.5883 48.5063C42.6695 48.5179 42.7477 48.5454 42.8183 48.5872C42.889 48.629 42.9506 48.6843 42.9999 48.75C43.0491 48.8157 43.085 48.8904 43.1053 48.9699C43.1257 49.0494 43.1302 49.1321 43.1186 49.2134C43.107 49.2946 43.0795 49.3728 43.0377 49.4434C42.9959 49.5141 42.9406 49.5758 42.8749 49.625L41.2749 50.825C41.1511 50.9171 41.0663 51.0523 41.0373 51.204C41.0084 51.3556 41.0374 51.5125 41.1186 51.6437L41.9436 53.025C42.0115 53.138 42.1133 53.2266 42.2345 53.2782C42.3557 53.3298 42.4902 53.3418 42.6186 53.3125C46.4499 52.5187 51.4874 50.9 55.6249 51C55.7907 51 55.9496 51.0658 56.0668 51.1831C56.184 51.3003 56.2499 51.4592 56.2499 51.625C56.2499 51.7908 56.184 51.9497 56.0668 52.0669C55.9496 52.1842 55.7907 52.25 55.6249 52.25C47.9499 52.25 45.1624 55.1875 44.1811 56.9437C43.9065 57.4208 43.5101 57.8163 43.0324 58.0898C42.5546 58.3632 42.0128 58.5048 41.4624 58.5H40.6249V59.125C40.6249 59.2908 40.559 59.4497 40.4418 59.5669C40.3246 59.6842 40.1657 59.75 39.9999 59.75C39.8341 59.75 39.6752 59.6842 39.558 59.5669C39.4407 59.4497 39.3749 59.2908 39.3749 59.125V58.5H37.4999V59.125C37.4999 59.2908 37.434 59.4497 37.3168 59.5669C37.1996 59.6842 37.0407 59.75 36.8749 59.75C36.7091 59.75 36.5502 59.6842 36.433 59.5669C36.3157 59.4497 36.2499 59.2908 36.2499 59.125V58.5H34.5124C34.4098 58.0858 34.4338 57.6504 34.5811 57.25Z" fill="white"/>
<defs>
<filter id="filter0_d_211_15" x="0" y="0" width="100" height="100" filterUnits="userSpaceOnUse" color-interpolation-filters="sRGB">
<feFlood flood-opacity="0" result="BackgroundImageFix"/>
<feColorMatrix in="SourceAlpha" type="matrix" values="0 0 0 0 0 0 0 0 0 0 0 0 0 0 0 0 0 0 127 0" result="hardAlpha"/>
<feOffset dy="4"/>
<feGaussianBlur stdDeviation="10"/>
<feComposite in2="hardAlpha" operator="out"/>
<feColorMatrix type="matrix" values="0 0 0 0 0.0991667 0 0 0 0 0.35 0 0 0 0 0.290815 0 0 0 0.08 0"/>
<feBlend mode="normal" in2="BackgroundImageFix" result="effect1_dropShadow_211_15"/>
<feBlend mode="normal" in="SourceGraphic" in2="effect1_dropShadow_211_15" result="shape"/>
</filter>
</defs>
</svg>
