<svg width="100" height="100" viewBox="0 0 100 100" fill="none" xmlns="http://www.w3.org/2000/svg">
<rect x="10.5" y="6.5" width="79" height="79" rx="4.5" stroke="#00D9A4"/>
<mask id="mask0_211_11" style="mask-type:alpha" maskUnits="userSpaceOnUse" x="10" y="6" width="80" height="80">
<rect x="10.5" y="6.5" width="79" height="79" rx="4.5" stroke="#00D9A4"/>
</mask>
<g mask="url(#mask0_211_11)">
<path d="M-4.70286 40.5164C-5.87021 47.836 -5.58441 55.314 -3.86178 62.5232C-2.13915 69.7324 0.98657 76.5317 5.33693 82.533C9.68728 88.5342 15.1771 93.6198 21.4928 97.4994C27.8086 101.379 34.8267 103.977 42.1464 105.144C49.466 106.311 56.9439 106.026 64.1532 104.303C71.3624 102.58 78.1617 99.4546 84.163 95.1042C90.1642 90.7539 95.2498 85.2641 99.1294 78.9483C103.009 72.6325 105.607 65.6145 106.774 58.2948L51.0356 49.4056L-4.70286 40.5164Z" fill="#CCE0DB"/>
</g>
<g filter="url(#filter0_d_211_11)">
<rect x="20" y="16" width="60" height="60" rx="5" fill="#00D9A4"/>
</g>
<path d="M49.0031 30.2912L49.1208 30.5266L50.8611 29.8303C51.3989 29.6157 51.7512 29.0953 51.7512 28.5161C51.7512 28.2963 51.7002 28.0797 51.6019 27.8825L51.4804 27.6401C51.2502 27.1798 50.7796 26.8889 50.265 26.8889C49.9709 26.8889 49.6852 26.9846 49.4498 27.1604L47.9307 28.2995C48.0431 28.4301 48.144 28.5723 48.2222 28.7287L49.0031 30.2912Z" fill="white"/>
<path d="M51.7113 38.5253C51.7113 38.5253 51.7319 41.1803 51.699 41.6464L53.3533 41.3083C53.9254 41.1932 54.3372 40.6909 54.3372 40.1072C54.3372 39.9171 54.2932 39.7296 54.2079 39.5596L54.0295 39.2021C53.822 38.7871 53.3979 38.5253 52.9337 38.5253H51.7113Z" fill="white"/>
<path d="M50.1679 55.3856L50.345 56.0928L50.5719 56.1497C51.1453 56.2932 51.6722 56.5486 52.1305 56.8931L52.7072 56.3165C52.9224 56.1012 53.044 55.8084 53.044 55.5026V55.191C53.044 54.5555 52.5287 54.0403 51.8926 54.0403C51.7982 54.0403 51.7045 54.0519 51.6133 54.0745L50.0146 54.4741C50.0295 54.5639 50.0405 54.6551 50.0567 54.7449L50.1679 55.3856Z" fill="white"/>
<path d="M52.3976 50.3943V50.1616C52.3976 49.4472 51.819 48.8687 51.1047 48.8687H50.1253C50.1253 48.8687 49.8118 51.8876 49.8118 51.9717L51.3581 51.6627C51.9625 51.5418 52.3976 51.011 52.3976 50.3943Z" fill="white"/>
<path d="M53.6903 45.2717C53.6903 45.0861 53.647 44.9038 53.5643 44.7377L53.3736 44.3569C53.1719 43.9523 52.7582 43.6969 52.3063 43.6969H51.4426C51.378 44.046 50.6584 46.7883 50.6584 46.7883L52.6935 46.4489C53.2682 46.3532 53.6903 45.8548 53.6903 45.2717Z" fill="white"/>
<path d="M50.3899 33.1725L51.2154 35.7506L52.2019 35.5043C52.6971 35.3795 53.0443 34.9347 53.0443 34.424V33.8189C53.0443 33.2048 52.5465 32.707 51.9317 32.707C51.8121 32.707 51.6932 32.7264 51.58 32.7639L50.3899 33.1725Z" fill="white"/>
<path d="M45.8423 35.7371L45.8953 35.8826C46.0162 36.2142 46.1183 36.5504 46.2069 36.8898L49.8361 35.6802C49.6842 35.1146 49.5077 34.5554 49.3021 34.0072L45.8423 35.7371Z" fill="white"/>
<path d="M48.1007 31.3765L44.8484 33.003L45.3979 34.515L48.8009 32.8135C48.7226 32.6442 48.6489 32.4735 48.5662 32.3067L48.1007 31.3765Z" fill="white"/>
<path d="M46.4565 38.1705C46.5154 38.5843 46.5516 39.0012 46.5639 39.4208L50.3722 38.6593C50.3179 38.0852 50.2377 37.5137 50.1284 36.9468L46.4565 38.1705Z" fill="white"/>
<path d="M50.2453 43.0504H46.0872C46.0064 43.318 45.923 43.5844 45.8222 43.8469L45.6968 44.1733L49.9195 44.6426C50.05 44.1164 50.1632 43.5857 50.2453 43.0504Z" fill="white"/>
<path d="M49.1165 47.4946C49.1631 47.3207 49.2006 47.1449 49.2529 46.9723L49.5729 45.905L45.2164 45.4208L44.6113 46.9936L49.1165 47.4946Z" fill="white"/>
<path d="M44.4029 31.7799L47.522 30.2206L47.0656 29.3085C46.8575 28.8928 46.3164 28.7124 45.902 28.9206L44.536 29.6039C44.2012 29.7713 43.9937 30.1075 43.9937 30.4811C43.9937 30.5962 44.0137 30.7087 44.0525 30.816L44.4029 31.7799Z" fill="white"/>
<path d="M46.4009 41.757H50.3967C50.4348 41.2806 50.4581 40.8028 50.4581 40.3238C50.4581 40.2029 50.4497 40.0827 50.4477 39.9618L46.5347 40.7447C46.5056 41.0847 46.4604 41.4221 46.4009 41.757Z" fill="white"/>
<path d="M52.9857 62.6275L52.5267 62.5615C51.716 62.4458 51.1051 61.7418 51.1051 60.9228C51.1051 60.4806 51.2771 60.0649 51.59 59.752L52.2855 59.0558C51.8925 58.2341 51.1575 57.6284 50.2576 57.4034L49.979 57.3336L46.3452 60.4483C46.4254 60.4832 46.5101 60.5052 46.5986 60.5052C47.5987 60.5052 48.5542 60.9829 49.1541 61.7832L49.4902 62.2312C49.9169 62.8001 50.5666 63.1712 51.2732 63.25L54.265 63.5823C54.49 63.6075 54.7078 63.656 54.9179 63.7239C54.4428 63.1472 53.7659 62.7387 52.9857 62.6275Z" fill="white"/>
<path d="M49.048 56.2383L44.4685 57.612C44.7639 58.2501 45.113 58.8661 45.5209 59.4531L49.0875 56.396L49.048 56.2383Z" fill="white"/>
<path d="M56.5124 60.7925L55.7748 60.3006L55.5712 59.8926C55.3611 59.4731 54.9389 59.2119 54.469 59.2119C54.1451 59.2119 53.827 59.3438 53.5975 59.5726L53.5012 59.669L52.5037 60.6665C52.4365 60.7337 52.3977 60.8274 52.3977 60.9225C52.3977 61.1015 52.5315 61.256 52.7087 61.2812L53.1676 61.3472C54.9215 61.5974 56.3204 62.8929 56.7691 64.542C57.2746 64.0953 57.5694 63.4533 57.5694 62.7675C57.5694 61.9723 57.1744 61.234 56.5124 60.7925Z" fill="white"/>
<path d="M48.649 54.0959L43.5303 54.6079C43.6356 55.2201 43.7876 55.8207 43.9854 56.407L48.7834 54.9674C48.7323 54.6778 48.6845 54.3875 48.649 54.0959Z" fill="white"/>
<path d="M48.5189 51.9762C48.5189 51.8016 48.5324 51.6284 48.5376 51.4545H43.3963C43.3646 51.812 43.3472 52.1714 43.3472 52.5328C43.3472 52.7978 43.3607 53.0603 43.3776 53.3227L48.5441 52.8062C48.5311 52.5295 48.5189 52.2528 48.5189 51.9762Z" fill="white"/>
<path d="M48.8291 48.7636L44.1345 48.2419C43.8972 48.869 43.7169 49.5103 43.5869 50.1619H48.6248C48.6739 49.6932 48.7424 49.2272 48.8291 48.7636Z" fill="white"/>
<defs>
<filter id="filter0_d_211_11" x="0" y="0" width="100" height="100" filterUnits="userSpaceOnUse" color-interpolation-filters="sRGB">
<feFlood flood-opacity="0" result="BackgroundImageFix"/>
<feColorMatrix in="SourceAlpha" type="matrix" values="0 0 0 0 0 0 0 0 0 0 0 0 0 0 0 0 0 0 127 0" result="hardAlpha"/>
<feOffset dy="4"/>
<feGaussianBlur stdDeviation="10"/>
<feComposite in2="hardAlpha" operator="out"/>
<feColorMatrix type="matrix" values="0 0 0 0 0.0991667 0 0 0 0 0.35 0 0 0 0 0.290815 0 0 0 0.08 0"/>
<feBlend mode="normal" in2="BackgroundImageFix" result="effect1_dropShadow_211_11"/>
<feBlend mode="normal" in="SourceGraphic" in2="effect1_dropShadow_211_11" result="shape"/>
</filter>
</defs>
</svg>
