<svg width="100" height="100" viewBox="0 0 100 100" fill="none" xmlns="http://www.w3.org/2000/svg">
<rect x="10.5" y="6.5" width="79" height="79" rx="4.5" stroke="#00D9A4"/>
<mask id="mask0_211_13" style="mask-type:alpha" maskUnits="userSpaceOnUse" x="10" y="6" width="80" height="80">
<rect x="10.5" y="6.5" width="79" height="79" rx="4.5" stroke="#00D9A4"/>
</mask>
<g mask="url(#mask0_211_13)">
<path d="M-4.70286 40.5144C-5.87021 47.8341 -5.58441 55.312 -3.86178 62.5212C-2.13915 69.7305 0.98657 76.5298 5.33693 82.531C9.68728 88.5322 15.1771 93.6179 21.4928 97.4975C27.8086 101.377 34.8267 103.975 42.1464 105.142C49.466 106.309 56.9439 106.024 64.1532 104.301C71.3624 102.578 78.1617 99.4526 84.163 95.1023C90.1642 90.7519 95.2498 85.2621 99.1294 78.9463C103.009 72.6306 105.607 65.6125 106.774 58.2928L51.0356 49.4036L-4.70286 40.5144Z" fill="#CCE0DB"/>
</g>
<g filter="url(#filter0_d_211_13)">
<rect x="20" y="16" width="60" height="60" rx="5" fill="#00D9A4"/>
</g>
<g clip-path="url(#clip0_211_13)">
<path d="M66.8729 48.9788C66.3798 49.5494 65.7702 50.0078 65.085 50.3232C64.3999 50.6385 63.6552 50.8034 62.901 50.8069C62.8448 50.8069 62.7917 50.8069 62.7354 50.8038C62.6525 50.8025 62.5736 50.7683 62.5159 50.7088C62.4582 50.6493 62.4265 50.5693 62.4278 50.4864C62.429 50.4035 62.4632 50.3246 62.5227 50.2669C62.5822 50.2092 62.6622 50.1775 62.7451 50.1788H62.7542C62.8042 50.1819 62.851 50.1819 62.901 50.1819C65.526 50.1819 67.6604 47.9569 67.6604 45.2225C67.6676 44.56 67.5422 43.9027 67.2915 43.2893C67.0409 42.6759 66.6701 42.1189 66.201 41.6509C66.1809 41.6296 66.164 41.6054 66.151 41.5791C66.151 41.5759 66.1479 41.5728 66.1479 41.5697C66.1259 41.5292 66.1133 41.4843 66.1112 41.4383C66.109 41.3923 66.1173 41.3464 66.1354 41.3041C66.2953 40.8008 66.3765 40.2759 66.376 39.7478C66.376 37.0072 64.2385 34.7825 61.6138 34.7825C58.9892 34.7825 56.8513 37.0072 56.8513 39.7478C56.8513 39.8307 56.8184 39.9102 56.7598 39.9688C56.7012 40.0274 56.6217 40.0603 56.5388 40.0603C56.456 40.0603 56.3765 40.0274 56.3179 39.9688C56.2593 39.9102 56.2263 39.8307 56.2263 39.7478C56.2263 36.6634 58.642 34.1575 61.6138 34.1575H61.6388C61.8016 33.7054 61.8851 33.2286 61.8857 32.7481C61.8857 30.645 60.3513 28.9325 58.4701 28.9325C57.8425 28.9479 57.2316 29.1375 56.7057 29.4803C56.1797 29.823 55.7595 30.3052 55.492 30.8731C55.4741 30.9102 55.4489 30.9433 55.418 30.9704C55.387 30.9975 55.3509 31.0181 55.3118 31.0309C55.2727 31.0438 55.2315 31.0486 55.1905 31.0451C55.1495 31.0416 55.1096 31.0299 55.0732 31.0106C54.9996 30.9732 54.9438 30.9081 54.9181 30.8296C54.8923 30.7512 54.8987 30.6657 54.9357 30.5919C55.2469 29.9389 55.729 29.3822 56.3309 28.981C56.9328 28.5797 57.632 28.3487 58.3545 28.3125C56.8751 27.2813 54.0076 25.5547 52.0423 26.1078C51.2298 26.3391 50.6642 26.9297 50.311 27.9203V35.2891C50.6245 34.8543 51.0548 34.5172 51.552 34.317C52.0493 34.1167 52.5931 34.0616 53.1204 34.1578C53.2029 34.1682 53.2778 34.2109 53.3288 34.2765C53.3798 34.3422 53.4026 34.4254 53.3923 34.5078C53.3819 34.5903 53.3392 34.6653 53.2736 34.7162C53.208 34.7672 53.1248 34.7901 53.0423 34.7797C50.8923 34.5078 50.3704 36.4513 50.311 36.7013V59.7188C50.311 63.181 52.8517 66 55.9763 66C58.0201 66 59.8951 64.7563 60.867 62.7563C60.8701 62.75 60.8763 62.7469 60.8795 62.7406C60.89 62.7235 60.9026 62.7078 60.917 62.6938C60.9289 62.6777 60.9425 62.6631 60.9576 62.65C60.9721 62.6388 60.9878 62.6294 61.0045 62.6219C61.0228 62.6104 61.0428 62.602 61.0638 62.5969L61.0826 62.5875C62.1779 62.3269 63.1522 61.702 63.846 60.8153C64.5397 59.9285 64.9117 58.8324 64.901 57.7066C64.8981 57.3234 64.852 56.9419 64.7635 56.5691C64.7651 56.5577 64.7651 56.5461 64.7635 56.5347C64.762 56.5149 64.762 56.4951 64.7635 56.4753C64.7639 56.4585 64.766 56.4417 64.7698 56.4253C64.7769 56.3981 64.7874 56.3718 64.801 56.3472C64.804 56.3393 64.8082 56.3319 64.8135 56.3253C64.8333 56.2966 64.8576 56.2713 64.8854 56.2503L64.8917 56.2441C64.9073 56.2347 64.9167 56.2222 64.9323 56.2128C65.5569 55.8875 66.1071 55.4359 66.5479 54.8867C66.9888 54.3375 67.3107 53.7027 67.4931 53.0225C67.6756 52.3423 67.7147 51.6316 67.6079 50.9354C67.5012 50.2393 67.2509 49.573 66.8729 48.9788ZM59.517 55.716C59.0893 55.7299 58.6642 55.7875 58.2482 55.8878C58.1909 55.9399 58.1163 55.9689 58.0388 55.9691H58.0313C58.011 55.9679 57.991 55.9637 57.972 55.9566C56.5001 56.3659 54.5063 57.4722 54.5313 60.4566C54.5313 60.5397 54.4984 60.6195 54.4399 60.6786C54.3814 60.7377 54.302 60.7713 54.2188 60.7722C54.178 60.7724 54.1375 60.7646 54.0997 60.7492C54.0619 60.7338 54.0275 60.7111 53.9984 60.6823C53.9694 60.6536 53.9463 60.6194 53.9305 60.5817C53.9147 60.5441 53.9065 60.5037 53.9063 60.4628C53.8785 57.1597 56.072 55.8878 57.722 55.3972C57.6626 50.2381 53.0504 49.7569 52.8504 49.7381C52.7679 49.7299 52.6918 49.6896 52.6386 49.6259C52.5855 49.5622 52.5594 49.4802 52.566 49.3975C52.5739 49.3151 52.6143 49.2391 52.6781 49.1864C52.742 49.1336 52.8242 49.1084 52.9067 49.1163C52.9598 49.1194 58.1907 49.6444 58.3442 55.2413C58.7276 55.1576 59.1176 55.1074 59.5098 55.0913H59.5129C59.5958 55.0908 59.6754 55.1234 59.7343 55.1817C59.7932 55.24 59.8266 55.3193 59.827 55.4022C59.8274 55.4851 59.7949 55.5647 59.7365 55.6236C59.6782 55.6825 59.5989 55.7158 59.516 55.7163L59.517 55.716ZM61.6138 47.6444H61.592C58.3982 47.4163 57.6982 44.8881 57.5545 44.0416C56.1735 43.9126 54.8949 43.2582 53.9826 42.2134C53.9313 42.1505 53.9065 42.07 53.9135 41.9891C53.9205 41.9082 53.9587 41.8332 54.0201 41.78C54.0814 41.7268 54.1611 41.6995 54.2421 41.704C54.3232 41.7085 54.3994 41.7444 54.4545 41.8041C54.9074 42.3219 55.4663 42.7364 56.0933 43.0194C56.7204 43.3025 57.4009 43.4475 58.0888 43.4447C59.3261 43.4633 60.5203 42.9904 61.4095 42.1299C62.2987 41.2693 62.8103 40.0913 62.8323 38.8541C62.8323 38.7712 62.8652 38.6917 62.9238 38.6331C62.9824 38.5745 63.0619 38.5416 63.1448 38.5416C63.2277 38.5416 63.3071 38.5745 63.3658 38.6331C63.4244 38.6917 63.4573 38.7712 63.4573 38.8541C63.4355 40.2392 62.8714 41.5607 61.8861 42.5345C60.9008 43.5083 59.5729 44.057 58.1876 44.0625C58.3407 44.8684 58.9845 46.8309 61.6345 47.0184C61.7174 47.0213 61.7957 47.0571 61.8522 47.1177C61.9088 47.1784 61.9389 47.259 61.936 47.3419C61.9331 47.4248 61.8974 47.5031 61.8368 47.5597C61.7761 47.6162 61.6955 47.6464 61.6126 47.6434L61.6138 47.6444Z" fill="white"/>
<path d="M46.8796 34.1563C47.4068 34.0595 47.9507 34.1145 48.4479 34.315C48.945 34.5155 49.3749 34.8533 49.6874 35.2888V27.92C49.3374 26.9297 48.7687 26.3391 47.9593 26.1075C45.989 25.5516 43.1205 27.2813 41.6424 28.3125C42.3651 28.349 43.0645 28.5799 43.6668 28.9808C44.2691 29.3818 44.7519 29.938 45.0643 30.5907C45.1016 30.6648 45.1079 30.7508 45.0818 30.8296C45.0557 30.9085 44.9994 30.9737 44.9252 31.011C44.851 31.0483 44.7651 31.0546 44.6863 31.0285C44.6074 31.0024 44.5422 30.9461 44.5049 30.8719C44.2377 30.3044 43.818 29.8224 43.2926 29.4797C42.7672 29.137 42.157 28.9472 41.5299 28.9313C39.6455 28.9313 38.1143 30.6438 38.1143 32.7469C38.1134 33.2275 38.1969 33.7046 38.3612 34.1563H38.3862C41.3549 34.1563 43.7737 36.6622 43.7737 39.7466C43.7737 39.8295 43.7407 39.909 43.6821 39.9676C43.6235 40.0262 43.544 40.0591 43.4612 40.0591C43.3783 40.0591 43.2988 40.0262 43.2402 39.9676C43.1816 39.909 43.1487 39.8295 43.1487 39.7466C43.1487 37.006 41.0112 34.7813 38.3862 34.7813C35.7612 34.7813 33.6208 37.0072 33.6208 39.7479C33.6204 40.2759 33.7016 40.8009 33.8615 41.3041C33.88 41.3462 33.8889 41.392 33.8872 41.438C33.8856 41.484 33.8736 41.529 33.8521 41.5697C33.8498 41.5744 33.8466 41.5787 33.8427 41.5822C33.8319 41.6081 33.816 41.6315 33.7958 41.651C33.3271 42.119 32.9568 42.6762 32.7067 43.2896C32.4566 43.9029 32.3318 44.5602 32.3396 45.2225C32.3396 47.9569 34.474 50.1819 37.099 50.1819C37.1455 50.1819 37.1955 50.1819 37.2424 50.1788C37.3243 50.1798 37.4028 50.2115 37.4624 50.2677C37.522 50.3238 37.5583 50.4003 37.5643 50.4819C37.5659 50.523 37.5593 50.564 37.5449 50.6026C37.5305 50.6411 37.5086 50.6764 37.4804 50.7064C37.4522 50.7363 37.4183 50.7604 37.3807 50.7771C37.3431 50.7938 37.3026 50.8029 37.2615 50.8038C37.208 50.8069 37.1518 50.8069 37.099 50.8069C36.3445 50.8034 35.5995 50.6384 34.914 50.3231C34.2286 50.0078 33.6185 49.5494 33.1249 48.9788C32.748 49.5733 32.4986 50.2396 32.3925 50.9355C32.2863 51.6314 32.3256 52.3417 32.508 53.0216C32.6904 53.7015 33.0119 54.3362 33.4521 54.8855C33.8923 55.4348 34.4417 55.8867 35.0655 56.2129C35.0796 56.2225 35.0932 56.2329 35.1062 56.2441C35.1093 56.2472 35.1124 56.2472 35.1155 56.2504C35.1426 56.2722 35.1667 56.2974 35.1874 56.3254C35.1904 56.3333 35.1946 56.3407 35.1999 56.3472C35.2125 56.372 35.222 56.3982 35.228 56.4254C35.2329 56.4416 35.2361 56.4584 35.2374 56.4754C35.2379 56.4952 35.2369 56.515 35.2343 56.5347C35.2358 56.5461 35.2358 56.5577 35.2343 56.5691C35.1474 56.9422 35.1013 57.3236 35.0968 57.7066C35.0862 58.8327 35.4585 59.9291 36.1527 60.8159C36.8469 61.7027 37.8217 62.3274 38.9174 62.5875C38.9233 62.5913 38.9296 62.5944 38.9362 62.5969C38.9555 62.6039 38.9743 62.6123 38.9924 62.6219C39.0097 62.6301 39.0264 62.6395 39.0424 62.65C39.0557 62.6628 39.0683 62.6764 39.0799 62.6907C39.0959 62.7064 39.1096 62.7243 39.1205 62.7438C39.1237 62.7469 39.1299 62.75 39.1299 62.7563C40.1049 64.7563 41.9768 66 44.0237 66C47.1452 66 49.6874 63.1813 49.6874 59.7188V36.701C49.6312 36.451 49.1093 34.5107 46.9562 34.7794C46.8737 34.7894 46.7907 34.7661 46.7253 34.7149C46.66 34.6636 46.6177 34.5884 46.6077 34.506C46.5978 34.4235 46.621 34.3405 46.6723 34.2751C46.7236 34.2098 46.7987 34.1675 46.8812 34.1575L46.8796 34.1563ZM38.408 47.6444H38.3862C38.3033 47.6473 38.2226 47.6172 38.162 47.5606C38.1013 47.5041 38.0656 47.4257 38.0627 47.3429C38.0598 47.26 38.09 47.1793 38.1465 47.1187C38.2031 47.058 38.2814 47.0223 38.3643 47.0194C41.0112 46.8319 41.658 44.8694 41.8112 44.0635C40.4254 44.0583 39.097 43.5097 38.1113 42.5356C37.1256 41.5615 36.5613 40.2397 36.5396 38.8541C36.5396 38.7712 36.5725 38.6917 36.6311 38.6331C36.6897 38.5745 36.7692 38.5416 36.8521 38.5416C36.935 38.5416 37.0145 38.5745 37.0731 38.6331C37.1317 38.6917 37.1646 38.7712 37.1646 38.8541C37.1866 40.0914 37.6984 41.2694 38.5876 42.1299C39.4768 42.9905 40.671 43.4633 41.9083 43.4447C42.5964 43.4482 43.2771 43.3034 43.9043 43.0203C44.5314 42.7372 45.0902 42.3224 45.5427 41.8041C45.569 41.7712 45.6017 41.7439 45.6387 41.7239C45.6758 41.704 45.7166 41.6917 45.7585 41.6878C45.8005 41.684 45.8428 41.6887 45.8829 41.7016C45.9229 41.7146 45.96 41.7355 45.9918 41.7631C46.0236 41.7907 46.0495 41.8244 46.068 41.8623C46.0864 41.9002 46.097 41.9414 46.0991 41.9835C46.1012 42.0256 46.0947 42.0676 46.0802 42.1071C46.0656 42.1467 46.0432 42.1828 46.0143 42.2135C45.1034 43.2581 43.8258 43.9126 42.4458 44.0416C42.2987 44.8882 41.6018 47.4163 38.408 47.6444ZM47.0937 49.1163C47.1344 49.1121 47.1755 49.1161 47.2147 49.1281C47.2538 49.14 47.2902 49.1597 47.3216 49.1859C47.353 49.2121 47.3789 49.2443 47.3977 49.2807C47.4166 49.317 47.4279 49.3567 47.4312 49.3975C47.4384 49.4804 47.4125 49.5627 47.3592 49.6265C47.3059 49.6903 47.2296 49.7305 47.1468 49.7382C46.9499 49.7569 42.3343 50.2382 42.2752 55.3972C43.9252 55.8879 46.119 57.1597 46.0937 60.4628C46.0928 60.5452 46.0595 60.6239 46.001 60.6818C45.9425 60.7397 45.8635 60.7722 45.7812 60.7722H45.778C45.737 60.7718 45.6964 60.7633 45.6587 60.7472C45.6209 60.7312 45.5867 60.7078 45.558 60.6785C45.5292 60.6492 45.5066 60.6145 45.4912 60.5764C45.4759 60.5384 45.4682 60.4976 45.4687 60.4566C45.4905 57.4691 43.5065 56.366 42.0312 55.9566C42.0097 55.9626 41.9877 55.9667 41.9655 55.9691H41.9624C41.922 55.9696 41.8818 55.9622 41.8443 55.9472C41.8068 55.9322 41.7726 55.9099 41.7437 55.8816C41.3306 55.7836 40.9086 55.7281 40.4843 55.716C40.4014 55.7156 40.3221 55.6822 40.2638 55.6233C40.2055 55.5644 40.1729 55.4848 40.1733 55.4019C40.1738 55.319 40.2071 55.2397 40.266 55.1814C40.3249 55.1231 40.4045 55.0906 40.4874 55.091H40.4905C40.8817 55.107 41.2706 55.1572 41.653 55.241C41.808 49.6444 47.0358 49.1194 47.0937 49.1163Z" fill="white"/>
</g>
<defs>
<filter id="filter0_d_211_13" x="0" y="0" width="100" height="100" filterUnits="userSpaceOnUse" color-interpolation-filters="sRGB">
<feFlood flood-opacity="0" result="BackgroundImageFix"/>
<feColorMatrix in="SourceAlpha" type="matrix" values="0 0 0 0 0 0 0 0 0 0 0 0 0 0 0 0 0 0 127 0" result="hardAlpha"/>
<feOffset dy="4"/>
<feGaussianBlur stdDeviation="10"/>
<feComposite in2="hardAlpha" operator="out"/>
<feColorMatrix type="matrix" values="0 0 0 0 0.0991667 0 0 0 0 0.35 0 0 0 0 0.290815 0 0 0 0.08 0"/>
<feBlend mode="normal" in2="BackgroundImageFix" result="effect1_dropShadow_211_13"/>
<feBlend mode="normal" in="SourceGraphic" in2="effect1_dropShadow_211_13" result="shape"/>
</filter>
<clipPath id="clip0_211_13">
<rect width="40" height="40" fill="white" transform="translate(30 26)"/>
</clipPath>
</defs>
</svg>
