<svg width="100" height="100" viewBox="0 0 100 100" fill="none" xmlns="http://www.w3.org/2000/svg">
<rect x="10.5" y="6.5" width="79" height="79" rx="4.5" stroke="#00D9A4"/>
<mask id="mask0_212_19" style="mask-type:alpha" maskUnits="userSpaceOnUse" x="10" y="6" width="80" height="80">
<rect x="10.5" y="6.5" width="79" height="79" rx="4.5" stroke="#00D9A4"/>
</mask>
<g mask="url(#mask0_212_19)">
<path d="M-4.70286 40.5164C-5.87021 47.836 -5.58441 55.314 -3.86178 62.5232C-2.13915 69.7324 0.98657 76.5317 5.33693 82.533C9.68728 88.5342 15.1771 93.6198 21.4928 97.4994C27.8086 101.379 34.8267 103.977 42.1464 105.144C49.466 106.311 56.9439 106.026 64.1532 104.303C71.3624 102.58 78.1617 99.4546 84.163 95.1042C90.1642 90.7539 95.2498 85.2641 99.1294 78.9483C103.009 72.6325 105.607 65.6145 106.774 58.2948L51.0356 49.4056L-4.70286 40.5164Z" fill="#CCE0DB"/>
</g>
<g filter="url(#filter0_d_212_19)">
<rect x="20" y="16" width="60" height="60" rx="5" fill="#00D9A4"/>
</g>
<path d="M64.862 32.6756L65.737 32.0938C66.0785 31.8661 66.3719 31.5734 66.6003 31.2324C66.8287 30.8914 66.9877 30.5087 67.0682 30.1063L67.487 28C67.5055 27.9092 67.5036 27.8155 67.4815 27.7255C67.4593 27.6356 67.4174 27.5517 67.3589 27.4799C67.3003 27.4081 67.2265 27.3503 67.1429 27.3105C67.0592 27.2707 66.9677 27.2501 66.8751 27.25H65.1876C65.0386 27.25 64.8945 27.3032 64.7813 27.4C64.6681 27.4969 64.5932 27.6309 64.5701 27.7781L63.8982 32.0581C63.8793 32.178 63.8958 32.3009 63.9455 32.4116C63.9953 32.5223 64.0762 32.6161 64.1784 32.6816C64.2807 32.7471 64.3997 32.7814 64.5211 32.7804C64.6425 32.7793 64.7609 32.7429 64.862 32.6756Z" fill="white"/>
<path d="M32.9314 30.1063C33.0119 30.5087 33.1709 30.8914 33.3993 31.2324C33.6277 31.5734 33.9211 31.8661 34.2626 32.0938L35.1376 32.6788C35.2386 32.7465 35.3571 32.7833 35.4787 32.7847C35.6003 32.7861 35.7196 32.752 35.8221 32.6866C35.9246 32.6212 36.0058 32.5273 36.0557 32.4165C36.1057 32.3056 36.1222 32.1826 36.1033 32.0625L35.4295 27.7781C35.4064 27.6311 35.3316 27.497 35.2185 27.4002C35.1054 27.3034 34.9615 27.2501 34.8126 27.25H33.1251C33.0324 27.25 32.9409 27.2706 32.8572 27.3103C32.7734 27.35 32.6995 27.4079 32.6409 27.4797C32.5823 27.5515 32.5404 27.6354 32.5182 27.7254C32.496 27.8154 32.4941 27.9092 32.5126 28L32.9314 30.1063Z" fill="white"/>
<path d="M31.875 64.75H68.125C68.2908 64.75 68.4498 64.6842 68.567 64.5669C68.6842 64.4497 68.75 64.2908 68.75 64.125V60.3062C68.7515 59.9329 68.64 59.5678 68.4303 59.2589C68.2207 58.9499 67.9225 58.7115 67.575 58.575C61.72 56.25 58.105 47.8869 58.7081 41.9375C58.7177 41.8193 58.6934 41.7008 58.6382 41.5958C58.5829 41.4909 58.4989 41.4039 58.396 41.3449C58.2931 41.2859 58.1756 41.2574 58.0571 41.2627C57.9386 41.2681 57.8241 41.307 57.7269 41.375L55.5338 42.92C54.2735 43.8323 52.8113 44.4265 51.2719 44.6519C48.933 44.9736 46.5591 44.3955 44.63 43.0344L42.2738 41.375C42.1766 41.3072 42.0621 41.2684 41.9438 41.2632C41.8254 41.2579 41.7079 41.2865 41.6052 41.3454C41.5024 41.4044 41.4185 41.4914 41.3632 41.5962C41.308 41.701 41.2837 41.8194 41.2931 41.9375C41.8963 47.8887 38.2813 56.25 32.4263 58.5769C32.0788 58.7131 31.7806 58.9511 31.5707 59.2597C31.3608 59.5683 31.2491 59.9331 31.25 60.3062V64.125C31.25 64.2908 31.3159 64.4497 31.4331 64.5669C31.5503 64.6842 31.7092 64.75 31.875 64.75ZM50.64 54.7231C50.4469 54.6066 50.2256 54.545 50 54.545C49.7744 54.545 49.5531 54.6066 49.36 54.7231C48.3438 55.3275 46.7925 54.6675 45.9925 53.3556C45.18 52.035 45.3488 50.515 46.3756 49.96C47.2063 49.4637 48.4063 49.8975 49.2231 50.7187C49.4312 50.921 49.7099 51.0342 50 51.0342C50.2902 51.0342 50.5689 50.921 50.7769 50.7187C51.5938 49.8994 52.7938 49.4637 53.6238 49.96C54.6513 50.515 54.8231 52.035 54.0075 53.3556C53.2081 54.6675 51.6563 55.3275 50.64 54.7231ZM50 46C54.1375 46 57.5 48.8062 57.5 52.25C57.5 54.875 55.5125 57.2375 52.5563 58.125C52.4758 58.1564 52.3897 58.1708 52.3033 58.1673C52.217 58.1637 52.1323 58.1423 52.0547 58.1044C51.977 58.0665 51.9081 58.0129 51.8522 57.947C51.7964 57.8811 51.7547 57.8043 51.73 57.7215C51.7053 57.6387 51.6981 57.5517 51.7087 57.466C51.7193 57.3802 51.7476 57.2976 51.7918 57.2233C51.8359 57.1491 51.895 57.0848 51.9653 57.0345C52.0355 56.9842 52.1155 56.9491 52.2 56.9312C54.6188 56.2 56.25 54.3187 56.25 52.25C56.25 49.4944 53.4444 47.25 50 47.25C46.5569 47.25 43.75 49.4944 43.75 52.25C43.75 54.3187 45.3813 56.2 47.8 56.9312C47.8846 56.9491 47.9645 56.9842 48.0348 57.0345C48.105 57.0848 48.1641 57.1491 48.2083 57.2233C48.2524 57.2976 48.2807 57.3802 48.2914 57.466C48.302 57.5517 48.2947 57.6387 48.27 57.7215C48.2453 57.8043 48.2037 57.8811 48.1478 57.947C48.0919 58.0129 48.023 58.0665 47.9453 58.1044C47.8677 58.1423 47.783 58.1637 47.6967 58.1673C47.6104 58.1708 47.5243 58.1564 47.4438 58.125C44.4888 57.2375 42.5 54.875 42.5 52.25C42.5 48.8062 45.8631 46 50 46Z" fill="white"/>
<path d="M39.648 38L45.3499 42.0156C46.7132 42.9688 48.3365 43.48 49.9999 43.48C51.6634 43.48 53.2866 42.9688 54.6499 42.0156L60.3518 38C60.8464 37.6503 61.2634 37.2021 61.5766 36.6836C61.8898 36.1651 62.0925 35.5874 62.1718 34.9869L63.2743 27.9719C63.2883 27.8827 63.2828 27.7915 63.2582 27.7047C63.2336 27.6178 63.1905 27.5373 63.1318 27.4687C63.0731 27.4001 63.0003 27.3451 62.9183 27.3073C62.8363 27.2695 62.7471 27.25 62.6568 27.25H37.3443C37.254 27.25 37.1648 27.2695 37.0828 27.3073C37.0008 27.3451 36.928 27.4001 36.8693 27.4687C36.8106 27.5373 36.7675 27.6178 36.7429 27.7047C36.7183 27.7915 36.7128 27.8827 36.7268 27.9719L37.8293 34.985C37.9082 35.5858 38.1105 36.1637 38.4235 36.6826C38.7365 37.2014 39.1534 37.65 39.648 38ZM51.4187 38.4769C50.4919 38.7456 49.5079 38.7456 48.5812 38.4769C48.4969 38.4598 48.4171 38.4255 48.3467 38.3762C48.2762 38.3268 48.2168 38.2635 48.1719 38.1901C48.1271 38.1167 48.0979 38.0349 48.0862 37.9497C48.0744 37.8646 48.0804 37.7779 48.1036 37.6951C48.1269 37.6123 48.167 37.5353 48.2215 37.4687C48.2759 37.4021 48.3435 37.3475 48.42 37.3083C48.4965 37.269 48.5802 37.246 48.666 37.2406C48.7519 37.2352 48.8379 37.2475 48.9187 37.2769C49.6248 37.4831 50.3751 37.4831 51.0812 37.2769C51.162 37.2475 51.248 37.2352 51.3338 37.2406C51.4196 37.246 51.5034 37.269 51.5799 37.3083C51.6564 37.3475 51.724 37.4021 51.7784 37.4687C51.8328 37.5353 51.8729 37.6123 51.8962 37.6951C51.9195 37.7779 51.9254 37.8646 51.9137 37.9497C51.9019 38.0349 51.8727 38.1167 51.8279 38.1901C51.7831 38.2635 51.7236 38.3268 51.6532 38.3762C51.5828 38.4255 51.5029 38.4598 51.4187 38.4769ZM46.5687 35.4581C47.6456 34.9773 48.8226 34.7629 49.9999 34.8331C51.1773 34.7629 52.3542 34.9773 53.4312 35.4581C53.5024 35.4977 53.5651 35.551 53.6156 35.6149C53.6661 35.6788 53.7035 35.7521 53.7256 35.8306C53.7477 35.909 53.754 35.991 53.7442 36.0719C53.7345 36.1528 53.7088 36.231 53.6687 36.3019C53.5894 36.4464 53.4563 36.5537 53.2983 36.6005C53.1402 36.6474 52.9701 36.6299 52.8249 36.5519C51.9296 36.1882 50.9648 36.0274 49.9999 36.0813C49.0352 36.0268 48.0704 36.1869 47.1749 36.55C47.0297 36.628 46.8596 36.6455 46.7016 36.5987C46.5436 36.5518 46.4104 36.4445 46.3312 36.3C46.2911 36.2291 46.2654 36.1509 46.2556 36.07C46.2458 35.9891 46.2522 35.9071 46.2743 35.8287C46.2963 35.7502 46.3337 35.677 46.3842 35.613C46.4348 35.5491 46.4975 35.4958 46.5687 35.4563V35.4581Z" fill="white"/>
<defs>
<filter id="filter0_d_212_19" x="0" y="0" width="100" height="100" filterUnits="userSpaceOnUse" color-interpolation-filters="sRGB">
<feFlood flood-opacity="0" result="BackgroundImageFix"/>
<feColorMatrix in="SourceAlpha" type="matrix" values="0 0 0 0 0 0 0 0 0 0 0 0 0 0 0 0 0 0 127 0" result="hardAlpha"/>
<feOffset dy="4"/>
<feGaussianBlur stdDeviation="10"/>
<feComposite in2="hardAlpha" operator="out"/>
<feColorMatrix type="matrix" values="0 0 0 0 0.0991667 0 0 0 0 0.35 0 0 0 0 0.290815 0 0 0 0.08 0"/>
<feBlend mode="normal" in2="BackgroundImageFix" result="effect1_dropShadow_212_19"/>
<feBlend mode="normal" in="SourceGraphic" in2="effect1_dropShadow_212_19" result="shape"/>
</filter>
</defs>
</svg>
