<svg width="100" height="100" viewBox="0 0 100 100" fill="none" xmlns="http://www.w3.org/2000/svg">
<rect x="10.5" y="6.5" width="79" height="79" rx="4.5" stroke="#00D9A4"/>
<mask id="mask0_212_20" style="mask-type:alpha" maskUnits="userSpaceOnUse" x="10" y="6" width="80" height="80">
<rect x="10.5" y="6.5" width="79" height="79" rx="4.5" stroke="#00D9A4"/>
</mask>
<g mask="url(#mask0_212_20)">
<path d="M-4.70286 40.5164C-5.87021 47.836 -5.58441 55.314 -3.86178 62.5232C-2.13915 69.7324 0.98657 76.5317 5.33693 82.533C9.68728 88.5342 15.1771 93.6198 21.4928 97.4994C27.8086 101.379 34.8267 103.977 42.1464 105.144C49.466 106.311 56.9439 106.026 64.1532 104.303C71.3624 102.58 78.1617 99.4546 84.163 95.1042C90.1642 90.7539 95.2498 85.2641 99.1294 78.9483C103.009 72.6325 105.607 65.6145 106.774 58.2948L51.0356 49.4056L-4.70286 40.5164Z" fill="#CCE0DB"/>
</g>
<g filter="url(#filter0_d_212_20)">
<rect x="20" y="16" width="60" height="60" rx="5" fill="#00D9A4"/>
</g>
<path d="M61.5717 51.2336C63.862 51.0913 63.394 50.5801 63.394 50.5801C61.8988 49.1775 64.2815 48.3364 64.2815 48.3364C69.2336 47.0766 68.6374 44.6183 68.4385 43.1529C67.9167 39.3724 64.5846 37.4569 62.3334 36.5193C57.0698 34.3269 54.51 37.3885 52.7425 39.1352C52.2548 39.6169 51.2491 40.2557 50.2661 40.303H49.837C48.8558 40.2557 47.8478 39.6169 47.3611 39.1352C45.5921 37.3862 43.0338 34.3269 37.7704 36.5193C35.5202 37.4569 32.1879 39.3724 31.6659 43.1529C31.464 44.6183 30.8728 47.0754 35.8231 48.3364C35.8231 48.3364 38.2055 49.1775 36.7106 50.5801C36.7106 50.5801 36.2447 51.0913 38.5334 51.2336C38.5334 51.2336 40.6897 54.0326 41.9412 52.7759C42.6463 52.07 43.2495 51.56 45.6806 53.8971C45.6806 53.8971 47.4082 55.2513 49.3703 54.222C49.3703 54.222 50.9116 53.5214 48.4821 52.7761C48.4821 52.7761 41.366 51.5121 42.364 46.235C43.1571 42.0312 47.5968 45.0742 49.0437 45.9091C49.2769 46.0431 49.5392 46.1503 50.0522 46.1869C50.5637 46.1503 50.8277 46.0431 51.0594 45.9091C52.5083 45.0742 56.9471 42.0312 57.7401 46.235C58.7368 51.5109 51.6198 52.7761 51.6198 52.7761C49.194 53.5229 50.7338 54.222 50.7338 54.222C52.6959 55.2488 54.4231 53.8971 54.4231 53.8971C56.8534 51.56 57.4563 52.07 58.1602 52.7759C59.4152 54.0344 61.5717 51.2336 61.5717 51.2336Z" fill="white"/>
<path d="M50.1659 46.1961L50.0524 46.1856L49.9395 46.1961H50.1659Z" fill="white"/>
<path d="M40.0287 53.7546L38.4877 52.5865C37.3199 51.465 36.7124 52.2604 36.7124 52.2604C35.731 54.4096 34.0972 53.2416 34.0972 53.2416C33.957 51.9821 33.6328 51.7944 33.2563 51.6517C30.7707 50.7278 30.7807 53.8463 30.7807 53.8463C29.053 55.8567 30.7329 57.2086 30.7329 57.2086C32.2757 58.0966 31.8085 61.6003 31.8085 61.6003L35.9642 61.695C35.9642 61.695 35.2891 58.2297 35.9642 57.3983C36.5358 56.6934 36.9847 55.6829 37.5528 55.3883C38.0095 55.1528 39.6094 55.2954 39.6094 55.2954C41.2431 54.5494 40.0287 53.7546 40.0287 53.7546Z" fill="white"/>
<path d="M69.2173 53.8488C69.2173 53.8488 69.2296 50.7278 66.7417 51.6544C66.3662 51.7954 66.0433 51.9821 65.9028 53.2431C65.9028 53.2431 64.2675 54.4109 63.2876 52.2616C63.2876 52.2616 62.6804 51.4696 61.5123 52.588L59.9695 53.7558C59.9695 53.7558 58.7534 54.5494 60.3886 55.2991C60.3886 55.2991 61.9908 55.1553 62.4479 55.3923C63.0135 55.6844 63.4647 56.6964 64.0363 57.4005C64.7091 58.2337 64.0363 61.6978 64.0363 61.6978L68.192 61.6058C68.192 61.6058 67.7254 58.1024 69.2669 57.2156C69.2666 57.2114 70.9485 55.857 69.2173 53.8488Z" fill="white"/>
<path d="M47.5971 36.7996V37.8271C47.6895 38.668 48.5768 38.901 48.5768 38.901H49.9334H50.0715H51.4256C51.4256 38.901 52.3136 38.668 52.4083 37.8271V36.7996C52.4083 36.7996 54.7895 34.9299 54.1826 34.4632C54.1826 34.4632 53.9489 33.872 51.4737 35.865H50.0552H49.9485H48.5307C46.0535 33.872 45.8201 34.4632 45.8201 34.4632C45.2134 34.9299 47.5971 36.7996 47.5971 36.7996Z" fill="white"/>
<path d="M47.5971 32.7198V33.7471C47.6895 34.588 48.5768 34.8212 48.5768 34.8212H49.9334H50.0715H51.4256C51.4256 34.8212 52.3136 34.588 52.4083 33.7471V32.7198C52.4083 32.7198 54.7895 30.8501 54.1826 30.3842C54.1826 30.3842 53.9489 29.7932 51.4737 31.7862H50.0552H49.9485H48.5307C46.0535 29.7932 45.8201 30.3842 45.8201 30.3842C45.2134 30.8513 47.5971 32.7198 47.5971 32.7198Z" fill="white"/>
<defs>
<filter id="filter0_d_212_20" x="0" y="0" width="100" height="100" filterUnits="userSpaceOnUse" color-interpolation-filters="sRGB">
<feFlood flood-opacity="0" result="BackgroundImageFix"/>
<feColorMatrix in="SourceAlpha" type="matrix" values="0 0 0 0 0 0 0 0 0 0 0 0 0 0 0 0 0 0 127 0" result="hardAlpha"/>
<feOffset dy="4"/>
<feGaussianBlur stdDeviation="10"/>
<feComposite in2="hardAlpha" operator="out"/>
<feColorMatrix type="matrix" values="0 0 0 0 0.0991667 0 0 0 0 0.35 0 0 0 0 0.290815 0 0 0 0.08 0"/>
<feBlend mode="normal" in2="BackgroundImageFix" result="effect1_dropShadow_212_20"/>
<feBlend mode="normal" in="SourceGraphic" in2="effect1_dropShadow_212_20" result="shape"/>
</filter>
</defs>
</svg>
