<svg width="158" height="994" viewBox="0 0 158 994" fill="none" xmlns="http://www.w3.org/2000/svg">
<line opacity="0.1" x1="-45.0273" y1="345.516" x2="28.5412" y2="11.6552" stroke="#005944"/>
<line opacity="0.1" x1="142.515" y1="228.058" x2="-44.1853" y2="346.128" stroke="#005944"/>
<line opacity="0.1" x1="142.675" y1="227.896" x2="-65.7303" y2="569.532" stroke="#005944"/>
<line opacity="0.1" x1="153.574" y1="549.12" x2="-264.499" y2="754.829" stroke="#005944"/>
<line opacity="0.1" x1="153.4" y1="549.169" x2="-199.387" y2="582.164" stroke="#005944"/>
<line opacity="0.1" x1="152.995" y1="549.02" x2="-44.7824" y2="346.025" stroke="#005944"/>
<line opacity="0.1" x1="29.1684" y1="12.241" x2="-132.408" y2="59.0473" stroke="#005944"/>
<line opacity="0.1" x1="29.4728" y1="11.5298" x2="141.087" y2="225.87" stroke="#005944"/>
<circle cx="28.243" cy="11.7778" r="8.33049" transform="rotate(-46.2756 28.243 11.7778)" fill="#00D9A4"/>
<circle r="5.55366" transform="matrix(0.691193 -0.72267 0.722676 0.691187 140.678 227.673)" fill="#BDD3CE"/>
<circle cx="149.383" cy="548.004" r="5.55366" transform="rotate(-46.2756 149.383 548.004)" fill="#BDD3CE"/>
<circle r="5.55366" transform="matrix(0.691193 -0.72267 0.722676 0.691187 27.0943 418.745)" fill="#00D9A4"/>
</svg>
