<svg width="25" height="25" viewBox="0 0 25 25" fill="none" xmlns="http://www.w3.org/2000/svg">
<g opacity="0.7">
<path d="M1.79359 23.2075C1.86615 23.2801 1.95231 23.3377 2.04715 23.377C2.14199 23.4164 2.24365 23.4366 2.34632 23.4366C2.44899 23.4366 2.55065 23.4164 2.64549 23.377C2.74034 23.3377 2.8265 23.2801 2.89906 23.2075L12.5006 13.6059L22.1061 23.2075C22.2527 23.3541 22.4515 23.4364 22.6588 23.4364C22.8661 23.4364 23.065 23.3541 23.2116 23.2075C23.3581 23.0609 23.4405 22.862 23.4405 22.6547C23.4405 22.4474 23.3581 22.2486 23.2116 22.102L13.6061 12.5004L23.2076 2.89497C23.3542 2.74837 23.4366 2.54955 23.4366 2.34223C23.4366 2.13492 23.3542 1.93609 23.2076 1.7895C23.0611 1.6429 22.8622 1.56055 22.6549 1.56055C22.4476 1.56055 22.2488 1.6429 22.1022 1.7895L12.5006 11.395L2.89515 1.7934C2.7457 1.66541 2.55345 1.59853 2.35683 1.60613C2.16021 1.61372 1.97369 1.69523 1.83455 1.83437C1.69542 1.97351 1.61391 2.16002 1.60631 2.35664C1.59872 2.55326 1.6656 2.74551 1.79359 2.89497L11.3951 12.5004L1.79359 22.1059C1.64808 22.2523 1.56641 22.4503 1.56641 22.6567C1.56641 22.8631 1.64808 23.0611 1.79359 23.2075Z" fill="black"/>
</g>
</svg>
