<svg width="353" height="868" viewBox="0 0 353 868" fill="none" xmlns="http://www.w3.org/2000/svg">
<line opacity="0.1" y1="-0.5" x2="251.653" y2="-0.5" transform="matrix(0.801174 -0.598432 -0.744212 -0.667944 -197.505 758.5)" stroke="#005944"/>
<line opacity="0.1" y1="-0.5" x2="216.563" y2="-0.5" transform="matrix(0.480075 -0.877228 -0.877228 -0.480075 -8.77588 467.061)" stroke="#005944"/>
<line opacity="0.1" y1="-0.5" x2="247.321" y2="-0.5" transform="matrix(0.814549 -0.580095 -0.580095 -0.814549 95.2681 277.141)" stroke="#005944"/>
<line opacity="0.1" y1="-0.5" x2="163.011" y2="-0.5" transform="matrix(0.667208 -0.744872 -0.744872 -0.667208 88.0249 635.75)" stroke="#005944"/>
<line opacity="0.1" y1="-0.5" x2="169.182" y2="-0.5" transform="matrix(-0.067006 0.997753 0.997753 0.067006 106.515 108.312)" stroke="#005944"/>
<line opacity="0.1" y1="-0.5" x2="247.094" y2="-0.5" transform="matrix(0.866419 0.499319 0.499319 -0.866419 106.515 108.312)" stroke="#005944"/>
<line opacity="0.1" y1="-0.5" x2="306.489" y2="-0.5" transform="matrix(-0.502246 0.864725 0.864725 0.502246 106.515 108.312)" stroke="#005944"/>
<line opacity="0.1" y1="-0.5" x2="235.637" y2="-0.5" transform="matrix(0.952085 0.305835 0.305835 -0.952085 -135.196 563.154)" stroke="#005944"/>
<line opacity="0.1" y1="-0.5" x2="193.298" y2="-0.5" transform="matrix(0.497989 0.867184 0.867184 -0.497989 -7.10742 467.596)" stroke="#005944"/>
<line opacity="0.1" y1="-0.5" x2="217.057" y2="-0.5" transform="matrix(0.96228 0.272063 0.272063 -0.96228 -113.678 218.031)" stroke="#005944"/>
<line opacity="0.1" y1="-0.5" x2="230.053" y2="-0.5" transform="matrix(0.980246 -0.197784 -0.197784 -0.980246 95.1533 277.105)" stroke="#005944"/>
<line opacity="0.1" y1="-0.5" x2="100.814" y2="-0.5" transform="matrix(0.23744 0.971402 0.971402 -0.23744 296.724 133.67)" stroke="#005944"/>
<line opacity="0.1" y1="-0.5" x2="435.121" y2="-0.5" transform="matrix(-0.827286 0.561781 0.561781 0.827286 95.1904 277.082)" stroke="#005944"/>
<line opacity="0.1" y1="-0.5" x2="210.027" y2="-0.5" transform="matrix(-0.974648 -0.223746 -0.223746 0.974648 195.967 514.096)" stroke="#005944"/>
<line opacity="0.1" y1="-0.5" x2="302.607" y2="-0.5" transform="matrix(0.980009 -0.198953 -0.198953 -0.980009 -99.772 574.533)" stroke="#005944"/>
<circle r="6.38006" transform="matrix(0.305835 -0.952085 -0.952085 -0.305835 89.1288 633.906)" fill="#BDD3CE"/>
<circle r="6.38006" transform="matrix(0.305835 -0.952085 -0.952085 -0.305835 95.457 277.648)" fill="#BDD3CE"/>
<circle r="4.25337" transform="matrix(0.305835 -0.952085 -0.952085 -0.305835 38.3943 545.679)" fill="#00D9A4"/>
<circle r="6.38006" transform="matrix(0.305835 -0.952085 -0.952085 -0.305835 296.999 134.207)" fill="#00D9A4"/>
<circle r="4.25337" transform="matrix(0.305835 -0.952085 -0.952085 -0.305835 107.068 109.382)" fill="#BDD3CE"/>
<circle r="4.25337" transform="matrix(0.305835 -0.952085 -0.952085 -0.305835 320.661 231.605)" fill="#BDD3CE"/>
<circle r="4.25337" transform="matrix(0.305835 -0.952085 -0.952085 -0.305835 230.095 180.601)" fill="#BDD3CE"/>
<circle r="4.25337" transform="matrix(0.305835 -0.952085 -0.952085 -0.305835 195.964 514.095)" fill="#BDD3CE"/>
<circle r="4.25337" transform="matrix(0.305835 -0.952085 -0.952085 -0.305835 3.8411 608.739)" fill="#BDD3CE"/>
<circle r="4.25337" transform="matrix(0.305835 -0.952085 -0.952085 -0.305835 19.889 255.607)" fill="#00D9A4"/>
</svg>
