<svg width="350" height="874" viewBox="0 0 350 874" fill="none" xmlns="http://www.w3.org/2000/svg">
<line opacity="0.1" x1="-4.68843" y1="474.459" x2="26.7445" y2="260.189" stroke="#005944"/>
<line opacity="0.1" x1="26.6671" y1="260.408" x2="-47.7319" y2="24.5429" stroke="#005944"/>
<line opacity="0.1" x1="120.273" y1="118.989" x2="27.65" y2="260.563" stroke="#005944"/>
<line opacity="0.1" x1="119.793" y1="119.211" x2="-125.417" y2="88.751" stroke="#005944"/>
<line opacity="0.1" x1="120.351" y1="118.775" x2="83.5975" y2="423.052" stroke="#005944"/>
<line opacity="0.1" y1="-0.5" x2="235.637" y2="-0.5" transform="matrix(-0.944218 -0.329322 0.32932 -0.944218 38.8423 627.383)" stroke="#005944"/>
<line opacity="0.1" x1="229.926" y1="339.242" x2="3.88439" y2="615.372" stroke="#005944"/>
<line opacity="0.1" x1="229.788" y1="339.359" x2="-5.60094" y2="474.386" stroke="#005944"/>
<line opacity="0.1" x1="229.358" y1="339.392" x2="27.0579" y2="260.726" stroke="#005944"/>
<line opacity="0.1" x1="26.8829" y1="260.632" x2="-125.725" y2="88.4837" stroke="#005944"/>
<line opacity="0.1" x1="27.7148" y1="260.097" x2="167.831" y2="672.041" stroke="#005944"/>
<line opacity="0.1" x1="-5.47136" y1="473.624" x2="167.733" y2="671.876" stroke="#005944"/>
<line opacity="0.1" x1="167.191" y1="672.675" x2="38.6751" y2="627.852" stroke="#005944"/>
<line opacity="0.1" x1="3.33719" y1="615.46" x2="-197.13" y2="388.78" stroke="#005944"/>
<line opacity="0.1" y1="-0.5" x2="208.431" y2="-0.5" transform="matrix(0.154407 -0.988008 0.975608 0.219523 -28.6839 820.988)" stroke="#005944"/>
<line opacity="0.1" x1="-66.8076" y1="694.592" x2="167.308" y2="671.707" stroke="#005944"/>
<circle cx="26.688" cy="260.55" r="6.38006" transform="rotate(-70.7724 26.688 260.55)" fill="#BDD3CE"/>
<circle cx="82.5483" cy="423.28" r="6.38006" transform="rotate(-70.7724 82.5483 423.28)" fill="#BDD3CE"/>
<circle cx="3.48812" cy="615.084" r="4.25337" transform="rotate(-70.7724 3.48812 615.084)" fill="#BDD3CE"/>
<circle cx="118.769" cy="119.236" r="4.25337" transform="rotate(-70.7724 118.769 119.236)" fill="#BDD3CE"/>
<circle cx="105.846" cy="489.514" r="4.25337" transform="rotate(-70.7724 105.846 489.514)" fill="#BDD3CE"/>
<circle cx="58.7783" cy="546.978" r="4.25337" transform="rotate(-70.7724 58.7783 546.978)" fill="#00D9A4"/>
<circle cx="100.286" cy="288.471" r="4.25337" transform="rotate(-70.7724 100.286 288.471)" fill="#00D9A4"/>
<circle cx="164.154" cy="669.764" r="6.38006" transform="rotate(-70.7724 164.154 669.764)" fill="#BDD3CE"/>
<circle cx="226.562" cy="339.721" r="4.25337" transform="rotate(-70.7724 226.562 339.721)" fill="#BDD3CE"/>
</svg>
