<svg width="417" height="893" viewBox="0 0 417 893" fill="none" xmlns="http://www.w3.org/2000/svg">
<line opacity="0.1" x1="396.05" y1="409.431" x2="334.565" y2="617.082" stroke="#005944"/>
<line opacity="0.1" x1="334.673" y1="616.876" x2="374.891" y2="860.905" stroke="#005944"/>
<line opacity="0.1" x1="221.968" y1="743.599" x2="333.722" y2="616.582" stroke="#005944"/>
<line opacity="0.1" x1="222.475" y1="743.447" x2="460.892" y2="808.354" stroke="#005944"/>
<line opacity="0.1" x1="221.861" y1="743.8" x2="301.37" y2="447.804" stroke="#005944"/>
<line opacity="0.1" x1="374.863" y1="251.435" x2="584.111" y2="359.786" stroke="#005944"/>
<line opacity="0.1" x1="396.997" y1="409.611" x2="583.753" y2="359.748" stroke="#005944"/>
<line opacity="0.1" x1="144.639" y1="510.03" x2="407.536" y2="268.726" stroke="#005944"/>
<line opacity="0.1" x1="144.792" y1="509.934" x2="396.943" y2="409.633" stroke="#005944"/>
<line opacity="0.1" x1="145.223" y1="509.963" x2="334.331" y2="616.508" stroke="#005944"/>
<line opacity="0.1" x1="334.491" y1="616.623" x2="461.159" y2="808.664" stroke="#005944"/>
<line opacity="0.1" x1="374.138" y1="860.56" x2="460.48" y2="808.516" stroke="#005944"/>
<line opacity="0.1" x1="333.592" y1="617.034" x2="253.276" y2="189.389" stroke="#005944"/>
<line opacity="0.1" x1="572.979" y1="521.802" x2="395.363" y2="409.713" stroke="#005944"/>
<line opacity="0.1" x1="396.707" y1="410.366" x2="253.35" y2="189.566" stroke="#005944"/>
<line opacity="0.1" x1="254.001" y1="188.853" x2="374.866" y2="251.439" stroke="#005944"/>
<line opacity="0.1" x1="408.09" y1="268.713" x2="574.405" y2="521.518" stroke="#005944"/>
<line opacity="0.1" y1="-0.5" x2="208.431" y2="-0.5" transform="matrix(-0.292882 0.956149 -0.934645 -0.355584 468.918 69.8008)" stroke="#005944"/>
<line opacity="0.1" x1="488.743" y1="200.324" x2="253.747" y2="189.796" stroke="#005944"/>
<circle cx="334.672" cy="616.732" r="6.38006" transform="rotate(117.376 334.672 616.732)" fill="#BDD3CE"/>
<circle cx="302.44" cy="447.728" r="6.38006" transform="rotate(117.376 302.44 447.728)" fill="#BDD3CE"/>
<circle cx="374.973" cy="860.802" r="6.38006" transform="rotate(117.376 374.973 860.802)" fill="#00D9A4"/>
<circle cx="407.888" cy="269.067" r="4.25337" transform="rotate(117.376 407.888 269.067)" fill="#BDD3CE"/>
<circle cx="397.141" cy="410.067" r="4.25337" transform="rotate(117.376 397.141 410.067)" fill="#BDD3CE"/>
<circle cx="223.492" cy="743.567" r="4.25337" transform="rotate(117.376 223.492 743.567)" fill="#BDD3CE"/>
<circle cx="360.726" cy="780.645" r="4.25337" transform="rotate(117.376 360.726 780.645)" fill="#BDD3CE"/>
<circle cx="288.766" cy="378.86" r="4.25337" transform="rotate(117.376 288.766 378.86)" fill="#BDD3CE"/>
<circle cx="343.502" cy="328.649" r="4.25337" transform="rotate(117.376 343.502 328.649)" fill="#00D9A4"/>
<circle cx="265.775" cy="578.661" r="4.25337" transform="rotate(117.376 265.775 578.661)" fill="#00D9A4"/>
<circle cx="256.594" cy="192.165" r="6.38006" transform="rotate(117.376 256.594 192.165)" fill="#BDD3CE"/>
<circle cx="148.037" cy="510.032" r="4.25337" transform="rotate(117.376 148.037 510.032)" fill="#BDD3CE"/>
</svg>
