<svg width="100" height="100" viewBox="0 0 100 100" fill="none" xmlns="http://www.w3.org/2000/svg">
<rect x="10.5" y="6.5" width="79" height="79" rx="4.5" stroke="#00D9A4"/>
<mask id="mask0_506_3" style="mask-type:alpha" maskUnits="userSpaceOnUse" x="10" y="6" width="80" height="80">
<rect x="10.5" y="6.5" width="79" height="79" rx="4.5" stroke="#00D9A4"/>
</mask>
<g mask="url(#mask0_506_3)">
<path d="M102.871 26.7313C100.2 19.2756 96.1807 12.3851 91.0428 6.45352C85.9048 0.521887 79.7486 -4.33479 72.9259 -7.83922C66.1031 -11.3437 58.7472 -13.4272 51.2783 -13.9709C43.8094 -14.5146 36.3737 -13.5079 29.3958 -11.0081C22.4179 -8.50834 16.0344 -4.56452 10.6098 0.598177C5.18512 5.76087 0.825605 12.0413 -2.21988 19.081C-5.26536 26.1206 -6.93718 33.7816 -7.13987 41.6265C-7.34256 49.4713 -6.07216 57.3465 -3.4012 64.8023L49.7349 45.7668L102.871 26.7313Z" fill="#CCE0DB"/>
</g>
<g filter="url(#filter0_d_506_3)">
<rect x="20" y="16" width="60" height="60" rx="5" fill="#00D9A4"/>
</g>
<g clip-path="url(#clip0_506_3)">
<path d="M66.8724 48.9777C66.3793 49.5483 65.7697 50.0067 65.0846 50.3221C64.3994 50.6374 63.6547 50.8023 62.9005 50.8058C62.8443 50.8058 62.7912 50.8058 62.7349 50.8027C62.652 50.8014 62.5731 50.7672 62.5154 50.7077C62.4577 50.6482 62.426 50.5682 62.4273 50.4853C62.4286 50.4024 62.4627 50.3235 62.5222 50.2658C62.5817 50.2081 62.6617 50.1764 62.7446 50.1777H62.7537C62.8037 50.1808 62.8505 50.1808 62.9005 50.1808C65.5255 50.1808 67.6599 47.9558 67.6599 45.2214C67.6671 44.5589 67.5417 43.9016 67.2911 43.2882C67.0404 42.6748 66.6697 42.1178 66.2005 41.6498C66.1804 41.6285 66.1635 41.6043 66.1505 41.578C66.1505 41.5748 66.1474 41.5717 66.1474 41.5686C66.1254 41.5281 66.1128 41.4832 66.1107 41.4372C66.1085 41.3912 66.1168 41.3453 66.1349 41.303C66.2948 40.7997 66.376 40.2748 66.3755 39.7467C66.3755 37.0061 64.238 34.7814 61.6134 34.7814C58.9887 34.7814 56.8509 37.0061 56.8509 39.7467C56.8509 39.8296 56.8179 39.9091 56.7593 39.9677C56.7007 40.0263 56.6212 40.0592 56.5384 40.0592C56.4555 40.0592 56.376 40.0263 56.3174 39.9677C56.2588 39.9091 56.2259 39.8296 56.2259 39.7467C56.2259 36.6623 58.6415 34.1564 61.6134 34.1564H61.6384C61.8011 33.7043 61.8846 33.2275 61.8852 32.747C61.8852 30.6439 60.3509 28.9314 58.4696 28.9314C57.842 28.9468 57.2311 29.1364 56.7052 29.4792C56.1793 29.8219 55.759 30.3041 55.4915 30.872C55.4736 30.9091 55.4484 30.9422 55.4175 30.9693C55.3865 30.9964 55.3504 31.017 55.3113 31.0298C55.2723 31.0427 55.231 31.0475 55.19 31.044C55.149 31.0405 55.1091 31.0288 55.0727 31.0095C54.9991 30.9721 54.9434 30.907 54.9176 30.8285C54.8918 30.7501 54.8982 30.6646 54.9352 30.5908C55.2465 29.9378 55.7286 29.3811 56.3304 28.9799C56.9323 28.5786 57.6315 28.3476 58.354 28.3114C56.8746 27.2802 54.0071 25.5536 52.0418 26.1067C51.2293 26.338 50.6637 26.9286 50.3105 27.9192V35.288C50.624 34.8532 51.0543 34.5161 51.5516 34.3159C52.0488 34.1156 52.5926 34.0605 53.1199 34.1567C53.2024 34.1671 53.2774 34.2098 53.3283 34.2754C53.3793 34.3411 53.4022 34.4243 53.3918 34.5067C53.3814 34.5892 53.3387 34.6642 53.2731 34.7151C53.2075 34.7661 53.1243 34.789 53.0418 34.7786C50.8918 34.5067 50.3699 36.4502 50.3105 36.7002V59.7177C50.3105 63.1799 52.8512 65.9989 55.9759 65.9989C58.0196 65.9989 59.8946 64.7552 60.8665 62.7552C60.8696 62.7489 60.8759 62.7458 60.879 62.7395C60.8895 62.7224 60.9021 62.7067 60.9165 62.6927C60.9284 62.6766 60.942 62.662 60.9571 62.6489C60.9716 62.6377 60.9873 62.6283 61.004 62.6208C61.0223 62.6093 61.0423 62.6009 61.0634 62.5958L61.0821 62.5864C62.1774 62.3258 63.1518 61.7009 63.8455 60.8142C64.5392 59.9274 64.9112 58.8313 64.9005 57.7055C64.8976 57.3223 64.8515 56.9408 64.763 56.568C64.7646 56.5566 64.7646 56.545 64.763 56.5336C64.7615 56.5138 64.7615 56.494 64.763 56.4742C64.7634 56.4574 64.7655 56.4406 64.7693 56.4242C64.7764 56.397 64.7869 56.3708 64.8005 56.3461C64.8035 56.3382 64.8077 56.3308 64.813 56.3242C64.8328 56.2955 64.8571 56.2702 64.8849 56.2492L64.8912 56.243C64.9068 56.2336 64.9162 56.2211 64.9318 56.2117C65.5564 55.8864 66.1066 55.4348 66.5475 54.8856C66.9883 54.3364 67.3102 53.7016 67.4926 53.0214C67.6751 52.3412 67.7142 51.6305 67.6074 50.9343C67.5007 50.2382 67.2504 49.5719 66.8724 48.9777ZM59.5165 55.7149C59.0888 55.7288 58.6637 55.7864 58.2477 55.8867C58.1904 55.9388 58.1158 55.9678 58.0384 55.968H58.0309C58.0106 55.9668 57.9905 55.9626 57.9715 55.9555C56.4996 56.3649 54.5059 57.4711 54.5309 60.4555C54.5308 60.5386 54.4979 60.6184 54.4394 60.6775C54.3809 60.7366 54.3015 60.7702 54.2184 60.7711C54.1775 60.7714 54.137 60.7635 54.0992 60.7481C54.0614 60.7327 54.027 60.71 53.9979 60.6812C53.9689 60.6525 53.9458 60.6183 53.93 60.5806C53.9142 60.543 53.906 60.5026 53.9059 60.4617C53.878 57.1586 56.0715 55.8867 57.7215 55.3961C57.6621 50.237 53.0499 49.7558 52.8499 49.737C52.7674 49.7288 52.6913 49.6885 52.6382 49.6248C52.585 49.5611 52.5589 49.4791 52.5655 49.3964C52.5735 49.314 52.6138 49.238 52.6777 49.1853C52.7415 49.1326 52.8237 49.1073 52.9062 49.1152C52.9593 49.1183 58.1902 49.6433 58.3437 55.2402C58.7271 55.1565 59.1171 55.1063 59.5093 55.0902H59.5124C59.5953 55.0898 59.675 55.1223 59.7339 55.1806C59.7927 55.2389 59.8261 55.3182 59.8265 55.4011C59.8269 55.484 59.7944 55.5636 59.7361 55.6225C59.6777 55.6814 59.5984 55.7148 59.5155 55.7152L59.5165 55.7149ZM61.6134 47.6433H61.5915C58.3977 47.4152 57.6977 44.887 57.554 44.0405C56.173 43.9115 54.8944 43.2571 53.9821 42.2123C53.9308 42.1494 53.906 42.0689 53.913 41.988C53.92 41.9071 53.9582 41.8321 54.0196 41.7789C54.0809 41.7257 54.1606 41.6984 54.2417 41.7029C54.3227 41.7074 54.3989 41.7433 54.454 41.803C54.9069 42.3208 55.4658 42.7353 56.0928 43.0183C56.7199 43.3014 57.4004 43.4464 58.0884 43.4436C59.3256 43.4622 60.5198 42.9893 61.409 42.1288C62.2982 41.2682 62.8098 40.0902 62.8318 38.853C62.8318 38.7701 62.8647 38.6906 62.9233 38.632C62.9819 38.5734 63.0614 38.5405 63.1443 38.5405C63.2272 38.5405 63.3067 38.5734 63.3653 38.632C63.4239 38.6906 63.4568 38.7701 63.4568 38.853C63.435 40.2381 62.8709 41.5596 61.8857 42.5334C60.9004 43.5072 59.5724 44.0559 58.1871 44.0614C58.3402 44.8673 58.984 46.8299 61.634 47.0174C61.7169 47.0203 61.7952 47.056 61.8518 47.1166C61.9083 47.1773 61.9384 47.2579 61.9355 47.3408C61.9326 47.4237 61.8969 47.502 61.8363 47.5586C61.7756 47.6151 61.695 47.6453 61.6121 47.6424L61.6134 47.6433Z" fill="white"/>
<path d="M46.8794 34.1563C47.4066 34.0595 47.9505 34.1145 48.4476 34.315C48.9448 34.5155 49.3747 34.8533 49.6872 35.2888V27.92C49.3372 26.9297 48.7684 26.3391 47.959 26.1075C45.9887 25.5516 43.1203 27.2813 41.6422 28.3125C42.3648 28.349 43.0642 28.5799 43.6665 28.9808C44.2688 29.3818 44.7517 29.938 45.064 30.5907C45.1013 30.6648 45.1076 30.7508 45.0816 30.8296C45.0555 30.9085 44.9992 30.9737 44.925 31.011C44.8508 31.0483 44.7648 31.0546 44.686 31.0285C44.6072 31.0024 44.542 30.9461 44.5047 30.8719C44.2374 30.3044 43.8177 29.8224 43.2924 29.4797C42.767 29.137 42.1567 28.9472 41.5297 28.9313C39.6453 28.9313 38.114 30.6438 38.114 32.7469C38.1131 33.2275 38.1967 33.7046 38.3609 34.1563H38.3859C41.3547 34.1563 43.7734 36.6622 43.7734 39.7466C43.7734 39.8295 43.7405 39.909 43.6819 39.9676C43.6233 40.0262 43.5438 40.0591 43.4609 40.0591C43.378 40.0591 43.2985 40.0262 43.2399 39.9676C43.1813 39.909 43.1484 39.8295 43.1484 39.7466C43.1484 37.006 41.0109 34.7813 38.3859 34.7813C35.7609 34.7813 33.6206 37.0072 33.6206 39.7479C33.6202 40.2759 33.7013 40.8009 33.8612 41.3041C33.8798 41.3462 33.8886 41.392 33.887 41.438C33.8854 41.484 33.8734 41.529 33.8518 41.5697C33.8495 41.5744 33.8463 41.5787 33.8425 41.5822C33.8317 41.6081 33.8157 41.6315 33.7956 41.651C33.3269 42.119 32.9565 42.6762 32.7064 43.2896C32.4563 43.9029 32.3315 44.5602 32.3393 45.2225C32.3393 47.9569 34.4737 50.1819 37.0987 50.1819C37.1453 50.1819 37.1953 50.1819 37.2422 50.1788C37.324 50.1798 37.4025 50.2115 37.4621 50.2677C37.5217 50.3238 37.5581 50.4003 37.564 50.4819C37.5657 50.523 37.5591 50.564 37.5447 50.6026C37.5303 50.6411 37.5083 50.6764 37.4801 50.7064C37.452 50.7363 37.4181 50.7604 37.3805 50.7771C37.3429 50.7938 37.3024 50.8029 37.2612 50.8038C37.2078 50.8069 37.1515 50.8069 37.0987 50.8069C36.3442 50.8034 35.5992 50.6384 34.9138 50.3231C34.2283 50.0078 33.6183 49.5494 33.1247 48.9788C32.7478 49.5733 32.4984 50.2396 32.3922 50.9355C32.286 51.6314 32.3254 52.3417 32.5078 53.0216C32.6902 53.7015 33.0116 54.3362 33.4518 54.8855C33.8921 55.4348 34.4414 55.8867 35.0653 56.2129C35.0794 56.2225 35.093 56.2329 35.1059 56.2441C35.109 56.2472 35.1122 56.2472 35.1153 56.2504C35.1423 56.2722 35.1665 56.2974 35.1872 56.3254C35.1901 56.3333 35.1943 56.3407 35.1997 56.3472C35.2123 56.372 35.2217 56.3982 35.2278 56.4254C35.2327 56.4416 35.2358 56.4584 35.2372 56.4754C35.2377 56.4952 35.2366 56.515 35.234 56.5347C35.2356 56.5461 35.2356 56.5577 35.234 56.5691C35.1471 56.9422 35.101 57.3236 35.0965 57.7066C35.086 58.8327 35.4583 59.9291 36.1524 60.8159C36.8466 61.7027 37.8214 62.3274 38.9172 62.5875C38.9231 62.5913 38.9294 62.5944 38.9359 62.5969C38.9552 62.6039 38.974 62.6123 38.9922 62.6219C39.0095 62.6301 39.0262 62.6395 39.0422 62.65C39.0555 62.6628 39.068 62.6764 39.0797 62.6907C39.0956 62.7064 39.1093 62.7243 39.1203 62.7438C39.1234 62.7469 39.1297 62.75 39.1297 62.7563C40.1047 64.7563 41.9765 66 44.0234 66C47.145 66 49.6872 63.1813 49.6872 59.7188V36.701C49.6309 36.451 49.109 34.5107 46.9559 34.7794C46.8734 34.7894 46.7904 34.7661 46.7251 34.7149C46.6597 34.6636 46.6174 34.5884 46.6075 34.506C46.5975 34.4235 46.6208 34.3405 46.672 34.2751C46.7233 34.2098 46.7984 34.1675 46.8809 34.1575L46.8794 34.1563ZM38.4078 47.6444H38.3859C38.303 47.6473 38.2224 47.6172 38.1617 47.5606C38.1011 47.5041 38.0654 47.4257 38.0625 47.3429C38.0596 47.26 38.0897 47.1793 38.1463 47.1187C38.2028 47.058 38.2812 47.0223 38.364 47.0194C41.0109 46.8319 41.6578 44.8694 41.8109 44.0635C40.4251 44.0583 39.0967 43.5097 38.111 42.5356C37.1253 41.5615 36.561 40.2397 36.5393 38.8541C36.5393 38.7712 36.5723 38.6917 36.6309 38.6331C36.6895 38.5745 36.769 38.5416 36.8518 38.5416C36.9347 38.5416 37.0142 38.5745 37.0728 38.6331C37.1314 38.6917 37.1643 38.7712 37.1643 38.8541C37.1864 40.0914 37.6981 41.2694 38.5874 42.1299C39.4766 42.9905 40.6708 43.4633 41.9081 43.4447C42.5962 43.4482 43.2769 43.3034 43.904 43.0203C44.5311 42.7372 45.09 42.3224 45.5425 41.8041C45.5688 41.7712 45.6014 41.7439 45.6385 41.7239C45.6756 41.704 45.7163 41.6917 45.7583 41.6878C45.8002 41.684 45.8425 41.6887 45.8826 41.7016C45.9227 41.7146 45.9598 41.7355 45.9916 41.7631C46.0234 41.7907 46.0493 41.8244 46.0677 41.8623C46.0861 41.9002 46.0967 41.9414 46.0988 41.9835C46.1009 42.0256 46.0945 42.0676 46.0799 42.1071C46.0654 42.1467 46.0429 42.1828 46.014 42.2135C45.1032 43.2581 43.8256 43.9126 42.4456 44.0416C42.2984 44.8882 41.6015 47.4163 38.4078 47.6444ZM47.0934 49.1163C47.1341 49.1121 47.1753 49.1161 47.2144 49.1281C47.2535 49.14 47.2899 49.1597 47.3213 49.1859C47.3528 49.2121 47.3787 49.2443 47.3975 49.2807C47.4163 49.317 47.4277 49.3567 47.4309 49.3975C47.4381 49.4804 47.4123 49.5627 47.359 49.6265C47.3057 49.6903 47.2293 49.7305 47.1465 49.7382C46.9497 49.7569 42.334 50.2382 42.275 55.3972C43.925 55.8879 46.1187 57.1597 46.0934 60.4628C46.0926 60.5452 46.0593 60.6239 46.0008 60.6818C45.9423 60.7397 45.8633 60.7722 45.7809 60.7722H45.7778C45.7367 60.7718 45.6962 60.7633 45.6584 60.7472C45.6207 60.7312 45.5865 60.7078 45.5577 60.6785C45.529 60.6492 45.5063 60.6145 45.491 60.5764C45.4757 60.5384 45.468 60.4976 45.4684 60.4566C45.4903 57.4691 43.5062 56.366 42.0309 55.9566C42.0094 55.9626 41.9875 55.9667 41.9653 55.9691H41.9622C41.9217 55.9696 41.8816 55.9622 41.8441 55.9472C41.8065 55.9322 41.7723 55.9099 41.7434 55.8816C41.3304 55.7836 40.9084 55.7281 40.484 55.716C40.4012 55.7156 40.3218 55.6822 40.2635 55.6233C40.2052 55.5644 40.1727 55.4848 40.1731 55.4019C40.1735 55.319 40.2068 55.2397 40.2657 55.1814C40.3246 55.1231 40.4043 55.0906 40.4872 55.091H40.4903C40.8814 55.107 41.2704 55.1572 41.6528 55.241C41.8078 49.6444 47.0356 49.1194 47.0934 49.1163Z" fill="white"/>
</g>
<defs>
<filter id="filter0_d_506_3" x="0" y="0" width="100" height="100" filterUnits="userSpaceOnUse" color-interpolation-filters="sRGB">
<feFlood flood-opacity="0" result="BackgroundImageFix"/>
<feColorMatrix in="SourceAlpha" type="matrix" values="0 0 0 0 0 0 0 0 0 0 0 0 0 0 0 0 0 0 127 0" result="hardAlpha"/>
<feOffset dy="4"/>
<feGaussianBlur stdDeviation="10"/>
<feComposite in2="hardAlpha" operator="out"/>
<feColorMatrix type="matrix" values="0 0 0 0 0.0991667 0 0 0 0 0.35 0 0 0 0 0.290815 0 0 0 0.08 0"/>
<feBlend mode="normal" in2="BackgroundImageFix" result="effect1_dropShadow_506_3"/>
<feBlend mode="normal" in="SourceGraphic" in2="effect1_dropShadow_506_3" result="shape"/>
</filter>
<clipPath id="clip0_506_3">
<rect width="40" height="40" fill="white" transform="translate(30 26)"/>
</clipPath>
</defs>
</svg>
