<svg width="100" height="100" viewBox="0 0 100 100" fill="none" xmlns="http://www.w3.org/2000/svg">
<rect x="10.5" y="6.5" width="79" height="79" rx="4.5" stroke="#00D9A4"/>
<mask id="mask0_203_10" style="mask-type:alpha" maskUnits="userSpaceOnUse" x="10" y="6" width="80" height="80">
<rect x="10.5" y="6.5" width="79" height="79" rx="4.5" stroke="#00D9A4"/>
</mask>
<g mask="url(#mask0_203_10)">
<path d="M-4.70213 40.5173C-5.86948 47.837 -5.58368 55.3149 -3.86105 62.5242C-2.13842 69.7334 0.987305 76.5327 5.33766 82.5339C9.68801 88.5352 15.1778 93.6208 21.4936 97.5004C27.8093 101.38 34.8274 103.978 42.1471 105.145C49.4668 106.312 56.9447 106.027 64.1539 104.304C71.3631 102.581 78.1625 99.4555 84.1637 95.1052C90.1649 90.7548 95.2505 85.265 99.1301 78.9493C103.01 72.6335 105.607 65.6154 106.775 58.2958L51.0363 49.4066L-4.70213 40.5173Z" fill="#CCE0DB"/>
</g>
<g filter="url(#filter0_d_203_10)">
<rect x="20" y="16" width="60" height="60" rx="5" fill="#00D9A4"/>
</g>
<path d="M47.6717 57.0121C47.6827 56.8235 47.6375 56.6358 47.5419 56.4729C47.4462 56.3099 47.3044 56.179 47.1344 56.0966C46.9644 56.0142 46.7737 55.9841 46.5865 56.01C46.3994 56.036 46.2241 56.1168 46.0829 56.2423L44.7917 57.3923C44.6971 57.4754 44.6199 57.5763 44.5645 57.6893C44.5091 57.8023 44.4766 57.9252 44.4689 58.0508C44.4611 58.1764 44.4782 58.3023 44.5193 58.4213C44.5604 58.5402 44.6246 58.6499 44.7082 58.744C44.7918 58.838 44.8931 58.9147 45.0065 58.9694C45.1198 59.0242 45.2428 59.056 45.3685 59.063C45.4941 59.0701 45.6199 59.0522 45.7386 59.0105C45.8574 58.9687 45.9667 58.9039 46.0603 58.8198L47.354 57.6698C47.4477 57.5865 47.5241 57.4856 47.5786 57.3727C47.6331 57.2598 47.6648 57.1373 47.6717 57.0121Z" fill="white"/>
<path d="M43.9909 52.5743C44.005 52.3285 43.9459 52.0841 43.8212 51.8718C43.6965 51.6595 43.5117 51.489 43.2902 51.3816C43.0686 51.2742 42.8202 51.2349 42.5764 51.2685C42.3325 51.3021 42.104 51.4073 41.9198 51.5706L40.3328 52.9847C40.0862 53.2043 39.9368 53.5127 39.9174 53.8424C39.8981 54.172 40.0104 54.4959 40.2297 54.7428C40.4495 54.9892 40.7581 55.1384 41.0878 55.1578C41.4174 55.1771 41.7413 55.065 41.9885 54.8459L43.5769 53.4321C43.6993 53.3237 43.7989 53.192 43.8699 53.0447C43.941 52.8975 43.9821 52.7376 43.9909 52.5743Z" fill="white"/>
<path d="M46.1687 54.8408C46.1785 54.6778 46.1558 54.5145 46.1021 54.3603C46.0484 54.2061 45.9646 54.0641 45.8557 53.9424C45.7474 53.8198 45.6159 53.72 45.4687 53.6487C45.3215 53.5774 45.1616 53.536 44.9983 53.5269C44.9731 53.5269 44.9483 53.5244 44.9235 53.5244C44.6185 53.5238 44.3241 53.6361 44.097 53.8396L42.5078 55.253C42.2722 55.4752 42.1325 55.7804 42.1182 56.1039C42.1039 56.4274 42.2161 56.7437 42.4312 56.9859C42.6462 57.228 42.9471 57.3768 43.27 57.4007C43.5929 57.4247 43.9125 57.3219 44.1609 57.1142L45.7501 55.7008C45.8734 55.5924 45.974 55.4605 46.0458 55.3129C46.1177 55.1652 46.1595 55.0048 46.1687 54.8408Z" fill="white"/>
<path d="M42.7406 36.3584C42.7402 36.2825 42.7248 36.2075 42.6953 36.1376C42.6657 36.0677 42.6226 36.0044 42.5685 35.9512L38.8842 32.3183C38.7749 32.211 38.6275 32.1513 38.4742 32.1524C38.321 32.1534 38.1744 32.2152 38.0666 32.3241L30.4008 40.0963C30.2932 40.2054 30.2334 40.3528 30.2344 40.506C30.2354 40.6592 30.2972 40.8058 30.4062 40.9135L34.0894 44.5461C34.1974 44.6532 34.3434 44.7131 34.4955 44.7128H34.4995C34.5753 44.7123 34.6502 44.6969 34.7201 44.6674C34.7899 44.6378 34.8532 44.5948 34.9063 44.5407L42.5717 36.7685C42.6257 36.7148 42.6685 36.6509 42.6975 36.5804C42.7265 36.51 42.7412 36.4346 42.7406 36.3584Z" fill="white"/>
<path d="M41.8134 50.3068C41.8275 50.061 41.7685 49.8165 41.6438 49.6042C41.5191 49.3919 41.3343 49.2213 41.1127 49.1139C40.8911 49.0066 40.6427 48.9673 40.3988 49.001C40.1549 49.0347 39.9264 49.14 39.7423 49.3035L38.1538 50.7169C38.0271 50.8242 37.9231 50.9559 37.848 51.104C37.7729 51.2521 37.7281 51.4138 37.7165 51.5795C37.7048 51.7452 37.7264 51.9116 37.7799 52.0688C37.8335 52.226 37.918 52.3709 38.0284 52.495C38.1389 52.6191 38.273 52.7198 38.423 52.7913C38.5729 52.8627 38.7357 52.9034 38.9016 52.911C39.0675 52.9187 39.2333 52.893 39.3892 52.8356C39.545 52.7781 39.6878 52.6901 39.8091 52.5766L41.3979 51.1632C41.5203 51.055 41.6201 50.9236 41.6914 50.7766C41.7627 50.6296 41.8041 50.4699 41.8134 50.3068Z" fill="white"/>
<path d="M62.9768 33.2578C62.883 33.1366 62.745 33.0576 62.593 33.038C62.441 33.0184 62.2875 33.0598 62.166 33.1532L58.0692 36.3136C57.9497 36.4051 57.871 36.5398 57.8497 36.6887C57.8285 36.8377 57.8665 36.989 57.9556 37.1103L57.9606 37.1182L57.9646 37.1243L64.6335 45.7669C64.7272 45.8882 64.8651 45.9673 65.0171 45.9869C65.169 46.0065 65.3225 45.965 65.4439 45.8715L69.5408 42.7115C69.6618 42.6176 69.7408 42.4794 69.7602 42.3274C69.7797 42.1754 69.7381 42.0218 69.6446 41.9004L62.9768 33.2578Z" fill="white"/>
<path d="M59.4062 49.8631L52.5102 43.4688L49.5759 43.7171L49.0055 44.4319C48.4099 45.2482 47.5309 45.8127 46.5408 46.0146C45.5506 46.2166 44.5208 46.0415 43.653 45.5237L43.3364 45.3321C43.3007 45.3103 43.2698 45.2815 43.2455 45.2474C43.2212 45.2134 43.2041 45.1747 43.1952 45.1339C43.1862 45.093 43.1857 45.0507 43.1935 45.0096C43.2014 44.9685 43.2174 44.9295 43.2408 44.8948L46.7986 39.6403C46.8361 39.5847 46.8907 39.5428 46.9542 39.521L47.8997 39.1976L42.8056 37.4111L36.1406 44.1674C36.7619 44.9956 37.2013 45.9457 37.4301 46.9554C37.6474 47.8661 38.062 48.718 38.6448 49.4509L39.3319 48.84C39.6286 48.5753 40.0023 48.4125 40.3982 48.3755C40.7942 48.3385 41.1916 48.4293 41.5322 48.6345C41.8728 48.8397 42.1388 49.1486 42.2912 49.5159C42.4435 49.8832 42.4743 50.2896 42.379 50.6757C42.6981 50.6107 43.0287 50.6305 43.3377 50.7333C43.6468 50.8361 43.9234 51.0182 44.14 51.2615C44.3036 51.444 44.4293 51.6572 44.5099 51.8888C44.5905 52.1203 44.6243 52.3655 44.6093 52.6102C44.6022 52.723 44.5851 52.835 44.5583 52.9448C44.7152 52.9126 44.8756 52.9005 45.0355 52.9088C45.5283 52.9383 45.9893 53.162 46.3174 53.531C46.6454 53.8999 46.8137 54.3839 46.7853 54.8768C46.7749 55.0522 46.7398 55.2254 46.6811 55.391C47.0025 55.3825 47.3187 55.473 47.5869 55.6503C47.8551 55.8275 48.0624 56.083 48.1805 56.382C48.2987 56.681 48.322 57.009 48.2474 57.3218C48.1729 57.6345 48.0039 57.9167 47.7635 58.1302L47.2108 58.6218L47.9155 59.3729C48.0671 59.5237 48.2469 59.6431 48.4446 59.7244C48.6424 59.8057 48.8542 59.8472 49.068 59.8466C49.2818 59.846 49.4933 59.8033 49.6906 59.7209C49.8879 59.6385 50.067 59.5181 50.2177 59.3664C50.4673 59.1162 50.6289 58.7918 50.6784 58.4419C50.7279 58.092 50.6626 57.7355 50.4923 57.4258L49.4501 56.3836C49.3922 56.3257 49.3596 56.2472 49.3596 56.1653C49.3596 56.0834 49.3922 56.0049 49.4501 55.947C49.508 55.8891 49.5865 55.8566 49.6684 55.8566C49.7503 55.8566 49.8288 55.8891 49.8867 55.947L50.9616 57.0219L50.9652 57.0244L51.4816 57.5405C51.7839 57.8431 52.193 58.015 52.6207 58.0192C53.0484 58.0234 53.4607 57.8595 53.7689 57.5629C54.0771 57.2662 54.2566 56.8605 54.2687 56.4329C54.2808 56.0053 54.1246 55.59 53.8337 55.2764L52.559 54.0035C52.5029 53.9452 52.4719 53.8672 52.4727 53.7862C52.4735 53.7053 52.506 53.6279 52.5632 53.5706C52.6204 53.5134 52.6978 53.4809 52.7788 53.4801C52.8597 53.4794 52.9377 53.5104 52.996 53.5665L54.2736 54.8444L54.4619 55.0324C54.7634 55.3399 55.1742 55.5159 55.6049 55.5219C56.0355 55.528 56.4511 55.3636 56.7611 55.0646C57.0711 54.7657 57.2505 54.3563 57.26 53.9257C57.2696 53.4952 57.1087 53.0782 56.8122 52.7658L55.4624 51.416C55.4338 51.3873 55.411 51.3532 55.3955 51.3158C55.38 51.2783 55.372 51.2381 55.372 51.1975C55.3721 51.157 55.3801 51.1168 55.3956 51.0793C55.4111 51.0419 55.4339 51.0078 55.4626 50.9792C55.4913 50.9505 55.5254 50.9278 55.5628 50.9123C55.6003 50.8967 55.6405 50.8888 55.6811 50.8888C55.7216 50.8888 55.7618 50.8968 55.7992 50.9123C55.8367 50.9279 55.8708 50.9507 55.8994 50.9793L57.2564 52.3367L57.4437 52.5239C57.751 52.8295 58.1669 53.0011 58.6003 53.0011C59.0338 53.0011 59.4496 52.8295 59.757 52.5239C60.0341 52.2283 60.1875 51.8377 60.1857 51.4325C60.1737 50.9101 59.9595 50.4126 59.5881 50.045L59.4062 49.8631Z" fill="white"/>
<path d="M52.1858 38.3778L47.2509 40.0701L43.9346 44.9716L43.9705 44.9942C44.7075 45.4332 45.582 45.5807 46.4223 45.4078C47.2625 45.2349 48.0077 44.7541 48.5116 44.0598L49.1746 43.2283C49.2008 43.1954 49.2334 43.1683 49.2705 43.1486C49.3076 43.1288 49.3484 43.1169 49.3902 43.1136L52.5926 42.8426C52.6354 42.8387 52.6786 42.8439 52.7192 42.8579C52.7599 42.8719 52.7971 42.8944 52.8284 42.9239L59.6694 49.2643C61.2755 48.3794 62.7011 47.2007 63.872 45.7895L57.557 37.6055L52.1858 38.3778Z" fill="white"/>
<defs>
<filter id="filter0_d_203_10" x="0" y="0" width="100" height="100" filterUnits="userSpaceOnUse" color-interpolation-filters="sRGB">
<feFlood flood-opacity="0" result="BackgroundImageFix"/>
<feColorMatrix in="SourceAlpha" type="matrix" values="0 0 0 0 0 0 0 0 0 0 0 0 0 0 0 0 0 0 127 0" result="hardAlpha"/>
<feOffset dy="4"/>
<feGaussianBlur stdDeviation="10"/>
<feComposite in2="hardAlpha" operator="out"/>
<feColorMatrix type="matrix" values="0 0 0 0 0.0991667 0 0 0 0 0.35 0 0 0 0 0.290815 0 0 0 0.08 0"/>
<feBlend mode="normal" in2="BackgroundImageFix" result="effect1_dropShadow_203_10"/>
<feBlend mode="normal" in="SourceGraphic" in2="effect1_dropShadow_203_10" result="shape"/>
</filter>
</defs>
</svg>
