<svg width="100" height="100" viewBox="0 0 100 100" fill="none" xmlns="http://www.w3.org/2000/svg">
<rect x="10.5" y="6.5" width="79" height="79" rx="4.5" stroke="#00D9A4"/>
<mask id="mask0_506_2" style="mask-type:alpha" maskUnits="userSpaceOnUse" x="10" y="6" width="80" height="80">
<rect x="10.5" y="6.5" width="79" height="79" rx="4.5" stroke="#00D9A4"/>
</mask>
<g mask="url(#mask0_506_2)">
<path d="M72.3688 -2.94321C65.2964 -6.29911 57.6675 -8.30318 49.9175 -8.84098C42.1675 -9.3788 34.4483 -8.43981 27.2005 -6.07764C19.9527 -3.71547 13.3183 0.0236178 7.67618 4.92614C2.03401 9.82867 -2.50545 15.7986 -5.68302 22.4951C-8.8606 29.1916 -10.6141 36.4836 -10.8433 43.9546C-11.0725 51.4256 -9.77305 58.9294 -7.01904 66.0376C-4.26503 73.1457 -0.110436 79.719 5.20754 85.3821C10.5255 91.0452 16.9027 95.6872 23.9751 99.0431L48.1719 48.0499L72.3688 -2.94321Z" fill="#CCE0DB"/>
</g>
<g filter="url(#filter0_d_506_2)">
<rect x="20" y="16" width="60" height="60" rx="5" fill="#00D9A4"/>
</g>
<path d="M66.2916 39.6797H60.5664V47.0796C60.5654 48.0469 60.1807 48.9743 59.4968 49.6583C58.8128 50.3423 57.8855 50.7271 56.9182 50.7282H44.5576V52.5951C44.5577 53.2887 44.8331 53.954 45.3233 54.4448C45.8135 54.9356 46.4785 55.2118 47.1722 55.2127H61.0274L64.568 60.1256C64.5957 60.1633 64.632 60.1939 64.6738 60.215C64.7156 60.236 64.7618 60.2468 64.8086 60.2466C64.8395 60.2468 64.8703 60.2427 64.9001 60.2346C64.9594 60.2147 65.0111 60.1766 65.0476 60.1258C65.0842 60.075 65.1039 60.0139 65.1039 59.9513V55.2127H66.2943C66.9875 55.2111 67.6518 54.9346 68.1414 54.4439C68.631 53.9531 68.906 53.2883 68.9061 52.5951V42.297C68.9055 41.6035 68.6299 40.9386 68.1398 40.448C67.6497 39.9573 66.985 39.6811 66.2916 39.6797Z" fill="white"/>
<path d="M56.9176 31.7539H34.1531C33.342 31.7547 32.5643 32.0773 31.9907 32.6509C31.4172 33.2244 31.0946 34.0021 31.0938 34.8133V47.0786C31.0946 47.8898 31.4172 48.6675 31.9907 49.241C32.5643 49.8146 33.342 50.1372 34.1531 50.138H35.6268V55.8367C35.6271 55.8991 35.6471 55.9598 35.6839 56.0101C35.7208 56.0604 35.7726 56.0978 35.832 56.1169C35.8914 56.1359 35.9553 56.1357 36.0146 56.1163C36.0739 56.0968 36.1255 56.0591 36.162 56.0086L40.3901 50.137H56.9176C57.7288 50.1361 58.5065 49.8136 59.08 49.24C59.6536 48.6664 59.9762 47.8887 59.977 47.0776V34.8133C59.9762 34.0021 59.6536 33.2244 59.08 32.6509C58.5065 32.0773 57.7288 31.7547 56.9176 31.7539ZM39.1719 42.3222C38.8576 42.3222 38.5503 42.229 38.289 42.0543C38.0277 41.8797 37.824 41.6315 37.7037 41.3411C37.5834 41.0508 37.5519 40.7312 37.6133 40.423C37.6746 40.1147 37.8259 39.8315 38.0482 39.6093C38.2704 39.387 38.5536 39.2357 38.8618 39.1744C39.1701 39.1131 39.4896 39.1445 39.78 39.2648C40.0704 39.3851 40.3186 39.5888 40.4932 39.8501C40.6678 40.1114 40.761 40.4187 40.761 40.733C40.7605 41.1543 40.5929 41.5582 40.295 41.8561C39.9971 42.154 39.5932 42.3216 39.1719 42.3222ZM45.5367 42.3222C45.2224 42.3222 44.9152 42.229 44.6539 42.0543C44.3925 41.8797 44.1888 41.6315 44.0686 41.3411C43.9483 41.0508 43.9168 40.7312 43.9781 40.423C44.0394 40.1147 44.1908 39.8315 44.413 39.6093C44.6353 39.387 44.9185 39.2357 45.2267 39.1744C45.535 39.1131 45.8545 39.1445 46.1449 39.2648C46.4353 39.3851 46.6835 39.5888 46.8581 39.8501C47.0327 40.1114 47.1259 40.4187 47.1259 40.733C47.1255 41.1546 46.9577 41.5587 46.6595 41.8567C46.3612 42.1547 45.9569 42.3221 45.5354 42.3222H45.5367ZM51.9016 42.3222C51.5873 42.3222 51.2801 42.229 51.0187 42.0543C50.7574 41.8797 50.5537 41.6315 50.4334 41.3411C50.3132 41.0508 50.2817 40.7312 50.343 40.423C50.4043 40.1147 50.5557 39.8315 50.7779 39.6093C51.0002 39.387 51.2833 39.2357 51.5916 39.1744C51.8999 39.1131 52.2194 39.1445 52.5098 39.2648C52.8001 39.3851 53.0483 39.5888 53.223 39.8501C53.3976 40.1114 53.4908 40.4187 53.4908 40.733C53.4903 41.1546 53.3226 41.5587 53.0243 41.8567C52.7261 42.1547 52.3218 42.3221 51.9002 42.3222H51.9016Z" fill="white"/>
<defs>
<filter id="filter0_d_506_2" x="0" y="0" width="100" height="100" filterUnits="userSpaceOnUse" color-interpolation-filters="sRGB">
<feFlood flood-opacity="0" result="BackgroundImageFix"/>
<feColorMatrix in="SourceAlpha" type="matrix" values="0 0 0 0 0 0 0 0 0 0 0 0 0 0 0 0 0 0 127 0" result="hardAlpha"/>
<feOffset dy="4"/>
<feGaussianBlur stdDeviation="10"/>
<feComposite in2="hardAlpha" operator="out"/>
<feColorMatrix type="matrix" values="0 0 0 0 0.0991667 0 0 0 0 0.35 0 0 0 0 0.290815 0 0 0 0.08 0"/>
<feBlend mode="normal" in2="BackgroundImageFix" result="effect1_dropShadow_506_2"/>
<feBlend mode="normal" in="SourceGraphic" in2="effect1_dropShadow_506_2" result="shape"/>
</filter>
</defs>
</svg>
